<svg id="Layer_1" height="512" viewBox="0 0 512 512" width="512" xmlns="http://www.w3.org/2000/svg" data-name="Layer 1"><path d="m184.44 332.09-.07.11-84.74 133.59v.25h72.1l37.86-121.01.03-.08a130.4 130.4 0 0 1 -25.18-12.86z" fill="#ccd3df"/><path d="m327.63 332.2-.07-.11a130.26 130.26 0 0 1 -25.11 12.83l.04.11 37.86 121.01h72.02v-.25z" fill="#ccd3df"/><path d="m184.44 332.09-.07.11-84.74 133.59v.25h23.744l77.241-124.92a129.767 129.767 0 0 1 -16.175-9.03z" fill="#e2e4ed"/><path d="m319.394 337.02a130.008 130.008 0 0 1 -16.944 7.9l.04.11 37.86 121.01h23.061z" fill="#e2e4ed"/><path d="m87.13 466.04a19.572 19.572 0 0 0 -19.58 19.58v17.73h35.8v-37.31z" fill="#a0d7fb"/><path d="m256 503.13v.22h-76.33v-.22-37.09h76.33z" fill="#a0d7fb"/><path d="m332.33 466.04v37.09.22h76.32v-.22-37.09z" fill="#a0d7fb"/><path d="m428.94 466.04h-20.29v37.31h39.87v-17.73a19.578 19.578 0 0 0 -19.58-19.58z" fill="#c6eafd"/><path d="m332.33 503.13v.22h-76.33v-.22-37.09h76.33z" fill="#c6eafd"/><path d="m103.35 466.04v37.09.22h76.32v-.22-37.09z" fill="#c6eafd"/><g fill="#1ae5be"><path d="m187.67 265.858h64.299v12h-64.299z" transform="matrix(.513 -.858 .858 .513 -126.309 321.074)"/><path d="m162.833 217.197h64.238v12h-64.238z"/><path d="m283.97 217.228h64.697v12h-64.697z"/><path d="m256.748 166.36h64.725v12h-64.725z" transform="matrix(.524 -.852 .852 .524 -9.231 328.196)"/><path d="m283.375 240.828h12v64.822h-12z" transform="matrix(.885 -.466 .466 .885 -93.988 166.326)"/><path d="m216.675 139.478h12v65.142h-12z" transform="matrix(.886 -.465 .465 .886 -54.441 123.144)"/><path d="m303.067 219.546h12v64.518h-12z" transform="matrix(.488 -.873 .873 .488 -61.532 398.723)"/><path d="m195.743 163.228h12v64.317h-12z" transform="matrix(.504 -.864 .864 .504 -68.711 271.088)"/><path d="m169.239 243.579h63.847v12h-63.847z" transform="matrix(.876 -.481 .481 .876 -95.315 127.69)"/><path d="m277.08 189.351h65.243v12h-65.243z" transform="matrix(.867 -.498 .498 .867 -56.143 180.033)"/><path d="m249.521 129.317h12v65.372h-12z"/><path d="m249.608 251.72h12v64.264h-12z" transform="matrix(1 -.003 .003 1 -.77 .695)"/><path d="m83.745 217.175h41.648v12h-41.648z"/><path d="m386.834 217.297h41.347v12h-41.347z"/><path d="m316.877 89.769h38.767v12h-38.767z" transform="matrix(.524 -.852 .852 .524 78.422 331.909)"/><path d="m174.503 70.876h12v41.578h-12z" transform="matrix(.886 -.465 .465 .886 -21.924 94.351)"/><path d="m381.43 275.907h12v39.403h-12z" transform="matrix(.488 -.873 .873 .488 -59.639 489.555)"/><path d="m121.954 136.851h12v30.903h-12z" transform="matrix(.504 -.864 .864 .504 -68.088 186.004)"/><path d="m104.724 286.197h37.722v12h-37.722z" transform="matrix(.876 -.481 .481 .876 -125.42 95.603)"/><path d="m368.689 146.662h31.024v12h-31.024z" transform="matrix(.869 -.495 .495 .869 -25.189 210.245)"/><path d="m249.521 48.461h12v43.75h-12z"/><path d="m249.856 353.423h12v43.76h-12z" transform="matrix(1 -.003 .003 1 -1.019 .697)"/><path d="m152.32 344.383h42.36v12h-42.36z" transform="matrix(.513 -.858 .858 .513 -216.269 319.554)"/><path d="m332.5 329.203h12v42.36h-12z" transform="matrix(.858 -.513 .513 .858 -131.816 223.288)"/></g><path d="m255.61 91.994a131.211 131.211 0 1 0 131.211 131.211 131.211 131.211 0 0 0 -131.211-131.211zm0 224.15a92.939 92.939 0 1 1 92.939-92.939 92.939 92.939 0 0 1 -92.939 92.939z" fill="#edb740"/><path d="m147.505 237.27a131.255 131.255 0 0 1 187.42-118.588 131.22 131.22 0 1 0 -135.525 223.111 131 131 0 0 1 -51.895-104.523z" fill="#ffd488"/><path d="m362.79 191.971a6 6 0 0 1 -5.672-4.045c-.608-1.762-1.272-3.532-1.972-5.259a6 6 0 0 1 11.12-4.51c.78 1.924 1.519 3.894 2.2 5.856a6.006 6.006 0 0 1 -5.672 7.958z" fill="#f4f8fc"/><path d="m350.577 167.06a5.994 5.994 0 0 1 -5.026-2.715 107.486 107.486 0 0 0 -41.146-36.91 6 6 0 0 1 5.44-10.7 118.672 118.672 0 0 1 37.3 29.669 120.048 120.048 0 0 1 8.442 11.365 6 6 0 0 1 -5.015 9.287z" fill="#f4f8fc"/><circle cx="255.61" cy="223.205" fill="#b0b5ca" r="30.705"/><circle cx="255.52" cy="223.2" fill="#6d7486" r="10"/><path d="m473.88 228.4 3.36 13.55a2.458 2.458 0 0 1 -2.45 2.47h-50.09a2.46 2.46 0 0 1 -2.46-2.47l3.36-13.55.1.02h48.09z" fill="#de3c44"/><path d="m445.91 315.86 3.36 13.54a2.461 2.461 0 0 1 -2.45 2.48h-50.09a2.469 2.469 0 0 1 -2.46-2.48l3.36-13.54.1.02h48.09z" fill="#49bdff"/><path d="m377.41 366.85c-.34-1.35-1.1-2.48-2.46-2.48h-32.9c-1.36 0-2.08.95-2.46 2.48l-5.23 21.08.09.02h48.1l.09-.02z" fill="#fb6771"/><path d="m382.64 387.93 3.36 13.55a2.465 2.465 0 0 1 -2.45 2.47h-50.1a2.465 2.465 0 0 1 -2.45-2.47l3.36-13.55.09.02h48.1z" fill="#de3c44"/><path d="m177.64 387.93 3.36 13.55a2.465 2.465 0 0 1 -2.45 2.47h-50.1a2.465 2.465 0 0 1 -2.45-2.47l3.36-13.55.09.02h48.1z" fill="#de3c44"/><path d="m114.37 315.86 3.36 13.54a2.469 2.469 0 0 1 -2.46 2.48h-50.09a2.461 2.461 0 0 1 -2.45-2.48l3.36-13.54.09.02h48.09z" fill="#49bdff"/><path d="m88.4 228.4 3.36 13.55a2.46 2.46 0 0 1 -2.46 2.47h-50.09a2.458 2.458 0 0 1 -2.45-2.47l3.36-13.55.09.02h48.09z" fill="#de3c44"/><path d="m120.79 151.22a2.469 2.469 0 0 1 -2.46 2.48h-50.09a2.467 2.467 0 0 1 -2.45-2.48l3.36-13.54.09.02h48.09l.1-.02 3.18 12.83z" fill="#49bdff"/><path d="m181.27 61.24-.09.02h-48.09l-.1-.02-3.36 13.54a2.469 2.469 0 0 0 2.46 2.48h50.09a2.467 2.467 0 0 0 2.45-2.48z" fill="#de3c44"/><path d="m379.01 67.24-.1.02h-48.09l-.09-.02-3.36 13.55a2.465 2.465 0 0 0 2.45 2.47h50.09a2.467 2.467 0 0 0 2.46-2.47z" fill="#de3c44"/><path d="m443.85 137.31 3.36 13.55a2.465 2.465 0 0 1 -2.45 2.47h-50.09a2.467 2.467 0 0 1 -2.46-2.47l.47-1.88 2.89-11.67.1.02h48.09z" fill="#49bdff"/><path d="m440.68 294.77a2.465 2.465 0 0 0 -2.45-2.47h-32.91a2.458 2.458 0 0 0 -2.45 2.47l-5.24 21.09.1.02h48.09l.09-.02z" fill="#8dfff9"/><path d="m468.65 207.32a2.458 2.458 0 0 0 -2.45-2.47h-32.91a2.46 2.46 0 0 0 -2.46 2.47l-5.23 21.08.1.02h48.09l.09-.02z" fill="#fb6771"/><path d="m438.62 116.23 5.23 21.08-.09.02h-48.09l-.1-.02 5.23-21.08a2.469 2.469 0 0 1 2.46-2.48h32.91a2.467 2.467 0 0 1 2.45 2.48z" fill="#8dfff9"/><path d="m373.78 46.16 5.23 21.08-.1.02h-48.09l-.09-.02 5.23-21.08a2.467 2.467 0 0 1 2.45-2.48h32.91a2.469 2.469 0 0 1 2.46 2.48z" fill="#fb6771"/><path d="m176.04 40.15 5.23 21.09-.09.02h-48.09l-.1-.02 5.23-21.09a2.467 2.467 0 0 1 2.46-2.47h32.91a2.465 2.465 0 0 1 2.45 2.47z" fill="#fb6771"/><path d="m112.2 116.59 5.23 21.09-.1.02h-48.09l-.09-.02 5.23-21.09a2.465 2.465 0 0 1 2.45-2.47h32.91a2.467 2.467 0 0 1 2.46 2.47z" fill="#8dfff9"/><path d="m83.17 207.32a2.46 2.46 0 0 0 -2.46-2.47h-32.91a2.458 2.458 0 0 0 -2.45 2.47l-5.23 21.08.09.02h48.09l.1-.02z" fill="#fb6771"/><path d="m109.13 294.77 5.24 21.09-.1.02h-48.09l-.09-.02 5.23-21.09a2.465 2.465 0 0 1 2.45-2.47h32.91a2.458 2.458 0 0 1 2.45 2.47z" fill="#8dfff9"/><path d="m172.41 366.85c-.34-1.35-1.1-2.48-2.46-2.48h-32.9c-1.36 0-2.08.95-2.46 2.48l-5.23 21.08.09.02h48.1l.09-.02z" fill="#fb6771"/><path d="m280.14 418.96 3.36 13.55a2.465 2.465 0 0 1 -2.45 2.47h-50.1a2.465 2.465 0 0 1 -2.45-2.47l3.36-13.55.09.02h48.1z" fill="#49bdff"/><path d="m274.91 397.88 5.23 21.08-.09.02h-48.1l-.09-.02 5.23-21.08a2.469 2.469 0 0 1 2.46-2.48h32.9a2.469 2.469 0 0 1 2.46 2.48z" fill="#8dfff9"/><path d="m280.14 36.21 3.36 13.55a2.465 2.465 0 0 1 -2.45 2.47h-50.1a2.465 2.465 0 0 1 -2.45-2.47l3.36-13.55.09.02h48.1z" fill="#49bdff"/><path d="m274.91 15.13 5.23 21.08-.09.02h-48.1l-.09-.02 5.23-21.08a2.469 2.469 0 0 1 2.46-2.48h32.9a2.469 2.469 0 0 1 2.46 2.48z" fill="#8dfff9"/></svg>