<svg height="512" viewBox="0 0 64 64" width="512" xmlns="http://www.w3.org/2000/svg"><g id="flat"><path d="m7 19 5.98 9.89c2.81-2.66 8.47-6.89 16.02-6.89v-9a30.313 30.313 0 0 1 -15.72-4.41z" fill="#394d5c"/><path d="m57 19-5.98 9.89c-2.81-2.66-8.47-6.89-16.02-6.89v-9a30.313 30.313 0 0 0 15.72-4.41z" fill="#394d5c"/><g fill="#ad6327"><path d="m30 50h4v6h-4z" transform="matrix(0 -1 1 0 -21 85)"/><path d="m21 21h22v6h-22z" transform="matrix(0 -1 1 0 8 56)"/><path d="m9 35h8v16h-8z"/></g><path d="m12 38h2v2h-2z" fill="#66342e"/><path d="m12 42h2v2h-2z" fill="#66342e"/><path d="m12 46h2v2h-2z" fill="#66342e"/><path d="m32.005 61h-.005a3.6 3.6 0 0 1 -3.416-4.738l.416-1.262h6l.421 1.262a3.6 3.6 0 0 1 -3.416 4.738z" fill="#d3843d"/><path d="m34 9h-4l-1-3 3-3 3 3z" fill="#7d8d9c"/><path d="m29 21h6v4h-6z" fill="#143441"/><path d="m35 13h-6l1-4h4z" fill="#143441"/><path d="m29 18c-.379 0-9.336-.036-14.515-3.143l1.03-1.714c4.708 2.824 13.398 2.857 13.485 2.857z" fill="#cfdfe8"/><path d="m10.6 19a20.431 20.431 0 0 0 2.38 9.89 20.831 20.831 0 0 0 -1.98 2.11s-4-3-4-12 4-12 4-12a20.112 20.112 0 0 0 2.28 1.59 20.213 20.213 0 0 0 -2.68 10.41z" fill="#aabece"/><path d="m35 18v-2c.087 0 8.785-.037 13.485-2.857l1.03 1.714c-5.179 3.107-14.136 3.143-14.515 3.143z" fill="#cfdfe8"/><path d="m57 19c0 9-4 12-4 12a20.831 20.831 0 0 0 -1.98-2.11 20.431 20.431 0 0 0 2.38-9.89 20.213 20.213 0 0 0 -2.68-10.41 20.112 20.112 0 0 0 2.28-1.59s4 3 4 12z" fill="#aabece"/><path d="m29 13h6v9h-6z" fill="#7d8d9c"/><path d="m37 49a2 2 0 0 0 -2-2h1a2 2 0 0 0 0-4 2 2 0 0 0 0-4h1a2 2 0 0 0 0-4h-8v-4h-3l-3 4-3 2h-3v12h3l3 2h12a2 2 0 0 0 2-2z" fill="#ffd782"/><path d="m38.919 40.305a3.081 3.081 0 0 0 -3.036-2.305h-6.883a1 1 0 0 0 -1 1 1 1 0 0 0 1 1h7a1 1 0 0 1 0 2h-7a1 1 0 0 0 -1 1 1 1 0 0 0 1 1h7a1 1 0 0 1 0 2h-7a1 1 0 0 0 -1 1 1 1 0 0 0 1 1h6a1 1 0 0 1 0 2h-6a1 1 0 0 0 -1 1 1 1 0 0 0 1 1h5.884a3.093 3.093 0 0 0 2.921-1.949 2.912 2.912 0 0 0 -.206-2.522 2.971 2.971 0 0 0 .621-4.529 2.968 2.968 0 0 0 .699-2.695z" fill="#f9bb4b"/></g></svg>