<svg id="Flat" height="512" viewBox="0 0 512 512" width="512" xmlns="http://www.w3.org/2000/svg"><path d="m432 312q0 4.02-.18 8a175.4 175.4 0 0 1 -50.1 115.17q-5.61 5.715-11.72 10.92a175.177 175.177 0 0 1 -106 41.73q-3.975.18-8 .18t-8-.18a175.177 175.177 0 0 1 -106-41.73q-6.1-5.19-11.72-10.92a175.4 175.4 0 0 1 -50.1-115.17q-.18-3.975-.18-8t.18-8a175.4 175.4 0 0 1 50.1-115.17q5.61-5.715 11.72-10.92a175.177 175.177 0 0 1 106-41.73q3.975-.18 8-.18t8 .18a175.177 175.177 0 0 1 106 41.73q6.105 5.19 11.72 10.92a175.4 175.4 0 0 1 50.1 115.17q.18 3.975.18 8z" fill="#ff750a"/><path d="m432 312q0-4.02-.18-8h-103.62a168.588 168.588 0 0 1 53.26-114.9c.09-.09.18-.18.26-.27q-5.61-5.715-11.72-10.92a183.52 183.52 0 0 0 -57.83 126.09h-48.17v-167.82q-3.975-.18-8-.18t-8 .18v167.82h-48.17a182.148 182.148 0 0 0 -15.6-66.63 183.05 183.05 0 0 0 -42.23-59.46q-6.1 5.19-11.72 10.92c.08.09.17.18.26.27a168.588 168.588 0 0 1 53.26 114.9h-103.62q-.18 3.975-.18 8t.18 8h103.62a168.588 168.588 0 0 1 -53.26 114.9c-.09.09-.18.18-.26.27q5.61 5.715 11.72 10.92a183.05 183.05 0 0 0 42.23-59.46 182.148 182.148 0 0 0 15.6-66.63h48.17v167.82q3.975.18 8 .18t8-.18v-167.82h48.17a183.52 183.52 0 0 0 57.83 126.09q6.105-5.19 11.72-10.92c-.08-.09-.17-.18-.26-.27a168.588 168.588 0 0 1 -53.26-114.9h103.62q.18-3.975.18-8z" fill="#e36809"/><path d="m320 40-48-16h-120l-55.155 27.578a16 16 0 0 0 -8.845 14.311v22.111l64-32h88l32 32h-72a16 16 0 0 0 -16 16 16 16 0 0 0 16 16h240v-80z" fill="#f7cca9"/><g fill="#dadcde"><path d="m72 208a8 8 0 0 1 -8-8v-80a8 8 0 0 1 16 0v80a8 8 0 0 1 -8 8z"/><path d="m104 160a8 8 0 0 1 -8-8v-32a8 8 0 0 1 16 0v32a8 8 0 0 1 -8 8z"/><path d="m456 240a8 8 0 0 1 -8-8v-80a8 8 0 0 1 16 0v80a8 8 0 0 1 -8 8z"/><path d="m424 192a8 8 0 0 1 -8-8v-32a8 8 0 0 1 16 0v32a8 8 0 0 1 -8 8z"/></g></svg>