<svg id="Capa_1" enable-background="new 0 0 512 512" height="512" viewBox="0 0 512 512" width="512" xmlns="http://www.w3.org/2000/svg"><g><path d="m496.39 353.821h-480.78v-343.519c0-5.69 4.612-10.302 10.302-10.302h460.177c5.69 0 10.302 4.612 10.302 10.302v343.519z" fill="#fb636f"/><path d="m476.618 0v323.642c0 5.747-4.659 10.406-10.406 10.406h-450.602v19.772h480.78v-343.518c0-5.69-4.612-10.302-10.302-10.302z" fill="#fa4954"/><path d="m57.236 353.821v-301.893c0-5.69 4.612-10.302 10.302-10.302h376.925c5.69 0 10.302 4.612 10.302 10.302v301.893z" fill="#595959"/><path d="m512 389.903v111.795c0 2.081-.618 4.028-1.69 5.645-1.834 2.802-5.007 4.656-8.612 4.656h-491.396c-3.606 0-6.779-1.854-8.612-4.656-1.072-1.617-1.69-3.564-1.69-5.645v-111.795c0-1.751.227-3.482.659-5.161.361-1.401.865-2.75 1.514-4.049l13.434-26.867h480.785l13.434 26.867c.649 1.298 1.154 2.648 1.514 4.049.433 1.679.66 3.41.66 5.161z" fill="#da8659"/><path d="m511.341 384.742h-510.682c.361-1.401.865-2.75 1.514-4.049l13.434-26.867h480.785l13.434 26.867c.649 1.298 1.154 2.648 1.515 4.049z" fill="#c56e37"/><path d="m510.31 507.344c-1.834 2.802-5.007 4.656-8.612 4.656h-491.396c-3.606 0-6.779-1.854-8.612-4.656l44.36-122.602 11.188-30.916h397.526l11.188 30.916z" fill="#fcd0a3"/><g><path d="m433.088 204.374c-7.021-7.751-15.161-19.493-15.161-38.986 0-31.947 6.498-40.611 6.498-56.314 0-11.962-10.78-21.659-22.742-21.659s-22.742 9.697-22.742 21.659c0 15.703 6.498 24.366 6.498 56.314 0 19.493-8.141 31.236-15.161 38.986-9.536 10.527-21.659 20.576-21.659 52.523 0 29.24 23.825 96.924 23.825 96.924h58.479s23.825-67.685 23.825-96.924c-.001-31.947-12.124-41.997-21.66-52.523z" fill="#c9e2e7"/><path d="m408.572 256.897c0-37.405-14.891-53.411-24.745-64.002-.779-.837-1.549-1.664-2.301-2.494-.342-.378-.682-.762-1.019-1.153-2.915 6.358-6.712 11.244-10.229 15.126-9.536 10.527-21.659 20.576-21.659 52.523 0 29.24 23.825 96.924 23.825 96.924h13.497c6.45-19.142 22.631-69.858 22.631-96.924z" fill="#a8d0d5"/><g><path d="m350.113 239.35h103.14c-2.997-15.864-10.032-24.033-16.693-31.22h-69.754c-6.661 7.187-13.696 15.356-16.693 31.22z" fill="#fa4954"/><path d="m350.113 239.35h57.219c-2.041-13.67-6.377-23.603-11.225-31.22h-29.301c-6.661 7.187-13.696 15.356-16.693 31.22z" fill="#fa2a3b"/></g><path d="m360.243 204.374c-7.021-7.751-15.161-19.493-15.161-38.986 0-31.947 6.498-40.611 6.498-56.314 0-11.962-10.78-21.659-22.742-21.659s-22.742 9.697-22.742 21.659c0 15.703 6.498 24.366 6.498 56.314 0 19.493-8.141 31.236-15.161 38.986-9.536 10.527-21.659 20.576-21.659 52.523 0 29.24 23.825 96.924 23.825 96.924h58.479s23.825-67.685 23.825-96.924c-.001-31.947-12.125-41.997-21.66-52.523z" fill="#eff3f5"/><path d="m335.726 256.897c0-37.405-14.891-53.411-24.745-64.002-.779-.837-1.549-1.664-2.301-2.494-.342-.378-.682-.762-1.019-1.153-2.915 6.358-6.712 11.244-10.229 15.126-9.536 10.527-21.659 20.576-21.659 52.523 0 29.24 23.825 96.924 23.825 96.924h13.497c6.45-19.142 22.631-69.858 22.631-96.924z" fill="#c9e2e7"/><g><path d="m277.267 239.35h103.14c-2.997-15.864-10.032-24.033-16.693-31.22h-69.754c-6.661 7.187-13.696 15.356-16.693 31.22z" fill="#fb636f"/><path d="m277.267 239.35h57.219c-2.041-13.67-6.377-23.603-11.225-31.22h-29.301c-6.661 7.187-13.696 15.356-16.693 31.22z" fill="#fa4954"/></g><path d="m78.912 204.374c7.021-7.751 15.161-19.493 15.161-38.986 0-31.947-6.498-40.611-6.498-56.314 0-11.962 10.78-21.659 22.742-21.659s22.742 9.697 22.742 21.659c0 15.703-6.498 24.366-6.498 56.314 0 19.493 8.141 31.236 15.161 38.986 9.536 10.527 21.659 20.576 21.659 52.523 0 29.24-23.825 96.924-23.825 96.924h-58.478s-23.825-67.685-23.825-96.924c0-31.947 12.123-41.997 21.659-52.523z" fill="#c9e2e7"/><path d="m103.428 256.897c0-37.405 14.891-53.411 24.745-64.002.779-.837 1.549-1.664 2.301-2.494.342-.378.682-.762 1.019-1.153 2.915 6.358 6.712 11.244 10.229 15.126 9.536 10.527 21.659 20.576 21.659 52.523 0 29.24-23.825 96.924-23.825 96.924h-13.496c-6.451-19.142-22.632-69.858-22.632-96.924z" fill="#a8d0d5"/><g><path d="m161.887 239.35h-103.14c2.997-15.864 10.032-24.033 16.693-31.22h69.754c6.661 7.187 13.696 15.356 16.693 31.22z" fill="#fa4954"/><path d="m161.887 239.35h-57.219c2.041-13.67 6.377-23.603 11.225-31.22h29.301c6.661 7.187 13.696 15.356 16.693 31.22z" fill="#fa2a3b"/></g><path d="m151.757 204.374c7.021-7.751 15.161-19.493 15.161-38.986 0-31.947-6.498-40.611-6.498-56.314 0-11.962 10.78-21.659 22.742-21.659s22.742 9.697 22.742 21.659c0 15.703-6.498 24.366-6.498 56.314 0 19.493 8.141 31.236 15.161 38.986 9.536 10.527 21.659 20.576 21.659 52.523 0 29.24-23.825 96.924-23.825 96.924h-58.479s-23.825-67.685-23.825-96.924c.001-31.947 12.125-41.997 21.66-52.523z" fill="#eff3f5"/><path d="m176.274 256.897c0-37.405 14.891-53.411 24.745-64.002.779-.837 1.549-1.664 2.301-2.494.342-.378.682-.762 1.019-1.153 2.915 6.358 6.712 11.244 10.229 15.126 9.536 10.527 21.659 20.576 21.659 52.523 0 29.24-23.825 96.924-23.825 96.924h-13.497c-6.45-19.142-22.631-69.858-22.631-96.924z" fill="#c9e2e7"/><g><path d="m234.733 239.35h-103.14c2.997-15.864 10.032-24.033 16.693-31.22h69.754c6.661 7.187 13.696 15.356 16.693 31.22z" fill="#fb636f"/><path d="m234.733 239.35h-57.219c2.041-13.67 6.377-23.603 11.225-31.22h29.301c6.661 7.187 13.696 15.356 16.693 31.22z" fill="#fa4954"/></g><path d="m287.406 204.374c-7.021-7.751-15.161-19.493-15.161-38.986 0-31.947 6.498-40.611 6.498-56.314 0-11.962-10.78-21.659-22.742-21.659s-22.742 9.697-22.742 21.659c0 15.703 6.498 24.366 6.498 56.314 0 19.493-8.141 31.236-15.161 38.986-9.536 10.527-21.659 20.576-21.659 52.523 0 29.24 23.825 96.924 23.825 96.924h58.479s23.825-67.685 23.825-96.924c-.001-31.947-12.125-41.997-21.66-52.523z" fill="#eff3f5"/><path d="m306.869 236.074c-1.88 47.118-27.424 84.446-58.674 84.446-14.521 0-27.804-8.076-38.062-21.432 7.014 27.42 16.627 54.733 16.627 54.733h58.479s23.825-67.685 23.825-96.924c.001-8.288-.82-15.092-2.195-20.823z" fill="#c9e2e7"/><path d="m204.43 239.35h103.14c-2.997-15.864-10.032-24.033-16.693-31.22h-69.754c-6.661 7.187-13.696 15.356-16.693 31.22z" fill="#fb636f"/></g><g><path d="m57.236 312.195h397.528v41.626h-397.528z" fill="#cbcbcb"/></g><path d="m57.236 334.049h397.528v19.772h-397.528z" fill="#ababab"/><path d="m465.953 384.743-11.189-30.922h-397.528l-11.189 30.922h57.199c6.42 0 11.177 5.964 9.75 12.224l-26.241 115.033h15.869l27.24-119.479c1.037-4.55 5.083-7.777 9.75-7.777h49.989c5.846 0 10.445 4.993 9.966 10.819l-9.571 116.437h15.478l9.726-118.078c.427-5.187 4.762-9.179 9.966-9.179h61.663c5.205 0 9.539 3.992 9.966 9.179l9.727 118.078h15.479l-9.572-116.437c-.479-5.826 4.12-10.819 9.966-10.819h49.989c4.666 0 8.713 3.227 9.75 7.777l27.24 119.479h15.861l-26.235-115.033c-1.428-6.26 3.329-12.224 9.75-12.224z" fill="#ffb983"/></g></svg>