<svg height="512" viewBox="0 0 60 59" width="512" xmlns="http://www.w3.org/2000/svg"><g id="Page-1" fill="none" fill-rule="evenodd"><g id="014---Sport-Podcast" fill-rule="nonzero"><path id="Shape" d="m51 30c.0018858 9.5082688-6.3850868 17.8314335-15.57 20.29l-3.64 7.6c-.338327.678829-1.0315318 1.1078677-1.79 1.1078677s-1.451673-.4290387-1.79-1.1078677l-3.64-7.6c-10.5184568-2.8155225-17.14009799-13.2037619-15.25182605-23.9275452 1.88827195-10.7237833 11.66001185-18.22543305 22.50754335-17.2787762 10.8475316.9466568 19.172123 10.0275614 19.1742827 20.9163214z" fill="#24ae5f"/><path id="Shape" d="m47.27 18.06c-8.6295306-5.2989596-19.8353042-3.5029165-26.3764947 4.2275814-6.5411906 7.7304979-6.4577119 19.0789851.1964947 26.7124186-7.9840288-3.7600491-12.76535419-12.1106817-11.96647328-20.8995654.79888091-8.7888836 7.00749558-16.1405664 15.53862508-18.3994414 8.5311294-2.25887502 17.5643237 1.057077 22.6078482 8.2990068z" fill="#4fba6f"/><path id="Shape" d="m41.28 4.28c-.1344044.00347623-.2678183-.02389072-.39-.08-4.6527103-1.96150978-9.74925-2.62837905-14.75-1.93-.5522847.07731986-1.0626801-.30771525-1.14-.86s.3077153-1.06268013.86-1.14c1.3726377-.18016296 2.7555894-.27035547 4.14-.27 4.0093654-.00855681 7.9790102.79421628 11.67 2.36.4368475.18609386.6825935.65373112.5880733 1.11906176-.0945203.46533063-.5032408.80002938-.9780733.80093824z" fill="#fac176"/><path id="Shape" d="m18.72 4.28c-.4748325-.00090886-.883553-.33560761-.9780733-.80093824-.0945202-.46533064.1512258-.9329679.5880733-1.11906176 1.1058277-.46526047 2.2377317-.86593445 3.39-1.2.5301934-.15463972 1.0853603.14980665 1.24.68.1546397.53019336-.1498066 1.08536026-.68 1.24-1.0774022.31182351-2.135841.68578295-3.17 1.12-.1221817.05610928-.2555956.08347623-.39.08z" fill="#fac176"/><path id="Shape" d="m39.73 8c-.1338089-.00249808-.2660137-.02961701-.39-.08-5.9736866-2.51015765-12.7063134-2.51015765-18.68 0-.5301934.21539104-1.1346089-.03980666-1.35-.57000001-.215391-.53019335.0398067-1.13460893.57-1.34999999 6.4724808-2.72017719 13.7675192-2.72017719 20.24 0 .3572656.06966679.6502258.32464048.7685254.66887495.1182996.34423448.043966.72543232-.195 1-.238966.27456769-.6062598.40079184-.9635254.33112505z" fill="#f18d46"/><path id="Shape" d="m1.29 35c-.50193203.0049401-.92975042-.3629837-1-.86-.73565876-5.368613-.0137759-10.8362712 2.09-15.83.1411199-.3286843.44687109-.5571146.80208004-.5992434.35520894-.0421287.70591097.1084444.92.395.21408904.2865556.25903987.6655591.11791996.9942434-1.46783756 3.4463376-2.22299613 7.1540981-2.22 10.9.00161714 1.2943089.08847175 2.5871063.26 3.87.07793707.5400232-.29138848 1.0428399-.83 1.13z" fill="#fac176"/><path id="Shape" d="m3.3 42.26c-.4012802-.000327-.7635008-.2404951-.92-.61-.46812956-1.1047153-.86886444-2.2367913-1.2-3.39-.12043787-.3496889-.03803401-.7372986.21424262-1.0077502.25227664-.2704517.63322686-.3795781.99043633-.2837188s.63234247.3810496.71532105.741469c.3105356 1.0745482.68452548 2.129734 1.12 3.16.21494317.5081056-.02221741 1.0942949-.53 1.31-.12398634.050383-.25619111.0775019-.39.08z" fill="#fac176"/><path id="Shape" d="m7 40.71c-.4012802-.000327-.7635008-.2404951-.92-.61-2.72017719-6.4724808-2.72017719-13.7675192 0-20.24.21570508-.5077826.80189442-.7449432 1.31-.53.50778259.2157051.74494317.8018944.53 1.31-2.50677448 5.974368-2.50677448 12.705632 0 18.68.21494317.5081056-.02221741 1.0942949-.53 1.31-.12250173.0551256-.25568873.082446-.39.08z" fill="#f18d46"/><path id="Shape" d="m58.71 35h-.14c-.5422674-.077514-.9212456-.5768735-.85-1.12.1786567-1.285758.2721937-2.5819126.28-3.88.0066246-3.7377935-.7416658-7.4384298-2.2-10.88-.1411199-.3286843-.0961691-.7076878.1179199-.9942434.2140891-.2865556.5647911-.4371288.9200001-.395.3552089.0421287.6609601.270559.80208.5992434 2.0864342 4.9843879 2.7978147 10.437154 2.06 15.79-.0605761.501169-.4851853.8785995-.99.88z" fill="#fac176"/><path id="Shape" d="m56.7 42.26c-.1338089-.0024981-.2660137-.029617-.39-.08-.5077826-.2157051-.7449432-.8018944-.53-1.31.4354745-1.030266.8094644-2.0854518 1.12-3.16.0829786-.3604194.3581116-.6456097.715321-.741469.3572095-.0958593.7381597.0132671.9904364.2837188.2522766.2704516.3346805.6580613.2142426 1.0077502-.3311356 1.1532087-.7318704 2.2852847-1.2 3.39-.1564992.3695049-.5187198.609673-.92.61z" fill="#fac176"/><path id="Shape" d="m53 40.71c-.1343113.002446-.2674983-.0248744-.39-.08-.5077826-.2157051-.7449432-.8018944-.53-1.31 2.5067745-5.974368 2.5067745-12.705632 0-18.68-.2149432-.5081056.0222174-1.0942949.53-1.31.5081056-.2149432 1.0942949.0222174 1.31.53 2.7201772 6.4724808 2.7201772 13.7675192 0 20.24-.1564992.3695049-.5187198.609673-.92.61z" fill="#f18d46"/><path id="Shape" d="m43.3 21.09-2.3 4.91-5 2-6-4v-6l4.28-3.42c3.6861787 1.0261878 6.8848522 3.3347648 9.02 6.51z" fill="#ecf0f1"/><path id="Shape" d="m46 30c.0000011 3.635287-1.2379467 7.162204-3.51 10h-5.49l-3-5 2-7 5-2 5 3.3z" fill="#ecf0f1"/><path id="Shape" d="m37 40-1.39 5c-3.6188524 1.3462423-7.6011476 1.3462423-11.22 0l-1.39-5 3-5h8z" fill="#ecf0f1"/><path id="Shape" d="m30 18v6l-6 4-5-2-2.3-4.91c2.1301959-3.1714024 5.3211823-5.4795493 9-6.51z" fill="#ecf0f1"/><path id="Shape" d="m26 35-3 5h-5.49c-2.2720533-2.837796-3.5100011-6.364713-3.51-10 0-.24 0-.47 0-.7l5-3.3 5 2z" fill="#ecf0f1"/><path id="Rectangle-path" d="m29 16.05h2v9.17h-2z" fill="#bdc3c7"/><path id="Rectangle-path" d="m34.504 32.755h2v9.5h-2z" fill="#bdc3c7" transform="matrix(.858 -.514 .514 .858 -14.236 23.608)"/><path id="Rectangle-path" d="m20.367 36.406h8.37v2h-8.37z" fill="#bdc3c7" transform="matrix(.515 -.857 .857 .515 -20.156 39.21)"/><path id="Rectangle-path" d="m20.931 22.148h2v10.06h-2z" fill="#bdc3c7" transform="matrix(.371 -.928 .928 .371 -11.448 37.448)"/><path id="Rectangle-path" d="m32.907 26.18h10.3v2h-10.3z" fill="#bdc3c7" transform="matrix(.928 -.372 .372 .928 -7.376 16.093)"/><g fill="#464f5d"><path id="Shape" d="m46 29.3-4.26-2.82c-.4131695-.2749572-.5621644-.8113389-.35-1.26l1.93-4.13c1.6289956 2.4392752 2.5561051 5.279413 2.68 8.21z"/><path id="Shape" d="m42.49 40c-1.8047264 2.2521514-4.1806551 3.9788437-6.88 5l1.19-4.26c.1245106-.4452375.5379962-.747082 1-.73z"/><path id="Shape" d="m18.28 26.48-4.28 2.82c.1238949-2.930587 1.0510044-5.7707248 2.68-8.21l1.93 4.13c.2161047.4438778.0759433.9790396-.33 1.26z"/><path id="Shape" d="m24.39 45c-2.6993449-1.0211563-5.0752736-2.7478486-6.88-5h4.73c.4620038-.017082.8754894.2847625 1 .73z"/><path id="Shape" d="m35.8 28.7-1.59 5.57c-.1245106.4452375-.5379962.747082-1 .73h-6.5c-.4620038.017082-.8754894-.2847625-1-.73l-1.51-5.57c-.1155742-.4167482.0498493-.8605674.41-1.1l4.84-3.23c.3337325-.2197805.7662675-.2197805 1.1 0l4.84 3.23c.3601507.2394326.5255742.6832518.41 1.1z"/><path id="Shape" d="m34.28 14.58-3.66 2.92c-.3634448.2871976-.8765552.2871976-1.24 0l-3.66-2.92c2.8009229-.7734194 5.7590771-.7734194 8.56 0z"/></g></g></g></svg>