<svg height="512" viewBox="0 0 512 512" width="512" xmlns="http://www.w3.org/2000/svg"><g id="flat"><path d="m256 176a8 8 0 0 1 -5.657-13.657 39.414 39.414 0 0 0 1.3-54.447l-22.09-24.3a39.226 39.226 0 0 0 -51.088-6.29l-.5.334a63.176 63.176 0 0 1 -79.505-7.872 62.6 62.6 0 0 1 -18.46-44.554v-1.214a8 8 0 0 1 16 0v1.214a46.7 46.7 0 0 0 13.769 33.241 47.134 47.134 0 0 0 59.316 5.874l.5-.334a55.46 55.46 0 0 1 71.8 8.839l22.09 24.3a55.4 55.4 0 0 1 -1.822 76.524 7.974 7.974 0 0 1 -5.653 2.342z" fill="#97661d"/><path d="m420.118 414.461-1.888 9.439a33.12 33.12 0 0 1 -22 24.923 33.115 33.115 0 0 0 -20.945 20.945l-6.079 18.232-8.923-13.385a39.037 39.037 0 0 1 -.993-41.741 33.108 33.108 0 0 1 11.359-11.359l37.351-21.515z" fill="#fbb540"/><path d="m397.49 346.579-11.313-11.314h-22.628v22.627l11.314 11.314z" fill="#f6bb92"/><g fill="#fdc9a6"><path d="m262.696 187.785h32v80h-32z" transform="matrix(.707 -.707 .707 .707 -79.44 263.785)"/><path d="m216.471 142.932-5.657-28.284-22.627-11.314-16.971 39.598 22.628 22.627z"/><path d="m240.069 210.412h32v80h-32z" transform="matrix(.707 -.707 .707 .707 -102.067 254.412)"/></g><path d="m259.968 202.169h8.686v80h-8.686z" fill="#f6bb92" transform="matrix(.707 -.707 .707 .707 -93.825 257.827)"/><path d="m171.216 188.187-28.284-5.657-11.314-22.628 39.598-16.97 22.628 22.627z" fill="#fdc9a6"/><path d="m193.84 165.56-6.14 6.14-25.08-25.08 8.59-3.69h.01z" fill="#f6bb92"/><path d="m454.059 267.383 22.627-11.314v-11.314l11.314-11.313-22.627-22.628-22.628 22.628-5.657 16.97z" fill="#fdc9a6"/><path d="m363.549 335.265h22.628l67.882-67.882-22.628-22.628-56.568 56.569a48.357 48.357 0 0 0 -21-26.174l-12.945-7.767-22.628-22.628-22.627 22.628-22.623 22.627 22.627 22.628 7.767 12.945a48.362 48.362 0 0 0 26.174 21l-56.568 56.564 22.627 22.628 67.882-67.883z" fill="#ff6268"/><path d="m295.667 425.775-11.314 22.627h-11.313l-11.314 11.314-22.628-22.628 22.628-22.627 16.97-5.657z" fill="#fdc9a6"/><path d="m267.383 239.098 39.598-5.656 11.313 11.313-45.254 45.255-11.314-11.314z" fill="#cf5252"/><path d="m210.613 142.045h40v64h-40z" fill="#fbb540" transform="matrix(-.707 .707 -.707 -.707 516.749 134.045)"/><path d="m182.329 170.329h40v64h-40z" fill="#fbb540" transform="matrix(-.707 .707 -.707 -.707 488.465 202.329)"/><path d="m209.057 159.258h8.686v64h-8.686z" fill="#d18d28" transform="matrix(-.707 .707 -.707 -.707 499.536 175.601)"/><path d="m250.412 154.246a8 8 0 0 0 -11.314 0l-28.285 28.284-28.284 28.284a8 8 0 0 0 11.315 11.314l28.284-28.285 28.284-28.284a8 8 0 0 0 0-11.313z" fill="#c38325"/><path d="m373.49 345.206h48a0 0 0 0 1 0 0v24a24 24 0 0 1 -24 24 24 24 0 0 1 -24-24v-24a0 0 0 0 1 0 0z" fill="#fdc9a6" transform="matrix(-.707 .707 -.707 -.707 939.627 349.206)"/><path d="m391.833 408.8 45.255-45.255 5.657 5.657a32 32 0 0 1 0 45.255 32 32 0 0 1 -45.255 0z" fill="#0296e5"/></g></svg>