<svg id="Capa_1" enable-background="new 0 0 512 512" height="512" viewBox="0 0 512 512" width="512" xmlns="http://www.w3.org/2000/svg"><g><g clip-rule="evenodd" fill-rule="evenodd"><path d="m244.435 110.127 147.091 136.83-198.144 11.508-193.382-11.507 91.305-84.927c3.401-3.175 5.669-2.863 8.788 0l39.855 37.106 95.699-89.009c3.204-2.977 5.925-2.665 8.788-.001z" fill="#e4f6ff"/><path d="m100.093 162.03 91.276 84.927h-29.991l-80.703-75.034 10.63-9.893c3.401-3.175 5.67-2.863 8.788 0zm144.342-51.903 147.091 136.83h-29.991l-136.518-126.965 10.63-9.865c3.204-2.976 5.925-2.664 8.788 0z" fill="#d3effb"/><path d="m10.006 449.099h492.016c5.499 0 9.978-4.508 9.978-10.007v-192.134h-512v192.134c0 5.499 4.507 10.007 10.006 10.007z" fill="#bf8e5e"/><path d="m221.672 281.966 56.835 83.566 56.807 83.567h-113.642-113.613l56.806-83.567z" fill="#dd636e"/><path d="m221.672 281.966 7.512 11.027v89.491c0 .907-.17 1.757-.454 2.58l-19.332 64.036h-15.648l20.438-67.664v-88.442z" fill="#db4655"/><path d="m512 246.958c0 55.503-44.986 100.489-100.489 100.489s-100.49-44.986-100.49-100.489c.085-25.484 9.751-50.769 27.553-69.138 9.326-9.609 7.398-5.811 3.26-17.745-2.636-7.597-3.827-15.591-3.883-23.613 0-40.621 32.939-73.56 73.56-73.56s73.56 32.939 73.56 73.56c-.057 9.355-1.616 18.625-5.415 27.213-3.713 8.419-.368 8.9 5.188 14.598 12.161 12.444 21.119 30.133 24.832 47.056 1.587 7.2 2.296 14.258 2.324 21.629z" fill="#b3e59f"/><path d="m512 246.958c0 55.503-44.986 100.489-100.489 100.489-5.103 0-10.12-.369-14.996-1.106 48.388-7.228 85.494-48.983 85.494-99.383-.028-7.37-.765-14.429-2.325-21.629-3.713-16.923-12.699-34.612-24.831-47.056-5.556-5.698-8.929-6.179-5.188-14.598 3.77-8.589 5.357-17.859 5.386-27.213 0-35.49-25.116-65.084-58.536-72.029 4.847-.992 9.865-1.531 14.996-1.531 40.621 0 73.56 32.939 73.56 73.56-.057 9.355-1.616 18.625-5.415 27.213-3.713 8.419-.368 8.9 5.188 14.598 12.161 12.444 21.119 30.133 24.832 47.056 1.587 7.2 2.296 14.258 2.324 21.629z" fill="#95d6a4"/></g><path d="m456.27 213.735c2.92-2.92 7.654-2.92 10.602 0 2.92 2.92 2.92 7.682 0 10.602l-47.878 47.849v75.261c0 4.167-3.345 7.512-7.483 7.512-4.139 0-7.512-3.345-7.512-7.512v-75.261l-47.85-47.849c-2.919-2.92-2.919-7.682 0-10.602 2.92-2.92 7.683-2.92 10.602 0l37.248 37.248v-86.911l-25.598-25.597c-2.919-2.948-2.919-7.682 0-10.63 2.92-2.92 7.682-2.92 10.602 0l14.996 15.024v-21.912c0-4.139 3.373-7.483 7.512-7.483s7.483 3.345 7.483 7.483v21.912l15.023-15.024c2.92-2.92 7.654-2.92 10.602 0 2.92 2.948 2.92 7.682 0 10.63l-25.625 25.597v86.911z" fill="#a87547"/><path clip-rule="evenodd" d="m381.803 286.926 110.269 162.172h-156.758l-113.642-167.132h150.748c3.855 0 7.03 1.502 9.383 4.96z" fill="#e28086" fill-rule="evenodd"/><path clip-rule="evenodd" d="m381.803 286.926 110.269 162.172h-30.02l-110.24-162.172c-2.353-3.458-5.528-4.961-9.383-4.961h29.991c3.855.001 7.03 1.503 9.383 4.961z" fill="#dd636e" fill-rule="evenodd"/><path clip-rule="evenodd" d="m41.046 280.974h78.01c3.43 0 4.677 2.154 2.892 5.103-3.6 5.924-7.086 11.905-10.772 17.745-2.183 3.487-2.183 6.718 0 10.262l10.772 17.745c1.871 3.09.34 5.131-2.892 5.131h-78.01z" fill="#ffc269" fill-rule="evenodd"/><path clip-rule="evenodd" d="m89.066 280.974h29.991c3.43 0 4.677 2.154 2.892 5.103-3.6 5.924-7.086 11.905-10.772 17.745-2.183 3.487-2.183 6.718 0 10.262l10.772 17.745c1.871 3.09.34 5.131-2.892 5.131h-29.991c3.203 0 4.762-2.041 2.863-5.131l-10.772-17.745c-2.154-3.543-2.183-6.775 0-10.262 3.685-5.839 7.2-11.82 10.772-17.745 1.814-2.949.567-5.103-2.863-5.103z" fill="#ffa95f" fill-rule="evenodd"/><path d="m48.558 449.099h-14.995c0-54.058 0-108.087 0-162.144 0-3.288 2.693-5.981 5.981-5.981h3.005c3.316 0 6.009 2.693 6.009 5.981z" fill="#365e7d"/></g></svg>