<svg height="512" viewBox="0 0 512 512" width="512" xmlns="http://www.w3.org/2000/svg"><g id="flat"><path d="m280 336.02v95.98h40v-87.98l8-16v-24h-32z" fill="#da922a"/><path d="m232 336.02v95.98h-40v-87.98l-8-16v-24h32z" fill="#da922a"/><path d="m384 280.019h-48l-16 24v24l-8 16v87.981h72z" fill="#f3af3e"/><path d="m128 280.019h48l16 24v24l8 16v87.981h-72z" fill="#f3af3e"/><circle cx="255.987" cy="112.005" fill="#fd9226" r="32"/><g fill="#f7ba61"><path d="m286.707 63.84a8 8 0 0 1 -6.8-12.2l8.411-13.627a8 8 0 1 1 13.616 8.4l-8.412 13.627a7.994 7.994 0 0 1 -6.815 3.8z"/><path d="m222.734 65.3a8 8 0 0 1 -7.049-4.208l-7.595-14.092a8 8 0 1 1 14.086-7.588l7.595 14.1a8 8 0 0 1 -7.037 11.8z"/><path d="m192.005 121.446c-.079 0-.159 0-.239 0l-16.008-.471a8 8 0 1 1 .471-15.992l16.007.471a8 8 0 0 1 -.231 16z"/><path d="m216.841 189.757a8 8 0 0 1 -6.8-12.2l8.411-13.627a8 8 0 1 1 13.615 8.4l-8.411 13.627a8 8 0 0 1 -6.815 3.8z"/><path d="m296.849 188.768a8 8 0 0 1 -7.05-4.208l-7.595-14.1a8 8 0 1 1 14.086-7.588l7.595 14.1a8 8 0 0 1 -7.036 11.8z"/><path d="m335.985 118.993c-.079 0-.159 0-.239 0l-16.008-.47a8 8 0 0 1 .232-16h.239l16.008.471a8 8 0 0 1 -.232 16z"/><path d="m304.177 91.444a8 8 0 0 1 -4.085-14.883l27.531-16.309a8 8 0 1 1 8.154 13.766l-27.531 16.308a7.96 7.96 0 0 1 -4.069 1.118z"/><path d="m255.359 63.987a8 8 0 0 1 -8-7.91l-.358-32a8 8 0 0 1 16-.18l.358 32a8 8 0 0 1 -7.909 8.089z"/><path d="m207.173 92.529a7.973 7.973 0 0 1 -3.916-1.028l-27.89-15.689a8 8 0 0 1 7.846-13.946l27.89 15.69a8 8 0 0 1 -3.93 14.973z"/><path d="m180.282 164.835a8 8 0 0 1 -4.085-14.884l27.532-16.309a8 8 0 0 1 8.154 13.765l-27.531 16.31a7.961 7.961 0 0 1 -4.07 1.118z"/><path d="m256.97 216a8 8 0 0 1 -8-7.91l-.359-32a8 8 0 0 1 7.912-8.09h.092a8 8 0 0 1 8 7.91l.359 32a8 8 0 0 1 -7.912 8.09z"/><path d="m332.677 163.13a7.972 7.972 0 0 1 -3.915-1.028l-27.89-15.69a8 8 0 1 1 7.846-13.945l27.889 15.689a8 8 0 0 1 -3.93 14.974z"/></g><path d="m136 280.02v151.98h-112v-47.98l16-40v-88l8-24h72z" fill="#fbb540"/><path d="m177 360.019-41-.019-56-31.981-40-.019v-32h40l56 32h56z" fill="#ea9d2d"/><path d="m232 384v16h-96a7.925 7.925 0 0 1 -2.97-.57l-38.57-15.43h-45.46a8 8 0 0 1 0-16h47a7.925 7.925 0 0 1 2.97.57l38.57 15.43z" fill="#ea9d2d"/><path d="m472 160h-1.371a24 24 0 0 0 -45.258 0h-1.371a16 16 0 0 0 -16 16 16 16 0 0 0 16 16h48a16 16 0 0 0 16-16 16 16 0 0 0 -16-16z" fill="#6cbae5"/><path d="m88 112h-1.371a24 24 0 0 0 -45.258 0h-1.371a16 16 0 0 0 -16 16 16 16 0 0 0 16 16h48a16 16 0 0 0 16-16 16 16 0 0 0 -16-16z" fill="#4799cf"/><path d="m104 352.02v72h-16v-69.58l-14.66-21.98a8.066 8.066 0 0 1 -1.34-4.44v-96h16v93.58l14.66 21.98a8.066 8.066 0 0 1 1.34 4.44z" fill="#ea9d2d"/><path d="m168 432v-71.981l24-32 8 16v87.981z" fill="#fbb540"/><path d="m40 344 16 32v48.019h-32v-40z" fill="#ffc961"/><path d="m376 280.02v151.98h112v-47.98l-16-40v-88l-8-24h-72z" fill="#fbb540"/><path d="m335 360.019 41-.019 56-31.981 40-.019v-32h-40l-56 32h-56z" fill="#ea9d2d"/><path d="m280 384v16h96a7.925 7.925 0 0 0 2.97-.57l38.57-15.43h45.46a8 8 0 0 0 0-16h-47a7.925 7.925 0 0 0 -2.97.57l-38.57 15.43z" fill="#ea9d2d"/><path d="m408 352.02v72h16v-69.58l14.66-21.98a8.066 8.066 0 0 0 1.34-4.44v-96h-16v93.58l-14.66 21.98a8.066 8.066 0 0 0 -1.34 4.44z" fill="#ea9d2d"/><path d="m344 432v-71.981l-24-32-8 16v87.981z" fill="#fbb540"/><path d="m472 344-16 32v48.019h32v-40z" fill="#ffc961"/><path d="m24 424.02h464v63.98h-464z" fill="#da922a"/><path d="m264 464h-16a8 8 0 0 1 0-16h16a8 8 0 0 1 0 16z" fill="#c38325"/><path d="m304 464h-8a8 8 0 0 1 0-16h8a8 8 0 0 1 0 16z" fill="#c38325"/><path d="m408 464h-8a8 8 0 0 1 0-16h8a8 8 0 0 1 0 16z" fill="#c38325"/><path d="m104 464h-16a8 8 0 0 1 0-16h16a8 8 0 0 1 0 16z" fill="#c38325"/><path d="m144 464h-8a8 8 0 0 1 0-16h8a8 8 0 0 1 0 16z" fill="#c38325"/><path d="m368 464h-32a8 8 0 0 1 0-16h32a8 8 0 0 1 0 16z" fill="#c38325"/><path d="m488 448v16h-48a8 8 0 0 1 0-16z" fill="#c38325"/><path d="m216 464h-40a8 8 0 0 1 0-16h40a8 8 0 0 1 0 16z" fill="#c38325"/><path d="m64 456a8 8 0 0 1 -8 8h-32v-16h32a8 8 0 0 1 8 8z" fill="#c38325"/></g></svg>