<svg height="512" viewBox="0 0 512 512" width="512" xmlns="http://www.w3.org/2000/svg"><path d="m120 297h-20a20 20 0 0 1 0-40h20v16h-20a4 4 0 0 0 0 8h20z" fill="#c94536"/><path d="m360 233h112v88h-112z" fill="#cdcdcd"/><path d="m408 265h16v16h-16z" fill="#eaeae8"/><path d="m360 305h112v8h-112z" fill="#b9b9b9"/><path d="m41.559 265a8 8 0 0 1 -7.778-9.906 61.747 61.747 0 0 1 25.782-36.75 8 8 0 0 1 8.875 13.312 45.792 45.792 0 0 0 -19.118 27.25 8 8 0 0 1 -7.761 6.094z" fill="#6a9876"/><path d="m39.867 273a8 8 0 0 1 -7.98-7.594 87.3 87.3 0 0 0 -14.543-43.968 8 8 0 1 1 13.312-8.875 103.272 103.272 0 0 1 17.207 52.031 8 8 0 0 1 -7.582 8.394c-.136.012-.281.012-.414.012z" fill="#83bd93"/><path d="m24 265h32v56h-32z" fill="#b6eaef"/><path d="m24 305h32v8h-32z" fill="#acdee3"/><path d="m112 257h40v64h-40z" fill="#f85542"/><path d="m112 305h40v8h-40z" fill="#c94536"/><path d="m240 281a38.628 38.628 0 0 1 -11.314 27.314l-4.686 4.686v8h64v-8l-4.686-4.686a38.628 38.628 0 0 1 -11.314-27.314v-16h-32z" fill="#b9b9b9"/><path d="m240 281a38.493 38.493 0 0 1 -3.591 16h39.182a38.493 38.493 0 0 1 -3.591-16z" fill="#a8a8a8"/><path d="m24 313v176h32v-144h400v144h32v-176z" fill="#a98e72"/><path d="m408 489h-48l8-24v-64h32v64z" fill="#9b8268"/><path d="m280 489h-48l8-24v-64h32v64z" fill="#9b8268"/><path d="m152 489h-48l8-24v-64h32v64z" fill="#9b8268"/><path d="m112 409h32v16h-32z" fill="#8e7760"/><path d="m240 409h32v16h-32z" fill="#8e7760"/><path d="m368 409h32v16h-32z" fill="#8e7760"/><g fill="#b9b9b9"><path d="m256 65a8 8 0 0 1 -8-8v-32a8 8 0 0 1 16 0v32a8 8 0 0 1 -8 8z"/><path d="m72 65a8 8 0 0 1 -8-8v-32a8 8 0 0 1 16 0v32a8 8 0 0 1 -8 8z"/><path d="m440 65a8 8 0 0 1 -8-8v-32a8 8 0 0 1 16 0v32a8 8 0 0 1 -8 8z"/></g><path d="m24 345h32v16h-32z" fill="#8e7760"/><path d="m456 345h32v16h-32z" fill="#8e7760"/><path d="m488 33h-464a8 8 0 0 1 0-16h464a8 8 0 0 1 0 16z" fill="#d9d9d9"/><path d="m240 57h32v40h-32z" fill="#ec9e15"/><path d="m184 185h144v96h-144z" fill="#cdcdcd"/><circle cx="256" cy="233" fill="#eaeae8" r="16"/><rect fill="#69b9e7" height="32" rx="16" width="80" x="344" y="377"/><rect fill="#69b9e7" height="32" rx="16" width="80" x="216" y="377"/><rect fill="#69b9e7" height="32" rx="16" width="80" x="88" y="377"/><path d="m256 153a16 16 0 0 1 -16-16v-24h32v24a16 16 0 0 1 -16 16z" fill="#fcd795"/><path d="m56 57h32v40h-32z" fill="#ec9e15"/><path d="m72 153a16 16 0 0 1 -16-16v-24h32v24a16 16 0 0 1 -16 16z" fill="#fcd795"/><path d="m424 57h32v40h-32z" fill="#ec9e15"/><path d="m440 153a16 16 0 0 1 -16-16v-24h32v24a16 16 0 0 1 -16 16z" fill="#fcd795"/><path d="m424 89-32 32h96l-32-32z" fill="#fdb62f"/><path d="m240 89-32 32h96l-32-32z" fill="#fdb62f"/><path d="m56 89-32 32h96l-32-32z" fill="#fdb62f"/></svg>