<?xml version="1.0" encoding="iso-8859-1"?>
<!-- Generator: Adobe Illustrator 19.0.0, SVG Export Plug-In . SVG Version: 6.00 Build 0)  -->
<svg version="1.1" id="Capa_1" xmlns="http://www.w3.org/2000/svg" xmlns:xlink="http://www.w3.org/1999/xlink" x="0px" y="0px"
	 viewBox="0 0 512 512" style="enable-background:new 0 0 512 512;" xml:space="preserve">
<rect x="383" y="286" style="fill:#A3A3A3;" width="30" height="88"/>
<rect x="398" y="286" style="fill:#8F8F8F;" width="15" height="88"/>
<rect x="241" y="287" style="fill:#A3A3A3;" width="30" height="128"/>
<rect x="256" y="287" style="fill:#8F8F8F;" width="15" height="128"/>
<rect x="99" y="286" style="fill:#A3A3A3;" width="30" height="68"/>
<rect x="114" y="286" style="fill:#8F8F8F;" width="15" height="68"/>
<path style="fill:#FF3D0C;" d="M448,241H348V88c0-27.57,22.43-50,50-50s50,22.43,50,50V241z"/>
<path style="fill:#C2080A;" d="M448,88c0-27.57-22.43-50-50-50v203h50V88z"/>
<path style="fill:#FFDA6B;" d="M164,241H64V122c0-27.57,22.43-50,50-50s50,22.43,50,50V241z"/>
<path style="fill:#FFCA2C;" d="M164,122c0-27.57-22.43-50-50-50v169h50V122z"/>
<path style="fill:#FFAA19;" d="M306,241H206v-66.432l1.72-3.274c3.056-5.819,3.056-12.769,0-18.588l-1.72-3.274V50
	c0-27.57,22.43-50,50-50s50,22.43,50,50v99.432l-1.72,3.274c-3.056,5.819-3.056,12.769,0,18.588l1.72,3.274V241z"/>
<path style="fill:#FF6A00;" d="M306,149.432V50c0-27.57-22.43-50-50-50v241h50v-66.432l-1.72-3.274
	c-3.056-5.819-3.056-12.769,0-18.588L306,149.432z"/>
<path style="fill:#606060;" d="M512,301H0v-90h512V301z"/>
<g>
	<path style="fill:#BFBFBF;" d="M301,512h-90v-82h15c8.271,0,15-6.729,15-15h30c0,8.271,6.729,15,15,15h15V512z"/>
	<path style="fill:#BFBFBF;" d="M414.213,462h-32.427L353,433.213V404c0-24.813,20.187-45,45-45s45,20.187,45,45v29.213L414.213,462
		z"/>
	<path style="fill:#BFBFBF;" d="M130.213,442H97.787L69,413.213V384c0-24.813,20.187-45,45-45s45,20.187,45,45v29.213L130.213,442z"
		/>
</g>
<rect x="256" y="211" style="fill:#404040;" width="256" height="90"/>
<g>
	<path style="fill:#A3A3A3;" d="M114,339v103h16.213L159,413.213V384C159,359.187,138.813,339,114,339z"/>
	<path style="fill:#A3A3A3;" d="M301,430h-15c-8.271,0-15-6.729-15-15h-15v97h45V430z"/>
	<path style="fill:#A3A3A3;" d="M398,359v103h16.213L443,433.213V404C443,379.187,422.813,359,398,359z"/>
</g>
<g>
</g>
<g>
</g>
<g>
</g>
<g>
</g>
<g>
</g>
<g>
</g>
<g>
</g>
<g>
</g>
<g>
</g>
<g>
</g>
<g>
</g>
<g>
</g>
<g>
</g>
<g>
</g>
<g>
</g>
</svg>
