<?xml version="1.0" encoding="iso-8859-1"?>
<!-- Generator: Adobe Illustrator 19.0.0, SVG Export Plug-In . SVG Version: 6.00 Build 0)  -->
<svg version="1.1" id="Capa_1" xmlns="http://www.w3.org/2000/svg" xmlns:xlink="http://www.w3.org/1999/xlink" x="0px" y="0px"
	 viewBox="0 0 511.999 511.999" style="enable-background:new 0 0 511.999 511.999;" xml:space="preserve">
<path style="fill:#C8C6CD;" d="M307.868,320.09L4.557,25.792C-1.39,20.02-1.536,10.514,4.235,4.581
	c5.771-5.962,15.264-6.094,21.211-0.322l303.31,294.299c5.947,5.771,6.094,15.278,0.322,21.211
	C323.303,325.715,313.819,325.862,307.868,320.09z"/>
<path style="fill:#E5E5E5;" d="M182.725,320.186c-5.771-5.933-5.625-15.439,0.322-21.211L486.553,4.259
	c5.947-5.771,15.425-5.64,21.211,0.322c5.771,5.933,5.625,15.439-0.322,21.211L203.935,320.509
	C197.984,326.28,188.5,326.134,182.725,320.186z"/>
<g>
	<path style="fill:#3C3A41;" d="M511.798,472.811c0,8.02-3.12,15.56-8.79,21.23c-11.71,11.68-30.72,11.68-42.42-0.02l-4.38-4.38
		l-21.26-21.25l-63.609-63.6l15.41-15.43c5.86-5.86,5.86-15.37,0-21.21c-5.86-5.86-15.35-5.86-21.21,0l-15.41,15.42l-17.81-17.8
		l46.54-38.35l124.149,124.179C508.678,457.271,511.798,464.801,511.798,472.811z"/>
	<path style="fill:#3C3A41;" d="M386.749,389.362l-15.41,15.43l-21.21-21.22l15.41-15.42c5.86-5.86,15.35-5.86,21.21,0
		C392.609,373.992,392.609,383.502,386.749,389.362z"/>
</g>
<path style="fill:#787780;" d="M456.208,489.641c-14.2,14.22-33.11,21.96-53.07,21.96c-19.7,0-38.79-7.75-53.01-21.97
	c-29.24-29.24-29.24-76.819,0-106.059l15.41-15.42c5.86-5.86,15.35-5.86,21.21,0c5.86,5.84,5.86,15.35,0,21.21l-15.41,15.43
	c-17.55,17.54-17.55,46.08,0,63.63c17.66,17.65,45.93,17.58,63.609-0.03L456.208,489.641z"/>
<path style="fill:#AEADB3;" d="M307.707,447.208c-40.942-40.942-40.942-107.548,0-148.49s107.548-40.913,148.49,0
	c5.856,5.856,5.856,15.355,0,21.211L328.917,447.208C323.057,453.068,313.566,453.068,307.707,447.208z"/>
<g>
	<path style="fill:#57555C;" d="M174.511,371.172l-12.83,12.83l-0.01-0.01l-17.76-17.77c-5.86-5.86-15.36-5.86-21.21,0
		c-5.86,5.86-5.86,15.36,0,21.22l17.76,17.76l0.01,0.01l-63.65,63.63l-21.21,21.21l-4.4,4.39c-11.7,11.7-30.72,11.7-42.42,0
		c-5.67-5.67-8.79-13.2-8.79-21.21s3.12-15.54,8.79-21.21l120.059-120.079L174.511,371.172z"/>
	<path style="fill:#57555C;" d="M161.681,384.002l-21.21,21.21l-0.01-0.01l-17.76-17.76c-5.86-5.86-5.86-15.36,0-21.22
		c5.85-5.86,15.35-5.86,21.21,0l17.76,17.77L161.681,384.002z"/>
</g>
<path style="fill:#8B8892;" d="M161.671,490.051c-14.61,14.62-33.82,21.93-53.02,21.93c-19.22,0-38.43-7.31-53.04-21.93l21.21-21.21
	c17.55,17.53,46.1,17.56,63.64,0c8.5-8.5,13.17-19.79,13.17-31.82s-4.67-23.31-13.16-31.81l-0.01-0.01l-17.76-17.76
	c-5.86-5.86-5.86-15.36,0-21.22c5.85-5.86,15.35-5.86,21.21,0l17.76,17.77l0.01,0.01
	C190.911,413.242,190.911,460.811,161.671,490.051z"/>
<path style="fill:#C8C6CD;" d="M182.886,447.627L55.607,320.348c-5.856-5.856-5.856-15.355,0-21.211
	c40.957-40.942,107.562-40.913,148.49,0c40.942,40.942,40.942,107.548,0,148.49C198.237,453.486,188.746,453.486,182.886,447.627z"
	/>
<g>
</g>
<g>
</g>
<g>
</g>
<g>
</g>
<g>
</g>
<g>
</g>
<g>
</g>
<g>
</g>
<g>
</g>
<g>
</g>
<g>
</g>
<g>
</g>
<g>
</g>
<g>
</g>
<g>
</g>
</svg>
