<svg id="Capa_1" enable-background="new 0 0 512 512" height="512" viewBox="0 0 512 512" width="512" xmlns="http://www.w3.org/2000/svg"><g><g><g><g><path d="m1 442.722h511v68.57h-511z" fill="#a4d7f5"/></g><g><path d="m1 487.568h511v23.724h-511z" fill="#6e91ef"/></g><g><path d="m126.538 266.831-30.538 56.961-76.412 42.5 11.412 26.499 101.412-51 32.587-56.499z" fill="#f0b582"/></g><g><path d="m126.538 266.831-19.017 35.472 36.311 19.688 21.167-36.699z" fill="#a4d7f5"/></g><g><path d="m160.824 174.055 106.136-39.801-10.96-27.925-106.445 39.916-13.555-33.453h-36.5l-21.027 22.5 48.065 131.539 92.752 48.461-37.291 62.498 26.001 15.001 58.5-97.999-74.119-42.858z" fill="#f7e0ba"/></g><g><g><path d="m144.538 252.292-48.065-131.54 7.439-7.96h-4.412l-21.027 22.5 48.065 131.539 92.752 48.461-37.291 62.498 26.001 15.001 48.14-80.644z" fill="#f0b582"/></g></g><g><path d="m160.824 174.055-36.099-1.518-20.726-57.744-25.526 20.499 41.754 114.268 61.031-25.076z" fill="#c7efbc"/></g><g><path d="m134.194 219.63-36.468-99.799-19.253 15.461 41.754 114.268 61.031-25.076-8.403-20.738z" fill="#7bdaa9"/></g><g><path d="m181.258 224.484-61.031 25.076 6.311 17.271 63.042 32.46 21.42-36.591-18.619-10.766z" fill="#d7fff6"/></g><g><path d="m144.809 251.537-3.837-10.501-20.745 8.524 6.311 17.271 63.042 32.46 11.111-18.98z" fill="#a4d7f5"/></g><g><path d="m143.832 68.96-15 14.498h-29.501l-15.165-14.498v-46.585l15.165-14.167h29.501l15 14.167z" fill="#f7e0ba"/></g><g><path d="m111.587 63.364-5.16-4.492v-50.664h-7.095l-15.166 14.167v46.585l15.166 14.498h29.5l15-14.498v-5.596z" fill="#f0b582"/></g><g><path d="m143.832 37.792h-59.666v-15.417l15.165-14.167h29.501l15 14.167z" fill="#c7efbc"/></g><g><path d="m126 8.208h-26.668l-15.166 14.167v15.417h22.261v-10.502z" fill="#7bdaa9"/></g><g><path d="m0 397.959h293.667v44.334h-292.667z" fill="#faef93"/></g><g><path d="m15.164 421.126-.523-23.167h-14.641l1 44.334h292.667v-21.167z" fill="#e8ab4c"/></g><g><path d="m451 480.067h30v15h-30z" fill="#fff"/></g><g><path d="m421 480.067h15v15h-15z" fill="#fff"/></g><g><path d="m31 480.067h375v15h-375z" fill="#fff"/></g><g><path d="m391.501 375.292h15v15h-15z" fill="#a4d7f5"/></g><g><path d="m481.501 300.292h15v15h-15z" fill="#a4d7f5"/></g><g><path d="m301.501 285.292h15v15h-15z" fill="#a4d7f5"/></g></g></g><g><path d="m131.863 90.958 19.469-18.816v-26.85h29.668v-15h-29.668v-11.15l-19.519-18.434h-35.439l-19.708 18.409v53.049l19.658 18.792zm-29.573-75.25h23.561l10.482 9.899v4.684h-44.667v-4.66zm-10.624 29.584h44.667v20.487l-10.533 10.179h-23.46l-10.674-10.204z"/><path d="m481.526 435.222-163.335-434.514h-18.785l-51.378 100.599-94.265 35.35-12.71-31.366h-44.81l-26.397 28.245 48.494 132.711-27.91 52.059-80.411 44.725 11.811 27.427h-21.83v15h286.167v29.763h-15.167v15h241v-15h-30.474zm-336.178-279.389 106.369-39.889 5.479 13.961-96.271 36.101.006-.451-30.903-.443-16.088-44.82h17.005zm-46.025-31.867 20.098 55.996 35.913.515 16.17 39.906-46.91 19.275-37.495-102.612zm93.016 251.132 37.458-62.778-29.982-15.665 13.889-23.727 42.458 24.55-50.814 85.125zm-5.835-85.398-53.919-28.171-2.839-7.771 47.391-19.472 9.26 22.853 14.321 8.28zm-45.519 22.216-23.327-12.648 11.984-22.354 24.23 12.66zm-39.415 17.36 9-16.788 22.918 12.426-6.452 11.186-92.296 46.415-5.583-12.964zm36.217 18.207 29.391-50.958 41.605 21.738-37.125 62.22 17.291 9.976h-136.618zm80.34 42.976 58.711-98.354-78.473-45.375-27.699-68.357 47.005-17.627-24.061 47.112 13.358 6.822 15.991-31.31 12.143 6.721 7.264-13.124-12.58-6.963 8.718-17.07 38.219-14.332-13.427-34.212 44.84-87.8 157.365 418.63h-164.334v-44.763h-83.04z"/><path d="m241 435.222h15v15h-15z"/><path d="m1 435.222h225v15h-225z"/><path d="m451 480.067h30v15h-30z"/><path d="m421 480.067h15v15h-15z"/><path d="m31 480.067h375v15h-375z"/><path d="m346.501 360.292h15v-15h15v-15h-15v-15h-15v15h-15v15h15z"/><path d="m466 240.292h15v-15h15v-15h-15v-15h-15v15h-15v15h15z"/></g></g></svg>