<svg height="512" viewBox="0 0 512 512" width="512" xmlns="http://www.w3.org/2000/svg"><g><g><path d="m272 184h128a0 0 0 0 1 0 0v100a60 60 0 0 1 -60 60h-68a0 0 0 0 1 0 0v-160a0 0 0 0 1 0 0z" fill="#acabb1"/><path d="m408 496h-304l-16-80h336z" fill="#ff9811"/><rect fill="#ffda44" height="32" rx="16" width="384" x="64" y="384"/><path d="m399 384h-303l28.01-33.61a39.981 39.981 0 0 1 30.72-14.39h13.27c0-24.3 39.4-40 88-40s88 15.7 88 40v.18a39.934 39.934 0 0 1 26.99 14.21z" fill="#a78966"/><path d="m352 128v96a16 16 0 0 1 -32 0v-96z" fill="#e0e0e2"/><path d="m312 16h48v112h-48z" fill="#5f4d37"/><g fill="#91cc04"><path d="m232 216c0 22.091-14.327 32-32 32s-32-9.909-32-32 32-48 32-48 32 25.909 32 48z"/><path d="m121.284 252.029c15.621 15.621 12.5 32.758 0 45.255s-29.634 15.621-45.255 0-11.313-56.568-11.313-56.568 40.947-4.308 56.568 11.313z"/></g></g><g><path d="m432 376h-29.25l-25.61-30.73c-.15-.18-.3-.34-.45-.52 20.78-15.99 31.31-32.36 31.31-48.75v-112a8 8 0 0 0 -8-8h-40v-40a8 8 0 0 0 8-8v-112a8 8 0 0 0 -8-8h-48a8 8 0 0 0 -8 8v112a8 8 0 0 0 8 8v40h-40a8 8 0 0 0 -8 8v104.15c-2.64-.09-5.31-.15-8-.15a193.458 193.458 0 0 0 -48 5.64v-38.26c19.69-3.1 32-17.87 32-39.38 0-25.18-31.39-51.32-34.97-54.22a8.006 8.006 0 0 0 -10.06 0c-3.58 2.9-34.97 29.04-34.97 54.22 0 21.51 12.31 36.28 32 39.38v43.58c-.48.2-.96.39-1.43.6-16.09 7.03-26.28 16.94-29.48 28.44h-1.09a63.84 63.84 0 0 0 -20.74-47.12 36.424 36.424 0 0 0 .56-4.65c.53-10.58-3.92-20.9-12.88-29.86-17.8-17.8-58.48-14.09-63.06-13.61a8 8 0 0 0 -7.12 7.12c-.48 4.58-4.19 45.26 13.61 63.06 8.48 8.48 18.18 12.92 28.17 12.92.56 0 1.13-.01 1.69-.04 9.53-.48 18.76-4.93 26.71-12.88a51.721 51.721 0 0 0 5.37-6.28 47.793 47.793 0 0 1 11.69 31.34 7.852 7.852 0 0 0 .1 1.19 47.827 47.827 0 0 0 -26.24 16.08l-25.61 30.73h-12.25a24 24 0 0 0 0 48h1.44l14.72 73.57a7.99 7.99 0 0 0 7.84 6.43h304a7.99 7.99 0 0 0 7.84-6.43l14.72-73.57h1.44a24 24 0 0 0 0-48zm-336-96a47.623 47.623 0 0 1 23.93 6.42 35.632 35.632 0 0 1 -4.3 5.21c-3.56 3.55-9.25 7.86-16.2 8.21-6.02.31-11.99-2.46-17.74-8.21-8.68-8.68-9.86-30.58-9.44-43.39 12.8-.42 34.67.74 43.38 9.45 4.06 4.06 6.62 8.22 7.67 12.44a63.659 63.659 0 0 0 -27.3-6.13 8 8 0 0 0 0 16zm224-256h32v96h-32zm24 112v88a7.989 7.989 0 0 1 -8 8 8.011 8.011 0 0 1 -8-8v-88zm-64 56h32v32a24 24 0 1 0 48 0v-32h32v104c0 11.52-9.9 24.99-27.99 38.26a47.677 47.677 0 0 0 -12.78-5c-2.79-12.03-13.13-22.41-29.8-29.7-11.45-5.01-25.69-8.49-41.43-10.25zm-104 24c0-12.27 14.66-28.59 24.01-37.35 9.35 8.75 23.99 25.04 23.99 37.35 0 15.36-8.13 21.1-16 23.07v-31.07a8 8 0 0 0 -16 0v31.07c-7.87-1.97-16-7.71-16-23.07zm-45.84 139.51a31.9 31.9 0 0 1 24.57-11.51h13.27a8 8 0 0 0 8-8c0-7.36 5.92-14.07 16-19.42v27.42h-8a8 8 0 0 0 0 16h32a8 8 0 0 0 0-16h-8v-33.77c13.29-3.93 29.85-6.23 48-6.23 44.86 0 80 14.06 80 32v.18a8.014 8.014 0 0 0 7.26 7.97 31.723 31.723 0 0 1 21.58 11.36l17.08 20.49h-268.84zm271.28 132.49h-290.88l-12.8-64h316.48zm30.56-80h-352a8 8 0 0 1 0-16h352a8 8 0 0 1 0 16z"/><path d="m120 448h80a8 8 0 0 0 0-16h-80a8 8 0 0 0 0 16z"/><path d="m224 448h8a8 8 0 0 0 0-16h-8a8 8 0 0 0 0 16z"/></g></g></svg>