<svg height="512" viewBox="0 0 512 512" width="512" xmlns="http://www.w3.org/2000/svg"><g id="Flat"><path d="m55.431 366.059h113.137v67.882h-113.137z" fill="#34507b" transform="matrix(.707 -.707 .707 .707 -250.039 196.353)"/><path d="m488 24v464h-64l-93.67-240.85-18.33-47.15-288-104v-72z" fill="#f35244"/><path d="m488 116.06v371.94h-64l-93.67-240.85c58.02-29.93 112.83-72.46 157.67-131.09z" fill="#e64c3f"/><path d="m464 488h-40l-93.67-240.85-18.33-47.15-288-104v-40l376 56 13.73 80.67z" fill="#ffb531"/><path d="m464 488h-40l-93.67-240.85a478.942 478.942 0 0 0 83.4-54.48z" fill="#fcac1f"/><path d="m312 208a8 8 0 0 1 -5.657-13.657l176-176a8 8 0 0 1 11.314 11.314l-176 176a7.974 7.974 0 0 1 -5.657 2.343z" fill="#de4132"/><g fill="#f98500"><path d="m48 112a8 8 0 0 1 -5.657-13.657l40-40a8 8 0 0 1 11.314 11.314l-40 40a7.974 7.974 0 0 1 -5.657 2.343z"/><path d="m136 144a8 8 0 0 1 -5.657-13.657l56-56a8 8 0 0 1 11.314 11.314l-56 56a7.974 7.974 0 0 1 -5.657 2.343z"/><path d="m224 176a8 8 0 0 1 -5.657-13.657l72-72a8 8 0 0 1 11.314 11.314l-72 72a7.974 7.974 0 0 1 -5.657 2.343z"/><path d="m344 296a8 8 0 0 1 -5.657-13.657l72-72a8 8 0 0 1 11.314 11.314l-72 72a7.974 7.974 0 0 1 -5.657 2.343z"/><path d="m376 384a8 8 0 0 1 -5.657-13.657l56-56a8 8 0 0 1 11.314 11.314l-56 56a7.974 7.974 0 0 1 -5.657 2.343z"/><path d="m416 464a8 8 0 0 1 -5.657-13.657l40-40a8 8 0 0 1 11.314 11.314l-40 40a7.974 7.974 0 0 1 -5.657 2.343z"/></g><path d="m79.029 375.029h33.941v33.941h-33.941z" fill="#bfbfbd" transform="matrix(.707 -.707 .707 .707 -249.068 182.696)"/><path d="m103.029 399.029h33.941v33.941h-33.941z" fill="#bfbfbd" transform="matrix(.707 -.707 .707 .707 -259.009 206.696)"/><path d="m48 416-19.029 19.029a16.972 16.972 0 0 0 -4.971 12 16.971 16.971 0 0 0 16.971 16.971 16.972 16.972 0 0 0 12-4.971l19.029-19.029z" fill="#bfbfbd"/><path d="m52.971 459.029 19.029-19.029 24 24-19.029 19.029a16.972 16.972 0 0 1 -12 4.971 16.971 16.971 0 0 1 -16.971-16.971 16.972 16.972 0 0 1 4.971-12z" fill="#b0b0ae"/><path d="m58.745 400h90.51v16h-90.51z" fill="#22334f" transform="matrix(.707 -.707 .707 .707 -258.048 193.055)"/><path d="m216 408-16-48 24-24 16 48z" fill="#f35244"/><path d="m104 296 48 16 24-24-48-16z" fill="#f35244"/><path d="m140.402 298.059h79.196v67.882h-79.196z" fill="#f35244" transform="matrix(.707 -.707 .707 .707 -182.039 224.52)"/><path d="m100 300a16.971 16.971 0 0 0 24 0l54.343-54.343a8 8 0 0 0 0-11.314l-12.686-12.686a8 8 0 0 0 -11.314 0l-54.343 54.343a16.971 16.971 0 0 0 0 24z" fill="#fec9a3"/><path d="m212 412a16.971 16.971 0 0 0 24 0l54.343-54.343a8 8 0 0 0 0-11.314l-12.686-12.686a8 8 0 0 0 -11.314 0l-54.343 54.343a16.971 16.971 0 0 0 0 24z" fill="#fec9a3"/><path d="m208 304a22.627 22.627 0 0 0 32 0l16-16-32-32-16 16a22.627 22.627 0 0 0 0 32z" fill="#fec9a3"/><path d="m216 248 48 48 8-8a33.941 33.941 0 0 0 0-48 33.941 33.941 0 0 0 -48 0z" fill="#f98500"/><path d="m291 406a8.006 8.006 0 0 1 -7.659-10.323l72.686-239.77-237.745 70.76a8 8 0 1 1 -4.564-15.334l252-75a8 8 0 0 1 9.938 9.988l-77 254a8 8 0 0 1 -7.656 5.679z" fill="#de4132"/><path d="m179.029 180.235h33.941v271.529h-33.941z" fill="#bfbfbd" transform="matrix(.707 -.707 .707 .707 -166.039 231.147)"/><path d="m304 400-24 24-87.18-87.18q14.625-9 28.8-19.2z" fill="#b0b0ae"/></g></svg>