<svg height="511pt" viewBox="-19 0 511 511.99938" width="511pt" xmlns="http://www.w3.org/2000/svg"><path d="m273.617188 178.578125-141.914063-49.082031c-2.25-.777344-4.382813-1.859375-6.34375-3.210938l-113.507813-78.375c-11.945312-8.25-14.941406-24.617187-6.695312-36.558594 8.25-11.945312 24.617188-14.941406 36.558594-6.695312l110.558594 76.339844 138.523437 47.90625c13.71875 4.742187 20.992187 19.707031 16.25 33.425781-4.738281 13.695313-19.6875 21-33.429687 16.25zm0 0" fill="#748488"/><path d="m316.878906 187.445312c-4.6875-13.734374 2.648438-28.671874 16.386719-33.359374l54.941406-18.75-78.679687-52.199219c-12.09375-8.027344-15.394532-24.335938-7.371094-36.429688s24.335938-15.394531 36.429688-7.371093l123.179687 81.726562c8.34375 5.535156 12.820313 15.335938 11.535156 25.265625-1.28125 9.933594-8.097656 18.269531-17.574219 21.503906l-105.488281 35.996094c-13.820312 4.71875-28.703125-2.730469-33.359375-16.382813zm0 0" fill="#55696e"/><g fill="#ba6746"><path d="m169.09375 220.09375 4.28125-24.4375-12.46875-17.679688c-1.828125-2.585937-4.203125-4.734374-6.960938-6.285156l-75.601562-42.535156c-10.25-5.765625-23.230469-2.132812-28.996094 8.117188-5.769531 10.25-2.132812 23.230468 8.117188 28.996093l71.410156 40.179688 10.4375 14.703125zm0 0"/><path d="m275.839844 364.148438-20.710938 18.613281 3.402344 19.101562-17.246094 84.585938c-2.6875 13.179687 7.386719 25.550781 20.882813 25.550781 9.910156 0 18.785156-6.957031 20.84375-17.042969l18.058593-88.570312c.535157-2.628907.570313-5.339844.097657-7.984375l-4.011719-22.550782zm0 0"/><path d="m268.886719 296.609375-40.851563-25.328125-25.292968 30.226562s.9375.609376 1.414062.90625l41.238281 25.679688zm0 0"/></g><path d="m340.683594 158.527344-40.851563-25.429688c-16.875-10.507812-39.070312-5.34375-49.578125 11.53125l-52.914062 85-23.964844-33.972656-34.0625 25.496094 43.265625 60.949218c5.449219 7.675782 12.304687 14.238282 20.175781 19.386719 4.851563-5.785156 12.234375-9.566406 19.796875-9.566406 14.265625 0 24.832031 11.660156 25.449219 25.449219.179688 3.980468-.851562 7.320312-2.605469 10.722656l9.734375 54.667969 42.023438-6.910157-10.976563-61.65625 66.042969-106.089843c10.503906-16.875 5.339844-39.070313-11.535156-49.578125zm0 0" fill="#ffda52"/><path d="m215.332031 329.757812c-22.035156-13.714843-51.015625-6.972656-64.730469 15.058594-13.71875 22.035156-6.976562 51.015625 15.054688 64.730469 22.035156 13.71875 51.015625 6.976563 64.730469-15.054687 13.71875-22.035157 6.976562-51.015626-15.054688-64.734376zm0 0" fill="#ba6746"/></svg>