<svg id="Flat" height="512" viewBox="0 0 512 512" width="512" xmlns="http://www.w3.org/2000/svg"><path d="m24 72h32v368h-32z" fill="#ad6643"/><path d="m232 72h32v368h-32z" fill="#ad6643"/><path d="m456 216h32v224h-32z" fill="#ad6643"/><g fill="#8c5237"><path d="m128 16h32v176h-32z" transform="matrix(0 1 -1 0 248 -40)"/><path d="m128 160h32v176h-32z" transform="matrix(0 1 -1 0 392 104)"/><path d="m128 304h32v176h-32z" transform="matrix(0 1 -1 0 536 248)"/><path d="m344 296h32v192h-32z" transform="matrix(0 1 -1 0 752 32)"/><path d="m344 152h32v192h-32z" transform="matrix(0 1 -1 0 608 -112)"/></g><path d="m56 296h32v80h-32z" fill="#b1bd70"/><path d="m88 296h32v80h-32z" fill="#8f9e46"/><path d="m120 296h32v80h-32z" fill="#828c52"/><path d="m168 152h32v80h-32z" fill="#e09f2c"/><path d="m56 152h32v80h-32z" fill="#f7b030"/><path d="m175.029 296.402h33.941v79.196h-33.941z" fill="#b1bd70" transform="matrix(.707 -.707 .707 .707 -181.352 234.177)"/><path d="m111.029 152.402h33.941v79.196h-33.941z" fill="#eba72e" transform="matrix(.707 -.707 .707 .707 -98.274 146.745)"/><path d="m376 136h16a0 0 0 0 1 0 0v16a16 16 0 0 1 -16 16h-16a0 0 0 0 1 0 0v-16a16 16 0 0 1 16-16z" fill="#b1bd70"/><path d="m352 168v-56a8 8 0 0 1 16 0v56z" fill="#8f9e46"/><path d="m360 120a16 16 0 0 1 -16-16v-16h32v16a16 16 0 0 1 -16 16z" fill="#eb423f"/><path d="m320 328h80v48h-80z" fill="#eba72e"/><path d="m304 296h112v32h-112z" fill="#f7b030"/><path d="m360 232a32 32 0 0 1 -32-32v-32h64v32a32 32 0 0 1 -32 32z" fill="#ad6643"/></svg>