<svg id="Capa_1" enable-background="new 0 0 512 512" height="512" viewBox="0 0 512 512" width="512" xmlns="http://www.w3.org/2000/svg"><g><g><path clip-rule="evenodd" d="m193.435 351.815h125.131v83.608h-125.131z" fill="#7e707d" fill-rule="evenodd"/></g><g><path clip-rule="evenodd" d="m318.565 422.106h-125.13-35.218c-14.163 0-25.756 11.564-25.756 25.728v21.084c0 2.541 2.103 4.643 4.672 4.643h237.705c2.57 0 4.672-2.103 4.672-4.643v-21.084c0-14.163-11.564-25.728-25.727-25.728z" fill="#eff6ff" fill-rule="evenodd"/></g><g><path clip-rule="evenodd" d="m379.51 447.834c0-14.163-11.564-25.728-25.727-25.728h-27.917c14.163 0 25.727 11.564 25.727 25.728v21.084c0 2.541-2.103 4.643-4.643 4.643h27.888c2.57 0 4.672-2.103 4.672-4.643z" fill="#d9eeff" fill-rule="evenodd"/></g><g><path clip-rule="evenodd" d="m318.565 365.16h-125.13v23.129l93.593.029c2.657 0 3.621 1.343 3.621 3.855v29.933h27.917v-56.946z" fill="#6a5c6b" fill-rule="evenodd"/></g><g><path clip-rule="evenodd" d="m5.052 365.16h188.383 125.131 188.353c2.803 0 5.081-2.278 5.081-5.052v-316.617c0-2.774-2.278-5.052-5.081-5.052h-501.867c-2.774 0-5.052 2.277-5.052 5.052v316.617c0 2.774 2.278 5.052 5.052 5.052z" fill="#eff6ff" fill-rule="evenodd"/></g><g><path clip-rule="evenodd" d="m471.818 78.622h-431.636v246.355h431.636z" fill="#9fd4fe" fill-rule="evenodd"/></g><g><path clip-rule="evenodd" d="m407.486 235.821 19.974 89.156h44.358v-246.355h-137.221c9.169 15.974 17.434 33.525 24.647 52.419 16.412 2.687 31.451 11.594 41.73 25.027 7.855-1.46 15.857 3.037 18.543 10.805 2.395 7.009-.234 14.601-5.986 18.719l4.088 38.139c.701 6.541-3.183 9.695-10.133 12.09z" fill="#85beef" fill-rule="evenodd"/></g><g><path clip-rule="evenodd" d="m471.818 78.622v246.355h-44.358l2.833 12.703 3.212 14.339 2.949 13.141h70.465c2.803 0 5.081-2.278 5.081-5.052v-316.617c0-2.774-2.278-5.052-5.081-5.052h-200.034c9.929 11.886 19.215 25.348 27.713 40.183z" fill="#d9eeff" fill-rule="evenodd"/></g><g><path clip-rule="evenodd" d="m362.452 231.962-35.71 31.602 28.91 61.209 21.96 46.432 33.466 7.043 22.427-26.229-3.212-14.339-22.807-101.859z" fill="#ccf49f" fill-rule="evenodd"/></g><g><path clip-rule="evenodd" d="m433.505 352.019-55.893 19.186 9.403 19.916c6.366 13.492 20.354 21.698 34.458 16.85 12.002-4.118 18.135-15.682 17.667-28.006-.058-2.132-.35-4.293-.818-6.454z" fill="#7e707d" fill-rule="evenodd"/></g><g><path clip-rule="evenodd" d="m388.65 242.275 18.515 82.702 4.292 19.157 3.212 14.368 18.836-6.483-3.212-14.339-2.833-12.703-19.945-89.156z" fill="#b3e59f" fill-rule="evenodd"/></g><g><path clip-rule="evenodd" d="m420.305 386.449c.35 8.848-2.716 17.288-8.907 22.866 3.271.234 6.658-.175 10.075-1.343 12.002-4.118 18.135-15.682 17.667-28.006-.058-2.132-.35-4.293-.818-6.454l-1.869-8.352-2.949-13.141-18.835 6.483 1.489 6.658 3.3 14.835c.497 2.132.76 4.322.847 6.454z" fill="#6a5c6b" fill-rule="evenodd"/></g><g><path clip-rule="evenodd" d="m311.323 260.234c3.446 5.607 8.469 5.695 15.419 3.329l40.386-13.871 21.522-7.418 18.865-6.454c6.921-2.395 10.805-5.549 10.104-12.09l-4.088-38.139-67.561 5.163-54.854 36.86z" fill="#7e707d" fill-rule="evenodd"/></g><g><path clip-rule="evenodd" d="m327.297 133.757c-27.479 9.433-44.679 35.277-44.387 62.845.701-.35 70.739-4.627 71.498-4.89 0 0 45.778-35.498 46.566-35.644-16.733-21.932-46.198-31.744-73.677-22.311z" fill="#7e707d" fill-rule="evenodd"/></g><g><path clip-rule="evenodd" d="m398.638 156.681-113.538 38.986c-.759.263-1.489.584-2.19.934-7.125 3.68-10.688 12.178-8.001 19.946 2.395 7.009 9.14 11.36 16.207 11.068 1.548-.058 3.125-.321 4.672-.876l113.538-38.986c1.518-.526 2.949-1.256 4.205-2.161 5.753-4.118 8.381-11.71 5.986-18.719-2.687-7.768-10.688-12.265-18.543-10.805-.789.146-1.577.35-2.336.613z" fill="#eff6ff" fill-rule="evenodd"/></g><g><path clip-rule="evenodd" d="m382.109 162.551c7.885-1.489 15.886 3.037 18.573 10.805 2.395 7.009-.263 14.572-5.986 18.69.029.234.088.467.146.701l14.484-4.994c1.518-.526 2.949-1.256 4.205-2.161 5.753-4.118 8.381-11.71 5.986-18.719-2.687-7.768-10.688-12.265-18.543-10.805-.788.146-1.577.35-2.336.613l-16.645 5.724c.058.029.087.087.116.146z" fill="#d9eeff" fill-rule="evenodd"/></g><g><path clip-rule="evenodd" d="m318.127 137.699c24.442-4.439 49.089 5.403 63.865 24.706l16.645-5.724c.759-.263 1.548-.467 2.336-.613-16.733-21.931-46.198-31.744-73.677-22.311-3.182 1.08-6.248 2.424-9.169 3.942z" fill="#6a5c6b" fill-rule="evenodd"/></g><g><path clip-rule="evenodd" d="m387.628 195.2 4.088 38.139c.467 4.351-1.11 7.213-4.263 9.345l1.197-.409 18.865-6.454c6.921-2.395 10.805-5.549 10.104-12.09l-4.088-38.139c-1.256.905-2.687 1.635-4.205 2.161l-14.484 4.994z" fill="#6a5c6b" fill-rule="evenodd"/></g><path d="m233.191 121.23c-3.394-2.608-7.851-3.435-12.219-2.271l-85.415 22.72c-7.835 2.079-13.742 9.882-13.742 18.155v77.101c-5.216-2.966-11.412-4.695-18.059-4.695-18.462 0-33.482 13.305-33.482 29.658 0 16.369 15.02 29.686 33.482 29.686 18.479 0 33.512-13.317 33.512-29.686 0-.45-.016-.896-.038-1.341.025-.251.038-.505.038-.762v-65.124c.753-.084 1.509-.218 2.264-.418l83.673-22.284v26.567c-5.216-2.969-11.411-4.699-18.058-4.699-18.479 0-33.512 13.318-33.512 29.687 0 16.353 15.033 29.658 33.512 29.658 18.478 0 33.511-13.305 33.511-29.658v-90.675c-.002-4.715-1.994-8.951-5.467-11.619z" fill="#fe8d94"/></g></svg>