<?xml version="1.0" encoding="UTF-8"?>
<svg xmlns="http://www.w3.org/2000/svg" xmlns:xlink="http://www.w3.org/1999/xlink" width="512" height="512" viewBox="0 0 59 54" version="1.1"><!-- Generator: Sketch 51.3 (57544) - http://www.bohemiancoding.com/sketch --><title>026 - Go Karting</title><desc>Created with Sketch.</desc><defs/><g id="Page-1" stroke="none" stroke-width="1" fill="none" fill-rule="evenodd"><g id="026---Go-Karting" fill-rule="nonzero"><path d="M16,26 L16,27.89 L13.219,28.69 C13.139,28.61 12.6,24.968 12.5,24.908 L16,26 Z" id="Shape" fill="#BDC3C7"/><path d="M16,33.37 L17.65,34.91 C18.0376921,35.2765784 18.5568653,35.4712684 19.09,35.45 L20.75,35.39 L30.47,37.53 C31.1701983,37.6880559 31.8156585,38.0297701 32.34,38.52 L33.96,40.03 C32.26,41.16 30.75,42.03 29.89,42.51 C29.6041159,42.3218391 29.3068834,42.1515149 29,42 C26.5164809,40.9061896 23.7821693,40.5086601 21.09,40.85 L21.08,40.85 C16.16,38.31 13.88,37.375 13.88,37.375 C11.875,34.375 10,34 10,34 L10,26 L12.969,24.219" id="Shape" fill="#BDC3C7"/><path d="M36.34,37.34 C36.0493772,37.3401469 35.7730673,37.2138546 35.583,36.994 L29.923,30.444 C29.6893483,30.17355 29.6177286,29.7989921 29.7351193,29.4614187 C29.8525101,29.1238454 30.1410769,28.874542 30.4921194,28.8074187 C30.8431618,28.7402954 31.2033483,28.8655499 31.437,29.136 L37.097,35.686 C37.3529675,35.9820824 37.4126766,36.4002778 37.2497958,36.7561626 C37.0869151,37.1120474 36.7313874,37.3401979 36.34,37.34 Z" id="Shape" fill="#95A5A5"/><path d="M28.709,33.14 C28.320682,33.1397265 27.967632,32.9146741 27.8034649,32.5627649 C27.6392978,32.2108557 27.6936997,31.7957252 27.943,31.498 L32.231,26.36 C32.5844622,25.935293 33.215293,25.8775378 33.64,26.231 C34.064707,26.5844622 34.1224622,27.215293 33.769,27.64 L29.477,32.783 C29.2865167,33.0098827 29.0052419,33.1406316 28.709,33.14 Z" id="Shape" fill="#2C2F38"/><path d="M44.167,44.208 C44.167,44.208 46.75,40.083 40.75,38.083 C37.8,37.103 38.06,34.52 36.81,34.26 C36.2151712,34.12195 35.6096363,34.0349671 35,34 C33.8360367,32.0217925 34.2573729,29.4937758 36,28 C36,28 47,32 52,36 C57,40 58,42 58,42 L44.167,44.208 Z" id="Shape" fill="#E64C3C"/><path d="M21.08,40.85 L21.06,40.85 C20.1898348,40.9451125 19.3153346,40.9951793 18.44,41 L9.34,41 C8.57,39.74 10.34,37.43 10.056,35 C10.0174267,34.6680801 9.99872668,34.3341513 10,34 C10,34 12,31 14,34 C15.6501241,36.9182499 18.1088648,39.2971163 21.08,40.85 Z" id="Shape" fill="#2C2F38"/><path d="M17.14,25.13 C17.0773222,25.6285375 16.6524585,26.0019026 16.15,26 L13.93,26 C13.262535,25.5604391 12.397465,25.5604391 11.73,26 L9.41,26 C9.14785326,25.9979397 8.89679996,25.8939319 8.71,25.71 L7.2,24.2 C7.06684741,24.0684249 6.97329945,23.9021175 6.93,23.72 C6.65,22.4 5.85,17 12,17 C13.4228435,16.9094442 14.8132113,17.4509558 15.8,18.48 L12.81,19.67 C12.3195267,19.8716557 11.9995203,20.3496899 12,20.88 C11.9995601,21.5235745 12.4728427,22.0693418 13.11,22.16 L17.25,22.75 C17.2815912,23.5450197 17.2447891,24.3412836 17.14,25.13 Z" id="Shape" fill="#E6E7E8"/><path d="M17.25,22.75 L13.11,22.16 C12.4728427,22.0693418 11.9995601,21.5235745 12,20.88 C11.9995203,20.3496899 12.3195267,19.8716557 12.81,19.67 L15.8,18.48 C16.7543088,19.697319 17.2657028,21.203286 17.25,22.75 Z" id="Shape" fill="#35495E"/><path d="M29,33.1 C29.0188936,33.6305212 28.8260956,34.1467891 28.4640824,34.5350624 C28.1020692,34.9233356 27.6005439,35.1517563 27.07,35.17 L23.5,35.29 L22.46,35.33 L22.44,35.33 L20.75,35.39 L19.09,35.45 C18.5568653,35.4712684 18.0376921,35.2765784 17.65,34.91 L16,33.37 L11.46,29.14 C10.6528758,28.3852323 10.6081628,27.1198547 11.36,26.31 C11.4714437,26.1932525 11.5955417,26.0892785 11.73,26 C12.397465,25.5604391 13.262535,25.5604391 13.93,26 C14.0282452,26.058701 14.1189218,26.1292273 14.2,26.21 L16,27.89 L19.17,30.85 C19.5576921,31.2165784 20.0768653,31.4112684 20.61,31.39 L26.94,31.17 L27.01,31.17 C27.7083541,31.1698606 28.3548087,31.53872 28.71,32.14 C28.8924556,32.4275424 28.9927443,32.7595326 29,33.1 Z" id="Shape" fill="#ECF0F1"/><path d="M12.33,41 L5,41 L5,36 C5,35.4477153 5.44771525,35 6,35 L10.06,35 C10.3959516,37.1348375 11.1687249,39.1774099 12.33,41 Z" id="Shape" fill="#5E5F62"/><path d="M36,20 L24,20 C23.4477153,20 23,19.5522847 23,19 C23,18.4477153 23.4477153,18 24,18 L36,18 C36.5522847,18 37,18.4477153 37,19 C37,19.5522847 36.5522847,20 36,20 Z" id="Shape" fill="#95A5A5"/><path d="M20,2 L2,2 C1.44771525,2 1,1.55228475 1,1 C1,0.44771525 1.44771525,0 2,0 L20,0 C20.5522847,0 21,0.44771525 21,1 C21,1.55228475 20.5522847,2 20,2 Z" id="Shape" fill="#95A5A5"/><path d="M20,12 L6,12 C5.44771525,12 5,11.5522847 5,11 C5,10.4477153 5.44771525,10 6,10 L20,10 C20.5522847,10 21,10.4477153 21,11 C21,11.5522847 20.5522847,12 20,12 Z" id="Shape" fill="#95A5A5"/><path d="M31,8 L26,8 C25.4477153,8 25,7.55228475 25,7 C25,6.44771525 25.4477153,6 26,6 L31,6 C31.5522847,6 32,6.44771525 32,7 C32,7.55228475 31.5522847,8 31,8 Z" id="Shape" fill="#95A5A5"/><path d="M21,54 L4,54 C3.44771525,54 3,53.5522847 3,53 C3,52.4477153 3.44771525,52 4,52 L21,52 C21.5522847,52 22,52.4477153 22,53 C22,53.5522847 21.5522847,54 21,54 Z" id="Shape" fill="#95A5A5"/><path d="M3,20 L1,20 C0.44771525,20 6.76353751e-17,19.5522847 0,19 C-6.76353751e-17,18.4477153 0.44771525,18 1,18 L3,18 C3.55228475,18 4,18.4477153 4,19 C4,19.5522847 3.55228475,20 3,20 Z" id="Shape" fill="#95A5A5"/><path d="M5,41 L18.44,41 C19.3153346,40.9951793 20.1898348,40.9451125 21.06,40.85 L21.09,40.85 C23.7821693,40.5086601 26.5164809,40.9061896 29,42 C29.3068834,42.1515149 29.6041159,42.3218391 29.89,42.51 C33,44.46 33,47 33,47 L8.46,47 L8.52,46.9 L5,41 Z" id="Shape" fill="#E64C3C"/><path d="M34.54,47 L33,47 C33,47 33,44.46 29.89,42.51 C30.75,42.03 32.26,41.16 33.96,40.03 C33.97,40.02 33.99,40.01 34,40 C35.170656,39.0790044 35.9953503,37.789098 36.34,36.34 C36.5450251,35.6584871 36.7020759,34.9634539 36.81,34.26 C38.904705,34.7219683 40.9713874,35.3029097 43,36 C49,38 47,42 47,42 L58,42 C58.5522847,42 59,42.4477153 59,43 L59,46 C59,46.5522847 58.5522847,47 58,47 L34.54,47 Z" id="Shape" fill="#C03A2B"/><path d="M42,45 C42,47.209139 40.209139,49 38,49 C35.790861,49 34,47.209139 34,45 C34,42.790861 35.790861,41 38,41 C39.0617621,40.997068 40.0808821,41.4175538 40.8316642,42.1683358 C41.5824462,42.9191179 42.002932,43.9382379 42,45 Z" id="Shape" fill="#2C2F38"/><circle id="Oval" fill="#A5A5A4" cx="38" cy="45" r="1"/><path d="M9,45 C8.99893554,45.6632013 8.83405108,46.315869 8.52,46.9 L8.46,47 C7.45379451,48.7329675 5.31920181,49.4520505 3.46951542,48.6811509 C1.61982903,47.9102512 0.627731001,45.8880475 1.15008,43.9534216 C1.672429,42.0187957 3.54750038,40.7707277 5.5338272,41.0355517 C7.52015403,41.3003756 9.00274896,42.9960992 9,45 Z" id="Shape" fill="#2C2F38"/><circle id="Oval" fill="#A5A5A4" cx="5" cy="45" r="1"/></g></g></svg>
