<svg id="Capa_1" enable-background="new 0 0 512 512" height="512" viewBox="0 0 512 512" width="512" xmlns="http://www.w3.org/2000/svg"><g><g><path d="m138.68 475.34c-60.77 32.84-111.74 46.63-130.2 28.18-18.35-18.35-4.72-69.29 28.16-130.22z" fill="#fed843"/><path d="m138.68 475.34c-60.77 32.84-111.74 46.63-130.2 28.18l79.19-79.19z" fill="#fabe2c"/><path d="m475.35 138.72-51.03-51.04-51-51.01c60.77-32.85 111.74-46.64 130.2-28.19 18.35 18.35 4.72 69.3-28.17 130.24z" fill="#fed843"/><path d="m475.35 138.72-51.03-51.04 79.2-79.2c18.35 18.35 4.72 69.3-28.17 130.24z" fill="#fabe2c"/><path d="m475.35 138.72c-33.14 61.4-85.84 132.95-145.11 191.52-58.11 58.8-129.88 111.76-191.56 145.1-19.57-13.12-38.37-28.48-55.95-46.07-17.6-17.59-32.97-36.4-46.09-55.97 33.14-61.41 85.85-132.96 145.12-191.54 58.11-58.8 129.88-111.76 191.56-145.09 19.57 13.11 38.37 28.47 55.95 46.06 17.6 17.59 32.96 36.41 46.08 55.99z" fill="#fabe2c"/><path d="m475.35 138.72c-33.14 61.4-85.84 132.95-145.11 191.52-58.11 58.8-129.88 111.76-191.56 145.1-19.57-13.12-38.37-28.48-55.95-46.07l346.54-346.54c17.6 17.59 32.96 36.41 46.08 55.99z" fill="#ff9100"/></g><g><path d="m376.24 135.76c-19.857-19.857-53.342-10.297-74.25 10.61-20.81 20.81-30.58 54.27-10.6 74.24 19.54 19.55 52.84 10.8 74.24-10.6 20.82-20.82 30.58-54.28 10.61-74.25z" fill="#61729b"/></g><path d="m365.63 210.01c-21.4 21.4-54.7 30.15-74.24 10.6l84.85-84.85c19.97 19.97 10.21 53.43-10.61 74.25z" fill="#47568c"/><g><path d="m220.61 291.39c-19.852-19.854-53.306-10.334-74.24 10.6-20.82 20.82-30.58 54.28-10.61 74.25 19.55 19.54 52.83 10.81 74.25-10.61 23.79-23.79 28.45-56.4 10.6-74.24z" fill="#61729b"/></g><path d="m210.01 365.63c-21.42 21.42-54.7 30.15-74.25 10.61l84.85-84.85c17.85 17.84 13.19 50.45-10.6 74.24z" fill="#47568c"/><g><g><path d="m401.54 401.54c-5.86 5.86-15.36 5.86-21.21 0l-269.87-269.87c-5.86-5.86-5.86-15.35 0-21.21s15.36-5.86 21.21 0l269.87 269.87c5.86 5.86 5.86 15.35 0 21.21z" fill="#61729b"/></g></g><path d="m401.54 401.54c-5.86 5.86-15.36 5.86-21.21 0l-134.93-134.93 21.21-21.21 134.93 134.93c5.86 5.86 5.86 15.35 0 21.21z" fill="#47568c"/><g><g><path d="m121.066 136.066h-42.426c-3.979 0-7.794-1.581-10.606-4.394l-63.64-63.64c-5.854-5.853-5.858-15.356 0-21.213l42.426-42.426c5.858-5.858 15.356-5.857 21.213 0l63.64 63.64c2.813 2.813 4.394 6.628 4.394 10.606v42.426c-.001 8.285-6.717 15.001-15.001 15.001z" fill="#61729b"/></g></g><g><path d="m443.967 507.606-63.64-63.64c-2.813-2.813-4.394-6.628-4.394-10.606v-42.426c0-8.284 6.716-15 15-15h42.427c3.979 0 7.794 1.581 10.606 4.394l63.64 63.64c5.854 5.853 5.858 15.356 0 21.213l-42.427 42.426c-5.857 5.857-15.355 5.858-21.212-.001z" fill="#47568c"/></g></g></svg>