<svg height="487pt" viewBox="0 -2 487.99867 487" width="487pt" xmlns="http://www.w3.org/2000/svg"><path d="m263.847656 130.796875h31.167969v-88.167969h-31.167969c-1.53125 0-2.769531 1.238282-2.769531 2.769532v82.625c-.003906 1.53125 1.238281 2.773437 2.769531 2.773437zm0 0" fill="#a4c9ff"/><path d="m239.074219 89.800781h-235.070313v-27.585937h235.070313zm0 0" fill="#6bdddd"/><path d="m248.929688 314.710938h235.070312v27.585937h-235.070312zm0 0" fill="#f9a7a7"/><path d="m192.988281 359.976562h-173.0625c-3.058593 0-5.539062-2.480468-5.539062-5.542968v-59.3125h178.601562zm0 0" fill="#6bdddd"/><path d="m30.546875 359.976562h162.441406v23.316407h-162.441406zm0 0" fill="#f9a7a7"/><path d="m224.15625 383.292969h-31.167969v-88.171875h31.167969c1.527344 0 2.769531 1.242187 2.769531 2.769531v82.628906c0 1.53125-1.242187 2.773438-2.769531 2.773438zm0 0" fill="#a4c9ff"/><path d="m246.160156 353.160156h-19.234375v-49.316406h19.234375c1.527344 0 2.769532 1.242188 2.769532 2.773438v43.773437c0 1.527344-1.242188 2.769531-2.769532 2.769531zm0 0" fill="#e0ebfc"/><path d="m39.21875 383.292969h-15.410156c-1.328125 0-2.46875.9375-2.722656 2.238281l-16.984376 87.195312c-.664062 3.417969 1.957032 6.597657 5.441407 6.597657h58.449219c2.664062 0 4.949218-1.894531 5.445312-4.507813l17.347656-91.523437zm0 0" fill="#6bdddd"/><path d="m149.363281 383.292969-16.703125 24.933593c-1.4375 2.144532-3.851562 3.433594-6.433594 3.433594h-40.796874l-2.933594 15.476563h60.5c2.746094 0 5.285156-1.453125 6.675781-3.816407l23.539063-40.027343zm0 0" fill="#f9a7a7"/><path d="m114.207031 397.003906-13.714843-13.710937h-9.707032l-2.203125 11.625 10 10.003906c4.316407 4.3125 11.308594 4.3125 15.625 0 2.183594-2.1875 2.183594-5.734375 0-7.917969zm0 0" fill="#e0ebfc"/><path d="m295.015625 107.480469h173.0625c3.058594 0 5.539063-2.480469 5.539063-5.539063v-59.3125h-178.601563zm0 0" fill="#4671c6"/><path d="m457.457031 130.796875h-162.441406v-23.316406h162.441406zm0 0" fill="#6bdddd"/><path d="m295.015625 134.796875h-31.167969c-3.734375 0-6.773437-3.039063-6.773437-6.773437v-82.625c0-3.734376 3.039062-6.769532 6.773437-6.769532h31.167969c2.207031 0 4 1.789063 4 4v88.167969c0 2.207031-1.792969 4-4 4zm-29.941406-8h25.941406v-80.167969h-25.941406zm0 0" fill="#3762cc"/><path d="m241.84375 100.664062h19.230469v-49.3125h-19.230469c-1.53125 0-2.769531 1.238282-2.769531 2.769532v43.773437c0 1.53125 1.242187 2.769531 2.769531 2.769531zm0 0" fill="#e0ebfc"/><path d="m448.785156 130.796875h15.410156c1.324219 0 2.464844.9375 2.71875 2.238281l16.984376 87.195313c.667968 3.417969-1.953126 6.597656-5.4375 6.597656h-58.453126c-2.660156 0-4.945312-1.894531-5.441406-4.507813l-17.347656-91.523437zm0 0" fill="#4671c6"/><path d="m338.640625 130.796875 16.703125 24.933594c1.4375 2.144531 3.847656 3.433593 6.429688 3.433593h40.796874l2.933594 15.476563h-60.5c-2.742187 0-5.28125-1.453125-6.671875-3.816406l-23.539062-40.027344zm0 0" fill="#6bdddd"/><path d="m373.796875 144.507812 13.710937-13.710937h9.710938l2.203125 11.628906-10.003906 10c-4.3125 4.316407-11.304688 4.316407-15.621094 0-2.183594-2.1875-2.183594-5.730469 0-7.917969zm0 0" fill="#a4c9ff"/><path d="m121.9375 295.121094v-25.738282h-70.136719c-2.785156 0-5.46875 1.046876-7.515625 2.9375l-24.695312 22.800782zm0 0" fill="#6bdddd"/><path d="m14.386719 299.925781-.023438.023438h.023438zm0 0" fill="#6bdddd"/><path d="m192.988281 295.121094h20.367188v-9.011719c0-.90625-.445313-1.753906-1.1875-2.273437l-36.457031-25.40625c-1.339844-.9375-2.9375-1.4375-4.574219-1.4375h-46.425781c-1.53125 0-2.773438 1.242187-2.773438 2.769531v35.359375zm0 0" fill="#e0ebfc"/><path d="m295.015625 42.628906h71.050781v-35.359375c0-1.53125-1.242187-2.769531-2.769531-2.769531h-46.429687c-1.636719 0-3.230469.5-4.574219 1.433594l-36.457031 25.410156c-.746094.519531-1.1875 1.367188-1.1875 2.273438v9.011718zm0 0" fill="#e0ebfc"/><path d="m473.617188 47.453125h.023437l-.023437-.019531zm0 0" fill="#4671c6"/><path d="m468.414062 42.628906-24.695312-22.804687c-2.046875-1.890625-4.730469-2.9375-7.515625-2.9375h-70.140625v25.738281h102.351562zm0 0" fill="#4671c6"/><g fill="#3762cc"><path d="m192.988281 363.976562h-173.0625c-5.261719 0-9.542969-4.28125-9.542969-9.542968v-59.3125c0-2.207032 1.792969-4 4-4h178.605469c2.207031 0 4 1.792968 4 4v64.855468c0 2.207032-1.789062 4-4 4zm-174.605469-64.855468v55.3125c0 .851562.691407 1.542968 1.542969 1.542968h169.0625v-56.855468zm0 0"/><path d="m192.988281 387.292969h-162.445312c-2.207031 0-4-1.792969-4-4v-23.316407c0-2.210937 1.792969-4 4-4h162.445312c2.207031 0 4 1.789063 4 4v23.316407c0 2.207031-1.789062 4-4 4zm-158.445312-8h154.445312v-15.316407h-154.445312zm0 0"/><path d="m224.15625 387.292969h-31.167969c-2.207031 0-4-1.792969-4-4v-88.171875c0-2.207032 1.792969-4 4-4h31.167969c3.734375 0 6.769531 3.039062 6.769531 6.769531v82.628906c0 3.734375-3.035156 6.773438-6.769531 6.773438zm-27.167969-8h25.9375v-80.171875h-25.9375zm0 0"/><path d="m246.15625 357.160156h-19.230469c-2.207031 0-4-1.792968-4-4v-49.316406c0-2.207031 1.792969-4 4-4h19.230469c3.734375 0 6.773438 3.039062 6.773438 6.773438v43.773437c0 3.734375-3.039063 6.769531-6.773438 6.769531zm-15.230469-8h14.003907v-41.316406h-14.003907zm0 0"/><path d="m67.996094 483.324219h-58.453125c-2.863281 0-5.542969-1.265625-7.363281-3.476563-1.820313-2.207031-2.546876-5.082031-2.003907-7.886718l16.984375-87.195313c.613282-3.171875 3.410156-5.476563 6.644532-5.476563h66.976562c1.191406 0 2.320312.53125 3.082031 1.449219.757813.917969 1.070313 2.125.847657 3.296875l-17.34375 91.523438c-.851563 4.5-4.792969 7.765625-9.371094 7.765625zm-43.175782-96.03125-16.789062 86.195312c-.125.625.148438 1.066407.320312 1.273438.171876.210937.558594.5625 1.191407.5625h58.453125c.738281 0 1.375-.527344 1.511718-1.253907l16.449219-86.78125h-61.136719zm0 0"/><path d="m142.996094 431.136719h-60.5c-1.191406 0-2.320313-.535157-3.078125-1.449219-.761719-.917969-1.074219-2.125-.851563-3.296875l2.933594-15.476563c.359375-1.890624 2.007812-3.253906 3.929688-3.253906h40.796874c1.25 0 2.414063-.621094 3.109376-1.660156l16.707031-24.933594c.742187-1.109375 1.988281-1.773437 3.324219-1.773437h23.84375c1.4375 0 2.761718.765625 3.472656 2.011719.710937 1.246093.703125 2.777343-.027344 4.015624l-23.535156 40.023438c-2.105469 3.574219-5.984375 5.792969-10.125 5.792969zm-55.667969-8h55.667969c1.320312 0 2.558594-.710938 3.230468-1.847657l19.992188-34h-14.71875l-15.519531 23.160157c-2.179688 3.261719-5.828125 5.207031-9.753907 5.207031h-37.484374zm0 0"/><path d="m121.9375 299.121094h-102.347656c-1.648438 0-3.125-1.007813-3.722656-2.542969-.601563-1.53125-.203126-3.277344 1.011718-4.394531l24.691406-22.800782c2.792969-2.578124 6.425782-4 10.230469-4h70.136719c2.210938 0 4 1.792969 4 4v25.742188c0 2.207031-1.789062 3.996094-4 3.996094zm-92.121094-8h88.121094v-17.738282h-66.136719c-1.789062 0-3.492187.664063-4.804687 1.875zm0 0"/><path d="m14.382812 303.949219c-1.632812 0-3.117187-.996094-3.722656-2.515625-.609375-1.515625-.242187-3.25.941406-4.378906 1.152344-1.105469 2.871094-1.425782 4.347657-.792969 1.46875.628906 2.4375 2.066406 2.4375 3.664062v.023438c-.003907 2.207031-1.792969 4-4.003907 4zm0 0"/><path d="m213.355469 299.121094h-91.417969c-2.207031 0-4-1.792969-4-4v-35.355469c0-3.734375 3.039062-6.769531 6.773438-6.769531h46.425781c2.464843 0 4.839843.746094 6.863281 2.15625l36.457031 25.40625c1.816407 1.269531 2.898438 3.34375 2.898438 5.554687v9.011719c0 2.207031-1.792969 3.996094-4 3.996094zm-87.417969-8h83.417969v-4.371094l-35.933594-25.035156c-.671875-.472656-1.460937-.71875-2.285156-.71875h-45.199219zm0 0"/><path d="m106.390625 412.148438c-3.851563 0-7.707031-1.464844-10.636719-4.398438l-10-10c-.9375-.9375-1.347656-2.273438-1.101562-3.574219l2.203125-11.625c.359375-1.890625 2.007812-3.257812 3.929687-3.257812h9.707032c1.0625 0 2.078124.421875 2.828124 1.171875l13.714844 13.710937c1.808594 1.8125 2.808594 4.222657 2.808594 6.789063 0 2.5625-1 4.972656-2.808594 6.785156-2.9375 2.929688-6.789062 4.398438-10.644531 4.398438zm-13.484375-18.5625 8.503906 8.503906c2.75 2.75 7.21875 2.746094 9.964844 0 .40625-.40625.464844-.878906.464844-1.128906 0-.246094-.058594-.722657-.464844-1.128907l-12.542969-12.542969h-4.738281zm0 0"/><path d="m468.078125 111.480469h-173.0625c-2.207031 0-4-1.792969-4-4v-64.851563c0-2.210937 1.792969-4 4-4h178.605469c2.207031 0 4 1.789063 4 4v59.3125c0 5.261719-4.28125 9.539063-9.542969 9.539063zm-169.0625-8h169.0625c.847656 0 1.542969-.6875 1.542969-1.539063v-55.3125h-170.605469zm0 0"/><path d="m457.460938 134.796875h-162.445313c-2.207031 0-4-1.792969-4-4v-23.316406c0-2.207031 1.792969-4 4-4h162.445313c2.207031 0 4 1.792969 4 4v23.316406c0 2.207031-1.792969 4-4 4zm-158.445313-8h154.445313v-15.316406h-154.445313zm0 0"/><path d="m261.074219 104.664062h-19.230469c-3.730469 0-6.769531-3.035156-6.769531-6.769531v-43.773437c0-3.734375 3.039062-6.769532 6.769531-6.769532h19.230469c2.210937 0 4 1.792969 4 4v49.3125c0 2.210938-1.789063 4-4 4zm-18-8h14v-41.3125h-14zm0 0"/><path d="m478.460938 230.828125h-58.453126c-4.578124 0-8.519531-3.261719-9.375-7.761719l-17.34375-91.523437c-.222656-1.171875.089844-2.378907.847657-3.296875.761719-.917969 1.886719-1.449219 3.082031-1.449219h66.972656c3.238282 0 6.035156 2.304687 6.648438 5.480469l16.980468 87.1875c.546876 2.808594-.179687 5.683594-2 7.890625-1.816406 2.210937-4.5 3.472656-7.359374 3.472656zm-76.414063-96.03125 16.445313 86.78125c.140624.726563.777343 1.253906 1.515624 1.253906h58.453126c.628906 0 1.015624-.351562 1.1875-.5625.175781-.207031.445312-.652343.324218-1.273437l-16.792968-86.195313h-61.132813zm62.148437 0h.019532zm0 0"/><path d="m405.503906 178.640625h-60.5c-4.140625 0-8.019531-2.21875-10.121094-5.789063l-23.539062-40.027343c-.726562-1.238281-.738281-2.769531-.027344-4.015625.714844-1.246094 2.039063-2.011719 3.472656-2.011719h23.847657c1.332031 0 2.578125.664063 3.320312 1.773437l16.707031 24.933594c.699219 1.039063 1.859376 1.660156 3.109376 1.660156h40.796874c1.921876 0 3.570313 1.367188 3.929688 3.253907l2.933594 15.476562c.222656 1.171875-.089844 2.378907-.851563 3.296875-.757812.917969-1.882812 1.449219-3.078125 1.449219zm-83.71875-43.84375 19.992188 34c.671875 1.136719 1.90625 1.84375 3.226562 1.84375h55.671875l-1.417969-7.476563h-37.480468c-3.925782 0-7.570313-1.945312-9.757813-5.207031l-15.515625-23.160156zm0 0"/><path d="m366.0625 46.628906h-91.414062c-2.210938 0-4-1.792968-4-4v-9.011718c0-2.210938 1.082031-4.289063 2.898437-5.554688l36.457031-25.40625c2.019532-1.410156 4.394532-2.15625 6.863282-2.15625h46.425781c3.730469 0 6.769531 3.039062 6.769531 6.769531v35.355469c0 2.210938-1.789062 4.003906-4 4.003906zm-87.414062-8h83.414062v-30.128906h-45.195312c-.824219 0-1.617188.246094-2.289063.71875l-35.933594 25.039062v4.371094zm0 0"/><path d="m473.640625 51.453125c-2.210937 0-4.023437-1.792969-4.023437-4v-.023437c0-1.617188.972656-3.074219 2.46875-3.695313 1.496093-.617187 3.214843-.277344 4.359374.867187 1.144532 1.144532 1.496094 2.878907.878907 4.371094-.617188 1.496094-2.066407 2.480469-3.683594 2.480469zm0 0"/><path d="m468.414062 46.628906h-102.351562c-2.207031 0-4-1.792968-4-4v-25.742187c0-2.207031 1.792969-4 4-4h70.140625c3.800781 0 7.4375 1.421875 10.226563 4l24.695312 22.800781c1.210938 1.121094 1.613281 2.863281 1.011719 4.398438-.597657 1.53125-2.078125 2.542968-3.722657 2.542968zm-98.351562-8h88.121094l-17.175782-15.863281c-1.3125-1.210937-3.019531-1.878906-4.804687-1.878906h-66.136719v17.742187zm0 0"/><path d="m381.609375 159.652344c-3.851563 0-7.707031-1.464844-10.636719-4.398438-3.742187-3.742187-3.742187-9.832031 0-13.574218l13.710938-13.710938c.75-.75 1.769531-1.171875 2.828125-1.171875h9.707031c1.921875 0 3.574219 1.367187 3.929688 3.257813l2.203124 11.625c.246094 1.300781-.164062 2.636718-1.101562 3.574218l-10 10c-2.933594 2.933594-6.789062 4.398438-10.640625 4.398438zm7.558594-24.855469-12.542969 12.539063c-.625.625-.625 1.640624 0 2.261718 2.75 2.746094 7.214844 2.746094 9.964844 0l8.503906-8.507812-1.191406-6.292969zm0 0"/></g><path d="m353.285156 211.382812c0 8.441407-17.9375 13.949219-20.476562 21.679688-2.570313 7.828125 8.652344 22.78125 3.84375 29.554688-4.707032 6.632812-22.703125 1.175781-29.195313 6.480468-6.269531 5.121094-4.273437 23.816406-11.878906 27.414063-7.296875 3.453125-20.589844-9.84375-28.832031-8.039063-7.863282 1.71875-14.273438 19.433594-22.746094 19.433594-8.46875 0-14.878906-17.714844-22.742188-19.433594-8.242187-1.804687-21.535156 11.496094-28.832031 8.039063-7.609375-3.597657-5.613281-22.292969-11.878906-27.414063-6.496094-5.304687-24.492187.152344-29.203125-6.480468-4.804688-6.773438 6.417969-21.726563 3.847656-29.554688-2.539062-7.730469-20.472656-13.238281-20.472656-21.675781 0-8.441407 17.933594-13.953125 20.472656-21.679688 2.570313-7.828125-8.648437-22.785156-3.84375-29.554687 4.707032-6.632813 22.707032-1.175782 29.199219-6.480469 6.265625-5.121094 4.269531-23.816406 11.875-27.417969 7.300781-3.449218 20.589844 9.84375 28.832031 8.042969 7.863282-1.71875 14.273438-19.433594 22.746094-19.433594s14.882812 17.714844 22.742188 19.433594c8.242187 1.800781 21.535156-11.496094 28.832031-8.042969 7.609375 3.601563 5.613281 22.296875 11.882812 27.417969 6.492188 5.304687 24.492188-.152344 29.199219 6.480469 4.804688 6.769531-6.417969 21.726562-3.847656 29.554687 2.539062 7.726563 20.476562 13.234375 20.476562 21.675781zm0 0" fill="#ffea92"/><path d="m233.652344 177.882812-13.4375 37.527344c-1.078125 3.007813-5.332032 3.003906-6.40625-.003906l-13.371094-37.515625c-.480469-1.355469-1.765625-2.257813-3.203125-2.257813h-11.699219c-2.378906 0-4.023437 2.375-3.183594 4.597657l25.132813 66.667969c.5 1.324218 1.765625 2.199218 3.179687 2.199218h12.664063c1.417969 0 2.683594-.875 3.183594-2.203125l25.035156-66.667969c.835937-2.222656-.808594-4.59375-3.179687-4.59375h-11.515626c-1.433593-.003906-2.714843.898438-3.199218 2.25zm0 0" fill="#f9a7a7"/><path d="m282.574219 204.132812c-8.34375-2.304687-12.003907-3.699218-12.003907-7.359374 0-4.886719 3.953126-5.910157 7.269532-5.910157l.460937.007813c5.152344.140625 7.695313 2.972656 7.925781 5.710937v.003907c.152344 1.757812 1.621094 3.109374 3.390626 3.109374h12.085937c1.988281 0 3.554687-1.703124 3.386719-3.683593-1.085938-12.90625-11.335938-21.246094-26.121094-21.246094-15.746094 0-26.324219 9-26.324219 22.394531 0 16.179688 13.289063 19.722656 22.996094 22.308594 8.621094 2.296875 12.398437 3.742188 12.398437 7.90625 0 4-3.210937 6.382812-8.589843 6.382812-5.105469 0-8.125-2.40625-8.507813-6.777343-.152344-1.753907-1.625-3.101563-3.386718-3.101563h-11.703126c-1.878906 0-3.398437 1.523438-3.398437 3.402344 0 13.238281 11.101563 22.488281 27 22.488281 17.34375 0 26.421875-11.554687 26.421875-22.96875 0-16.230469-13.46875-19.949219-23.300781-22.667969zm0 0" fill="#f9a7a7"/></svg>