<svg height="512" viewBox="0 0 512 512" width="512" xmlns="http://www.w3.org/2000/svg"><g id="flat"><path d="m120 392v16h-56l8-40z" fill="#f6bb92"/><path d="m136 328-16 64-24-8-16-8z" fill="#015078"/><path d="m464 288 1.526 1.145a49.7 49.7 0 0 1 16.327 58.223l-1.853 4.632 3.1 6.2a49.7 49.7 0 0 1 -3.1 49.8h-152l48-64.98z" fill="#961b20"/><path d="m256 280 40 32v32h-24l-24-40-32-8-8-24 24-24v32z" fill="#fdc9a6"/><path d="m48 368-24 16v24h56l8-16z" fill="#fdc9a6"/><rect fill="#d32b39" height="152" rx="36" transform="matrix(.779 .627 -.627 .779 277.743 -192.693)" width="72" x="376.309" y="221.781"/><path d="m344 296-24 16h-24.936a32 32 0 0 0 -30.358 21.881l-.706 2.119-16 8h-40v64h120l32-48-8-32 8-16z" fill="#ff6268"/><path d="m360.244 331.2a19.838 19.838 0 0 0 -28.046 4.34l-28.198 39.48h-64l-16-7.02-16 8v32h120l36.3-49.139a19.838 19.838 0 0 0 -4.056-27.661z" fill="#fdc9a6"/><path d="m208 408h-15.931a26 26 0 0 1 -23.255-14.372l-32.814-65.628-48 64-40-24 63.6-84.8a28 28 0 0 1 22.4-11.2h11.015a28 28 0 0 1 23.3 12.468l39.685 59.532z" fill="#026ca2"/><path d="m232 232h32v48h-32z" fill="#cbcbcb"/><path d="m232 240h32v32h-32z" fill="#2ad3b3"/><rect fill="#fdc9a6" height="80" rx="24" transform="matrix(.779 .627 -.627 .779 257.08 -170.514)" width="48" x="346.505" y="239.547"/><path d="m404.53 267.09a23.923 23.923 0 0 1 -5.3 15.04l-15.04 18.7-12.47-10.03-9.88-38.76a23.991 23.991 0 0 1 42.69 15.05z" fill="#55300b"/><path d="m396.655 310.855-18.7-15.045 27.583-34.281a12 12 0 0 1 16.872-1.827 12 12 0 0 1 1.827 16.872z" fill="#ea9d2d"/><circle cx="384.041" cy="299.461" fill="#fbb540" r="16.971"/><path d="m385.131 96.08-56-8a8 8 0 0 0 -9.131 7.92v24h-8a24 24 0 1 0 24 24v-38.776l40 5.714v17.062h-8a24 24 0 1 0 24 24v-48a8 8 0 0 0 -6.869-7.92z" fill="#2cbff4"/><path d="m232 232h8v8h-8z" fill="#a8a8a8"/><path d="m232 272h8v8h-8z" fill="#a8a8a8"/><path d="m232 240h8v32h-8z" fill="#27c5a7"/><path d="m185.94 192.239-25.94-6.485v-7.508l22.06 5.515a8 8 0 1 0 3.88-15.522l-32-8a8 8 0 0 0 -9.94 7.761v32h-8a24 24 0 1 0 24 24v-21.754l22.06 5.515a8 8 0 1 0 3.88-15.522z" fill="#fbb540"/></g></svg>