<svg height="512" viewBox="0 0 64 64" width="512" xmlns="http://www.w3.org/2000/svg"><path d="m61 49h-18v-26s2-3 9-3 9 3 9 3z" fill="#d3843d"/><path d="m43 49h-30l10-34h10z" fill="#a86024"/><path d="m37 49h-32a8.76 8.76 0 0 1 -2-6 8.76 8.76 0 0 1 2-6h32a8.76 8.76 0 0 1 2 6 8.76 8.76 0 0 1 -2 6z" fill="#f9bb4b"/><path d="m12 37h-7a8.76 8.76 0 0 0 -2 6 8.76 8.76 0 0 0 2 6h7z" fill="#fccc7e"/><g fill="#4f2c12"><path d="m34 40h5v2h-5z"/><path d="m32 44h7v2h-7z"/><path d="m15 42h2v2h-2z"/><path d="m19 42h2v2h-2z"/><path d="m23 42h2v2h-2z"/></g><path d="m3 40h5v2h-5z" fill="#d3843d"/><path d="m3 44h3v2h-3z" fill="#d3843d"/><path d="m52 20c-7 0-9 3-9 3v4h18v-4s-2-3-9-3z" fill="#f9bb4b"/><path d="m46 27h2v3h-2z" fill="#a86024"/><path d="m49 24h2v3h-2z" fill="#a86024"/><path d="m52 27h2v3h-2z" fill="#a86024"/><path d="m55 24h2v3h-2z" fill="#a86024"/><path d="m56 44h2v2h-2z" fill="#4f2c12"/><circle cx="50" cy="38" fill="#4f2c12" r="2"/><circle cx="28" cy="23" fill="#4f2c12" r="2"/><circle cx="32" cy="35" fill="#4f2c12" r="2"/><path d="m20 32a2 2 0 0 0 0-4 1.976 1.976 0 0 0 -.887.216l-.825 2.8a1.994 1.994 0 0 0 1.712.984z" fill="#4f2c12"/></svg>