<?xml version="1.0" encoding="iso-8859-1"?>
<!-- Generator: Adobe Illustrator 19.0.0, SVG Export Plug-In . SVG Version: 6.00 Build 0)  -->
<svg version="1.1" id="Capa_1" xmlns="http://www.w3.org/2000/svg" xmlns:xlink="http://www.w3.org/1999/xlink" x="0px" y="0px"
	 viewBox="0 0 512 512" style="enable-background:new 0 0 512 512;" xml:space="preserve">
<path style="fill:#2C8269;" d="M158.06,153.677c-0.32,0-0.64-0.008-0.962-0.024l-94.453-4.795
	c-10.456-0.531-18.502-9.437-17.971-19.893c0.532-10.456,9.42-18.511,19.893-17.971l87.534,4.444l47.991-36.488
	c8.334-6.336,20.228-4.717,26.563,3.617c6.336,8.334,4.717,20.227-3.617,26.564l-53.506,40.681
	C166.227,152.324,162.195,153.677,158.06,153.677z"/>
<path style="fill:#FFB69E;" d="M226.656,82.565c-6.336-8.334-18.229-9.953-26.564-3.617l22.946,30.181
	C231.373,102.794,232.993,90.899,226.656,82.565z"/>
<path style="fill:#213D2F;" d="M23.729,501.571c-1.213,0-2.438-0.093-3.673-0.285c-12.932-2.013-21.783-14.127-19.77-27.058
	l14.412-92.608l4.332-97.307c0.583-13.074,11.65-23.202,24.727-22.618c13.074,0.582,23.201,11.653,22.619,24.726l-4.39,98.609
	c-0.039,0.868-0.125,1.732-0.258,2.59l-14.612,93.895C45.293,493.212,35.207,501.571,23.729,501.571z"/>
<path style="fill:#2C503E;" d="M114.965,501.587c-0.258,0.008-0.517,0.013-0.773,0.013c-12.737,0.001-23.26-10.116-23.671-22.937
	l-3.125-97.536l-18.744-97.57c-2.469-12.852,5.948-25.272,18.801-27.74c12.847-2.47,25.272,5.948,27.741,18.8l19.097,99.409
	c0.235,1.224,0.373,2.466,0.414,3.712l3.185,99.41C138.308,490.224,128.045,501.168,114.965,501.587z"/>
<path style="fill:#176E5D;" d="M118.34,291.074l-99.365-5.928l8.513-142.671c1.105-18.526,17.02-32.649,35.547-31.544l32.274,1.925
	c18.527,1.105,32.649,17.02,31.544,35.547L118.34,291.074z"/>
<path style="fill:#323C3C;" d="M418.282,83.169l-30.87,1.355c-3.201,0.141-5.719,2.707-5.863,5.846l-158.047,6.937l-0.699-15.928
	l20.482-0.899c12.119-0.532,21.512-10.788,20.98-22.907l0,0c-0.532-12.12-10.787-21.512-22.907-20.98L178.08,39.37
	c-12.119,0.532-21.512,10.788-20.98,22.907l0,0c0.532,12.119,10.787,21.512,22.907,20.98l20.482-0.899l0.699,15.928l-66.345,2.912
	c-2.984,0.131-5.673,1.839-7.06,4.484c-1.387,2.645-1.262,5.829,0.327,8.357l16.17,25.726c1.605,2.553,4.456,4.048,7.468,3.915
	l52.968-2.325l-25.297,46.764c-1.437,2.657-1.335,5.881,0.268,8.441c1.603,2.561,4.459,4.061,7.476,3.928l20.921-0.919
	c3.009-0.132,5.718-1.868,7.093-4.549l25.112-48.916c2.904,1.077,6.064,1.607,9.347,1.462c13.186-0.579,23.443-11.776,22.865-24.963
	c-0.077-1.745-0.35-3.433-0.779-5.057l110.808-4.864c0.419,3.115,3.152,5.451,6.353,5.312l30.87-1.355
	c3.389-0.149,6.016-3.016,5.867-6.406l-0.931-21.2C424.54,85.647,421.672,83.02,418.282,83.169z M257.895,123.247
	c0.225,5.132-3.767,9.49-8.9,9.716c-0.648,0.029-1.285-0.011-1.901-0.111l7.469-14.55l1.589-0.07
	C257.174,119.653,257.812,121.372,257.895,123.247z"/>
<path style="fill:#212929;" d="M254.563,118.302l-14.274,27.805c2.904,1.077,6.064,1.607,9.348,1.462
	c13.186-0.579,23.443-11.776,22.865-24.963c-0.077-1.746-0.35-3.433-0.779-5.057L254.563,118.302z M248.995,132.963
	c-0.648,0.029-1.285-0.011-1.901-0.111l7.469-14.55l1.589-0.07c1.021,1.421,1.66,3.14,1.743,5.015
	C258.12,128.379,254.127,132.737,248.995,132.963z"/>
<path style="fill:#73C8F0;" d="M180.006,83.258l20.482-0.899l22.315-0.98l20.482-0.899c12.119-0.532,21.512-10.788,20.98-22.906
	c-0.532-12.12-10.787-21.513-22.907-20.98l-63.278,2.778c-12.119,0.532-21.512,10.787-20.98,22.907
	C157.631,74.396,167.887,83.789,180.006,83.258z"/>
<path style="fill:#212929;" d="M424.688,89.036c-0.149-3.388-3.016-6.016-6.406-5.867l-30.87,1.355
	c-3.201,0.14-5.719,2.707-5.863,5.846l0.98,22.315c0.42,3.115,3.152,5.452,6.353,5.312l30.87-1.355
	c3.389-0.149,6.016-3.016,5.867-6.406L424.688,89.036z"/>
<circle style="fill:#FFB69E;" cx="88.847" cy="53.025" r="42.625"/>
<path style="fill:#2C8269;" d="M130.476,193.647c-3.689,0-7.368-1.074-10.551-3.207l-66.866-44.79
	c-8.698-5.826-11.026-17.602-5.2-26.3c5.827-8.699,17.602-11.026,26.3-5.2l57.082,38.235l77.009-44.259
	c9.077-5.217,20.665-2.088,25.882,6.989c5.217,9.077,2.088,20.665-6.989,25.882l-87.219,50.127
	C136.99,192.811,133.728,193.647,130.476,193.647z"/>
<g>
	<path style="fill:#FFB69E;" d="M234.129,115.117c-5.217-9.077-16.805-12.206-25.882-6.989l18.892,32.871
		C236.217,135.782,239.346,124.194,234.129,115.117z"/>
	<path style="fill:#FFB69E;" d="M354.454,219.898c-5.88-6.872-16.216-7.678-23.09-1.796l-49.61,42.45l-67.04-18.13
		c-8.732-2.361-17.723,2.802-20.084,11.533c-2.361,8.731,2.803,17.723,11.534,20.084c81.022,21.899,75.658,20.502,76.966,20.723
		c4.742,0.793,9.325-0.4,13.518-3.849l56.009-47.925C359.531,237.107,360.335,226.77,354.454,219.898z"/>
</g>
<path style="fill:#2C8269;" d="M331.364,218.101l-49.611,42.45l-67.04-18.13c-8.732-2.361-17.723,2.802-20.084,11.533
	c-2.361,8.731,2.803,17.723,11.534,20.084c81.022,21.899,75.658,20.502,76.966,20.723c4.742,0.793,9.325-0.4,13.518-3.849
	l56.009-47.925L331.364,218.101z"/>
<g>
	<rect x="330.989" y="211.258" style="fill:#212929;" width="18.075" height="43.331"/>
	<path style="fill:#212929;" d="M368.41,283.49c-10.68,0-19.369-8.689-19.369-19.369c0-10.68,8.689-19.369,19.369-19.369
		c10.68,0,19.369,8.689,19.369,19.369C387.78,274.801,379.091,283.49,368.41,283.49z M368.41,256.582
		c-4.158,0-7.539,3.382-7.539,7.539c0,4.157,3.382,7.539,7.539,7.539c4.158,0,7.539-3.383,7.539-7.539
		C375.95,259.964,372.568,256.582,368.41,256.582z"/>
</g>
<path style="fill:#176E5D;" d="M327.043,360.011c2.127-13.383-8.623-24.048-21.003-23.007l-42.969,3.62l0.826-77.975
	c0.153-14.41-11.431-26.201-25.842-26.305l-26.768-0.192c-15.222-0.109-27.662,12.226-27.62,27.499l5.54,117.691l13.595,57.946
	h-70.859c-10.655,0-19.731,8.285-20.111,18.934c-0.398,11.18,8.548,20.369,19.639,20.369h95.743
	c13.481,0,22.339-12.104,19.515-24.14l-17.456-74.4l55.07-1.776l-12.255,77.107c-1.892,11.905,6.971,23.218,19.356,23.212
	c9.493,0,17.846-6.896,19.383-16.57L327.043,360.011z"/>
<path style="fill:#213D2F;" d="M246.73,454.451l-21.996-93.753c-2.479-10.566-13.054-17.123-23.621-14.643
	c-5.906,1.387-10.56,5.301-13.082,10.33l1.175,24.958l13.595,57.946h-71.33c-10.853,0-19.652,8.799-19.652,19.652
	c0,10.853,8.799,19.652,19.652,19.652h96.126C240.259,478.591,249.621,466.772,246.73,454.451z"/>
<path style="fill:#2C503E;" d="M306.039,337.005l-102.088,8.599c-7.073,0.596-12.954,4.869-15.923,10.779l1.178,24.959l95.137-3.067
	l-12.33,77.58c-1.895,11.924,7.321,22.744,19.432,22.738c9.493,0,17.846-6.896,19.383-16.57l16.267-102.353
	C329.098,347.08,318.747,335.935,306.039,337.005z"/>
<path style="fill:#176E5D;" d="M263.07,340.624l0.796-75.2c0.169-15.941-12.646-28.985-28.587-29.099l-23.993-0.172
	c-15.222-0.109-27.662,12.226-27.62,27.499l5.54,117.691L263.07,340.624z"/>
<path style="fill:#323C3C;" d="M507.783,260.005V241.93h-170.2l0,0h-60.328c-2.417,0-4.651,1.286-5.866,3.375
	c-1.215,2.09-1.227,4.667-0.032,6.768l12.159,21.371c1.207,2.121,3.458,3.43,5.898,3.43h42.902l-22.11,36.906
	c-1.256,2.097-1.288,4.707-0.083,6.833c1.205,2.127,3.46,3.441,5.904,3.441h16.944c2.438,0,4.688-1.308,5.895-3.425l34.562-60.624
	h134.352V260.005z"/>
<path style="fill:#212929;" d="M507.03,264.524h-25.003c-2.745,0-4.971-2.225-4.971-4.971v-17.171c0-2.745,2.225-4.971,4.971-4.971
	h25.003c2.745,0,4.97,2.225,4.97,4.971v17.171C512,262.298,509.775,264.524,507.03,264.524z"/>
<path style="fill:#FFD23C;" d="M368.595,229.03h-57.132c-8.192,0-14.834-6.641-14.834-14.834v-5.878
	c0-8.192,6.641-14.834,14.834-14.834h57.132c8.192,0,14.834,6.641,14.834,14.834v5.878
	C383.429,222.388,376.787,229.03,368.595,229.03z"/>
<g>
	<circle style="fill:#FFB69E;" cx="258.751" cy="214.76" r="36.149"/>
	<path style="fill:#FFB69E;" d="M359.681,262.378c-3.752-8.23-13.462-11.861-21.694-8.11l-59.413,27.08l-59.415-35.956
		c-7.74-4.683-17.806-2.206-22.49,5.531c-4.682,7.738-2.205,17.806,5.532,22.49c71.81,43.445,67.042,40.619,68.237,41.193
		c4.338,2.073,9.072,2.193,14.056,0.038l67.076-30.572C359.802,280.32,363.433,270.607,359.681,262.378z"/>
</g>
<path style="fill:#2C8269;" d="M337.989,254.268l-59.413,27.08l-59.415-35.956c-7.74-4.683-17.806-2.206-22.49,5.531
	c-4.682,7.738-2.205,17.806,5.532,22.49c71.81,43.445,67.042,40.619,68.237,41.193c4.338,2.073,9.072,2.193,14.056,0.038
	l67.076-30.572L337.989,254.268z"/>
<g>
</g>
<g>
</g>
<g>
</g>
<g>
</g>
<g>
</g>
<g>
</g>
<g>
</g>
<g>
</g>
<g>
</g>
<g>
</g>
<g>
</g>
<g>
</g>
<g>
</g>
<g>
</g>
<g>
</g>
</svg>
