<svg height="512" viewBox="0 0 512 512" width="512" xmlns="http://www.w3.org/2000/svg"><g id="Flat"><path d="m290.164 106.528-93.019 99.22 42.362-114.982-15.014-5.532-37.473 101.714-11.092-116.465-15.928 1.517 14.249 149.612-15.653 42.485-21.432 29.025 164.672-175.65z" fill="#e6e6e6"/><path d="m441.517 336.072-116.465-11.092 101.714-37.473-5.532-15.014-114.982 42.362 99.22-93.019-10.944-11.672-171.01 160.322 23.512-16.761 43.358-15.974 149.612 14.249z" fill="#e6e6e6"/><path d="m164.55 329.1-20.55-41.1 32-48-72 40 35.25 70.5z" fill="#2b7cd4"/><path d="m185.423 347.615 30.577 20.385 56-32-48 72-61.304-35.031z" fill="#2b7cd4"/><path d="m471.58823 352h-32.04372a15.98921 15.98921 0 0 1 -15.9657-15.09649 264.94648 264.94648 0 0 0 -5.00906-38.58714 15.994 15.994 0 0 1 11.52046-18.68122l30.93757-8.29137a15.99933 15.99933 0 0 1 19.79537 12.10322 328.187 328.187 0 0 1 6.75286 51.73354 16.01206 16.01206 0 0 1 -15.98778 16.81946z" fill="#eb352f"/><path d="m461.04891 271.33812-30.912 8.28451a15.99169 15.99169 0 0 1 -19.33143-10.45547 260.45058 260.45058 0 0 0 -14.88327-35.94556 15.99169 15.99169 0 0 1 6.27684-21.05854l27.69481-15.99065a16.00291 16.00291 0 0 1 22.24409 6.5494 325.8531 325.8531 0 0 1 20 48.232 16.009 16.009 0 0 1 -11.08904 20.38431z" fill="#65dcff"/><path d="m429.87063 196.18582-27.71295 16.00118a15.99393 15.99393 0 0 1 -21.35478-5.05952 265.69262 265.69262 0 0 0 -23.75011-30.83412 15.98918 15.98918 0 0 1 .61632-21.96242l22.65338-22.65338a16.00481 16.00481 0 0 1 23.18926.57848 328.85339 328.85339 0 0 1 31.78854 41.36085 16.00623 16.00623 0 0 1 -5.42966 22.56893z" fill="#fc7"/><path d="m380.32249 131.67751-22.65338 22.65338a15.98918 15.98918 0 0 1 -21.96242.61632 265.69256 265.69256 0 0 0 -30.83413-23.75012 15.99391 15.99391 0 0 1 -5.05953-21.35476l16.00112-27.713a16.00623 16.00623 0 0 1 22.569-5.42964 328.86061 328.86061 0 0 1 41.36085 31.78856 16.00481 16.00481 0 0 1 .57849 23.18926z" fill="#fc7"/><path d="m315.82759 82.106-15.99065 27.69487a15.9917 15.9917 0 0 1 -21.05857 6.27684 260.44219 260.44219 0 0 0 -35.94558-14.88329 15.9917 15.9917 0 0 1 -10.45551-19.33142l8.28455-30.912a16.009 16.009 0 0 1 20.38429-11.089 325.85182 325.85182 0 0 1 48.23205 20 16.00292 16.00292 0 0 1 6.54942 22.244z" fill="#65dcff"/><path d="m240.65614 50.97223-8.2914 30.93757a15.994 15.994 0 0 1 -18.68123 11.52044 264.94448 264.94448 0 0 0 -38.587-5.00905 15.98921 15.98921 0 0 1 -15.09651-15.9657v-32.04372a16.012 16.012 0 0 1 16.81946-15.98777 328.18511 328.18511 0 0 1 51.73347 6.75285 15.99933 15.99933 0 0 1 12.10321 19.79538z" fill="#eb352f"/><path d="m128 384-104 104 12.73347-38.2004a135.673 135.673 0 0 1 75.26647-81.7996h.00006z" fill="#3ea7ff"/><path d="m128 384-104 104 38.2004-12.73347a135.673 135.673 0 0 0 81.7996-75.26647v-.00006z" fill="#104f91"/><path d="m192 352-48 48h-32v-32l48-48z" fill="#2b7cd4"/><path d="m137.373 329.373h45.255v45.255h-45.255z" fill="#3ea7ff" transform="matrix(.707 -.707 .707 .707 -202.039 216.236)"/><path d="m232 312-24 24a22.62742 22.62742 0 1 1 -32-32l24-24a22.62742 22.62742 0 0 1 32 32z" fill="#ffc7cc"/><path d="m232 312-8 8-32-32 8-8a22.62742 22.62742 0 0 1 32 32z" fill="#3ea7ff"/></g></svg>