<svg height="512" viewBox="0 0 512 512" width="512" xmlns="http://www.w3.org/2000/svg"><g id="Flat"><path d="m136.916 115.798-15.819 2.404 20.839 137.055-79.295-117.726-13.269 8.938 166.961 249.198 13.27-8.938-66.764-100.439z" fill="#a0dde5"/><path d="m376.289 286.815 89.432-138.475-13.442-8.68-69.779 108.045 20.401-128.45-15.802-2.51-26.083 164.227-69.124 107.348 13.441 8.68 69.491-107.916 1.077.171z" fill="#a0dde5"/><path d="m296 472h-72a16 16 0 0 1 -16-16 16 16 0 0 1 16-16h64v-80a16 16 0 0 1 16-16 16 16 0 0 1 16 16v88a24 24 0 0 1 -24 24z" fill="#4db7e5"/><path d="m488 120a42.257 42.257 0 0 1 -3.21 15.99c-4.66 11.49-14.25 22.29-27.83 32.01-39.83-28.48-113.99-47.72-199.07-48h-1.89c-85.87 0-160.84 19.31-200.96 48-13.58-9.72-23.17-20.52-27.82-32.01a42.078 42.078 0 0 1 -3.22-15.99c0-53.02 103.87-96 232-96 37.96 0 73.78 3.77 105.41 10.46 75.15 15.89 126.59 48.23 126.59 85.54z" fill="#4db7e5"/><path d="m488 120a42.257 42.257 0 0 1 -3.21 15.99c-4.66 11.49-14.25 22.29-27.83 32.01-39.83-28.48-113.99-47.72-199.07-48a462.635 462.635 0 0 0 103.52-85.54c75.15 15.89 126.59 48.23 126.59 85.54z" fill="#4aafdb"/><path d="m484.79 135.99c-4.66 11.49-14.25 22.29-27.83 32.01a180.752 180.752 0 0 0 -32.96-18.2q-7.635-3.315-16-6.32a377.23 377.23 0 0 0 -64-16.33q-7.86-1.335-16-2.43a534.253 534.253 0 0 0 -64-4.66c-2.66-.04-5.32-.06-8-.06s-5.34.02-8 .06a534.253 534.253 0 0 0 -64 4.66q-8.145 1.095-16 2.43a377.23 377.23 0 0 0 -64 16.33q-8.37 3-16 6.32a180.752 180.752 0 0 0 -32.96 18.2c-13.58-9.72-23.17-20.52-27.82-32.01 7.83-19.29 29.55-36.63 60.78-50.19q7.635-3.315 16-6.32a376.314 376.314 0 0 1 64-16.32q7.86-1.35 16-2.44a534.253 534.253 0 0 1 64-4.66q3.975-.06 8-.06t8 .06a534.253 534.253 0 0 1 64 4.66q8.13 1.1 16 2.44a375.377 375.377 0 0 1 64 16.32q8.37 2.985 16 6.32c31.23 13.56 52.96 30.9 60.79 50.19z" fill="#348fd9"/><g fill="#3086cd"><path d="m264 56.06v64c-2.66-.04-5.32-.06-8-.06s-5.34.02-8 .06v-64q3.975-.06 8-.06t8 .06z"/><path d="m184 60.72v64q-8.145 1.095-16 2.43v-63.99q7.86-1.35 16-2.44z"/><path d="m104 79.48v64q-8.37 3-16 6.32v-64q7.635-3.315 16-6.32z"/><path d="m344 63.16v63.99q-7.86-1.335-16-2.43v-64q8.13 1.095 16 2.44z"/><path d="m424 85.8v64q-7.635-3.315-16-6.32v-64q8.37 2.985 16 6.32z"/></g><path d="m360 328-24.88 37.31a23.983 23.983 0 0 1 -19.96 10.69h-19.16l-8 32h-64l-1.55-6.2-6.45-25.8h-19.16a23.983 23.983 0 0 1 -19.96-10.69l-24.88-37.31 24-24 24 40h112l24-40z" fill="#f35244"/><path d="m360 328-24.88 37.31a23.983 23.983 0 0 1 -19.96 10.69h-19.16l-8 32h-64l-1.55-6.2a502.665 502.665 0 0 0 72.1-57.8h17.45l24-40z" fill="#e64c3f"/><path d="m232 312h48a0 0 0 0 1 0 0v16a24 24 0 0 1 -24 24 24 24 0 0 1 -24-24v-16a0 0 0 0 1 0 0z" fill="#fec9a3"/><path d="m256 280a24 24 0 0 1 24 24v8a0 0 0 0 1 0 0h-48a0 0 0 0 1 0 0v-8a24 24 0 0 1 24-24z" fill="#348fd9"/><path d="m139.638 309.457 12.362 18.543 24-24-10.587-15.88a8 8 0 0 0 -12.313-1.22l-12.462 12.462a8 8 0 0 0 -1 10.095z" fill="#fec9a3"/><path d="m336 304 10.587-15.88a8 8 0 0 1 12.313-1.22l12.462 12.462a8 8 0 0 1 1 10.095l-12.362 18.543z" fill="#fec9a3"/><path d="m152 472 31-31.667 41.123-.211a24 24 0 0 0 23.877-24v-8.122h-72.506a16 16 0 0 0 -12.292 5.757l-35.202 42.243z" fill="#feb784"/><path d="m119.288 451.644 8.712 4.356 24 16-16 16-27.584-16.551a11.3 11.3 0 0 1 -2.178-17.687 11.306 11.306 0 0 1 13.05-2.118z" fill="#d6d6d4"/><path d="m288 408v8.12a24 24 0 0 1 -23.88 24l-16.03.08-25.09.13-31 31.67-24-16 35.2-42.24a16.006 16.006 0 0 1 12.29-5.76z" fill="#fec9a3"/><path d="m159.288 451.644 8.712 4.356 24 16-16 16-27.584-16.551a11.3 11.3 0 0 1 -2.178-17.687 11.306 11.306 0 0 1 13.05-2.118z" fill="#d6d6d4"/><path d="m208 384h112v24h-112z" fill="#ffb531"/><path d="m288 408v8.12a24 24 0 0 1 -23.88 24l-16.03.08c-.02-.13-.05-.2-.09-.2v-16a16 16 0 0 0 -16-16z" fill="#348fd9"/><path d="m288 408h32v16h-32z" fill="#4aafdb"/></g></svg>