<svg height="512" viewBox="0 0 64 64" width="512" xmlns="http://www.w3.org/2000/svg"><g id="petanque-petanque_stadium-coronavirus-virus-outbreck" data-name="petanque-petanque stadium-coronavirus-virus-outbreck"><path d="m61 41v4h-6v-4a2.006 2.006 0 0 1 2-2h2a2.006 2.006 0 0 1 2 2z" fill="#57a4ff"/><path d="m61 26v4h-6v-4a2.006 2.006 0 0 1 2-2h2a2.006 2.006 0 0 1 2 2z" fill="#ff7956"/><circle cx="58" cy="21" fill="#ffc477" r="2"/><circle cx="58" cy="36" fill="#ffc477" r="2"/><path d="m58.41 55.59a1.98 1.98 0 1 1 -1.41-.59 1.955 1.955 0 0 1 1.41.59z" fill="#d43237"/><path d="m58.12 5.88a2.994 2.994 0 1 1 -2.12-.88 2.993 2.993 0 0 1 2.12.88z" fill="#d43237"/><path d="m47 61h-30l3-43h24z" fill="#c0ab91"/><path d="m47 61h-4l-3-43h4z" fill="#a78966"/><path d="m45 10v4h-6v-4a2.006 2.006 0 0 1 2-2h2a2.006 2.006 0 0 1 2 2z" fill="#ffde55"/><path d="m40 14h4v4h-4z" fill="#ffc477"/><circle cx="42" cy="5" fill="#ffc477" r="2"/><path d="m45 10v4h-2v-4a2.006 2.006 0 0 0 -2-2h2a2.006 2.006 0 0 1 2 2z" fill="#ffd422"/><path d="m44 5a2 2 0 0 1 -3 1.73 2 2 0 0 0 0-3.46 2 2 0 0 1 3 1.73z" fill="#ffa733"/><circle cx="35" cy="41" fill="#787680" r="2"/><path d="m35 10v4h-6v-4a2.006 2.006 0 0 1 2-2h2a2.006 2.006 0 0 1 2 2z" fill="#ff3051"/><path d="m30 14h4v4h-4z" fill="#ffc477"/><circle cx="32" cy="5" fill="#ffc477" r="2"/><circle cx="32" cy="53" fill="#787680" r="2"/><path d="m34 53a2 2 0 0 1 -3 1.73 2 2 0 0 0 0-3.46 2 2 0 0 1 3 1.73z" fill="#57565c"/><path d="m37 41a2 2 0 0 1 -3 1.73 2 2 0 0 0 0-3.46 2 2 0 0 1 3 1.73z" fill="#57565c"/><circle cx="26" cy="46" fill="#787680" r="2"/><path d="m25 10v4h-6v-4a2.006 2.006 0 0 1 2-2h2a2.006 2.006 0 0 1 2 2z" fill="#9cdd05"/><path d="m20 14h4v4h-4z" fill="#ffc477"/><circle cx="22" cy="5" fill="#ffc477" r="2"/><path d="m9.12 5.88a2.994 2.994 0 1 1 -2.12-.88 2.993 2.993 0 0 1 2.12.88z" fill="#d43237"/><path d="m9 41v4h-6v-4a2.006 2.006 0 0 1 2-2h2a2.006 2.006 0 0 1 2 2z" fill="#ff7956"/><path d="m9 26v4h-6v-4a2.006 2.006 0 0 1 2-2h2a2.006 2.006 0 0 1 2 2z" fill="#57a4ff"/><path d="m8.41 55.59a1.994 1.994 0 1 1 -2.82 2.82 1.994 1.994 0 1 1 2.82-2.82z" fill="#d43237"/><circle cx="6" cy="21" fill="#ffc477" r="2"/><circle cx="6" cy="36" fill="#ffc477" r="2"/><g fill="#ab2300"><path d="m59 57a2.015 2.015 0 0 1 -2 2 2 2 0 0 1 -1-.27 1.813 1.813 0 0 0 .41-.32 1.98 1.98 0 0 0 0-2.82 1.813 1.813 0 0 0 -.41-.32 2 2 0 0 1 1-.27 2.015 2.015 0 0 1 2 2z"/><path d="m9 57a2.015 2.015 0 0 1 -2 2 2 2 0 0 1 -1-.27 1.813 1.813 0 0 0 .41-.32 1.98 1.98 0 0 0 0-2.82 1.813 1.813 0 0 0 -.41-.32 2 2 0 0 1 1-.27 2.015 2.015 0 0 1 2 2z"/><path d="m59 8a3 3 0 0 1 -3 3 3.026 3.026 0 0 1 -1.5-.4 3.3 3.3 0 0 0 .62-.48 2.994 2.994 0 0 0 0-4.24 3.3 3.3 0 0 0 -.62-.48 3.026 3.026 0 0 1 1.5-.4 3 3 0 0 1 3 3z"/><path d="m10 8a3 3 0 0 1 -3 3 3.026 3.026 0 0 1 -1.5-.4 3.3 3.3 0 0 0 .62-.48 2.994 2.994 0 0 0 0-4.24 3.3 3.3 0 0 0 -.62-.48 3.026 3.026 0 0 1 1.5-.4 3 3 0 0 1 3 3z"/></g><path d="m35 10v4h-2v-4a2.006 2.006 0 0 0 -2-2h2a2.006 2.006 0 0 1 2 2z" fill="#cd2a00"/><path d="m34 5a2 2 0 0 1 -3 1.73 2 2 0 0 0 0-3.46 2 2 0 0 1 3 1.73z" fill="#ffa733"/><path d="m25 10v4h-2v-4a2.006 2.006 0 0 0 -2-2h2a2.006 2.006 0 0 1 2 2z" fill="#5eac24"/><path d="m24 5a2 2 0 0 1 -3 1.73 2 2 0 0 0 0-3.46 2 2 0 0 1 3 1.73z" fill="#ffa733"/><path d="m9 26v4h-2v-4a2.006 2.006 0 0 0 -2-2h2a2.006 2.006 0 0 1 2 2z" fill="#2488ff"/><path d="m8 21a2 2 0 0 1 -3 1.73 2 2 0 0 0 0-3.46 2 2 0 0 1 3 1.73z" fill="#ffa733"/><path d="m9 41v4h-2v-4a2.006 2.006 0 0 0 -2-2h2a2.006 2.006 0 0 1 2 2z" fill="#ff5023"/><path d="m8 36a2 2 0 0 1 -3 1.73 2 2 0 0 0 0-3.46 2 2 0 0 1 3 1.73z" fill="#ffa733"/><path d="m61 26v4h-2v-4a2.006 2.006 0 0 0 -2-2h2a2.006 2.006 0 0 1 2 2z" fill="#ff5023"/><path d="m60 21a2 2 0 0 1 -3 1.73 2 2 0 0 0 0-3.46 2 2 0 0 1 3 1.73z" fill="#ffa733"/><path d="m61 41v4h-2v-4a2.006 2.006 0 0 0 -2-2h2a2.006 2.006 0 0 1 2 2z" fill="#2488ff"/><path d="m60 36a2 2 0 0 1 -3 1.73 2 2 0 0 0 0-3.46 2 2 0 0 1 3 1.73z" fill="#ffa733"/><path d="m28 46a2 2 0 0 1 -3 1.73 2 2 0 0 0 0-3.46 2 2 0 0 1 3 1.73z" fill="#57565c"/><path d="m32 50a3 3 0 1 0 3 3 3 3 0 0 0 -3-3zm0 4a1 1 0 1 1 1-1 1 1 0 0 1 -1 1z"/><path d="m26 43a3 3 0 1 0 3 3 3 3 0 0 0 -3-3zm0 4a1 1 0 1 1 1-1 1 1 0 0 1 -1 1z"/><path d="m35 38a3 3 0 1 0 3 3 3 3 0 0 0 -3-3zm0 4a1 1 0 1 1 1-1 1 1 0 0 1 -1 1z"/><path d="m2 45a1 1 0 0 0 1 1h6a1 1 0 0 0 1-1v-4a3 3 0 0 0 -1.969-2.806 3 3 0 1 0 -4.062 0 3 3 0 0 0 -1.969 2.806zm6-1h-4v-3a1 1 0 0 1 1-1h2a1 1 0 0 1 1 1zm-2-9a1 1 0 1 1 -1 1 1 1 0 0 1 1-1z"/><path d="m2 26v4a1 1 0 0 0 1 1h6a1 1 0 0 0 1-1v-4a3 3 0 0 0 -1.969-2.806 3 3 0 1 0 -4.062 0 3 3 0 0 0 -1.969 2.806zm6 3h-4v-3a1 1 0 0 1 1-1h2a1 1 0 0 1 1 1zm-2-9a1 1 0 1 1 -1 1 1 1 0 0 1 1-1z"/><path d="m60.031 38.194a3 3 0 1 0 -4.062 0 3 3 0 0 0 -1.969 2.806v4a1 1 0 0 0 1 1h6a1 1 0 0 0 1-1v-4a3 3 0 0 0 -1.969-2.806zm-2.031-3.194a1 1 0 1 1 -1 1 1 1 0 0 1 1-1zm2 9h-4v-3a1 1 0 0 1 1-1h2a1 1 0 0 1 1 1z"/><path d="m60.031 23.194a3 3 0 1 0 -4.062 0 3 3 0 0 0 -1.969 2.806v4a1 1 0 0 0 1 1h6a1 1 0 0 0 1-1v-4a3 3 0 0 0 -1.969-2.806zm-2.031-3.194a1 1 0 1 1 -1 1 1 1 0 0 1 1-1zm2 9h-4v-3a1 1 0 0 1 1-1h2a1 1 0 0 1 1 1z"/><path d="m45 18v-3a1 1 0 0 0 1-1v-4a3 3 0 0 0 -1.97-2.81 2.966 2.966 0 0 0 .97-2.19 3 3 0 0 0 -6 0 2.966 2.966 0 0 0 .97 2.19 3 3 0 0 0 -1.97 2.81v4a1 1 0 0 0 1 1v2h-4v-2a1 1 0 0 0 1-1v-4a3 3 0 0 0 -1.97-2.81 2.966 2.966 0 0 0 .97-2.19 3 3 0 0 0 -6 0 2.966 2.966 0 0 0 .97 2.19 3 3 0 0 0 -1.97 2.81v4a1 1 0 0 0 1 1v2h-4v-2a1 1 0 0 0 1-1v-4a3 3 0 0 0 -1.97-2.81 2.966 2.966 0 0 0 .97-2.19 3 3 0 0 0 -6 0 2.966 2.966 0 0 0 .97 2.19 3 3 0 0 0 -1.97 2.81v4a1 1 0 0 0 1 1v2.93l-3 43a.985.985 0 0 0 .27.75 1.007 1.007 0 0 0 .73.32h30a1.007 1.007 0 0 0 .73-.32.985.985 0 0 0 .27-.75zm-3-14a1 1 0 1 1 -1 1 1 1 0 0 1 1-1zm-2 6a1 1 0 0 1 1-1h2a1 1 0 0 1 1 1v3h-4zm3 5v2h-2v-2zm-11-11a1 1 0 1 1 -1 1 1 1 0 0 1 1-1zm-2 6a1 1 0 0 1 1-1h2a1 1 0 0 1 1 1v3h-4zm3 5v2h-2v-2zm-11-11a1 1 0 1 1 -1 1 1 1 0 0 1 1-1zm-2 6a1 1 0 0 1 1-1h2a1 1 0 0 1 1 1v3h-4zm3 5v2h-2v-2zm-4.93 45 2.86-41h22.14l2.86 41z"/><path d="m10.433 5.981 2.224-2.224-1.414-1.414-2.224 2.224a3.915 3.915 0 0 0 -1.019-.425v-2.142h-2v2.142a3.915 3.915 0 0 0 -1.019.425l-2.224-2.224-1.414 1.414 2.224 2.224a3.915 3.915 0 0 0 -.425 1.019h-2.142v2h2.142a3.915 3.915 0 0 0 .425 1.019l-2.224 2.224 1.414 1.414 2.224-2.224a3.915 3.915 0 0 0 1.019.425v2.142h2v-2.142a3.915 3.915 0 0 0 1.019-.425l2.224 2.224 1.414-1.414-2.224-2.224a3.915 3.915 0 0 0 .425-1.019h2.142v-2h-2.142a3.915 3.915 0 0 0 -.425-1.019zm-3.433 4.019a2 2 0 1 1 2-2 2 2 0 0 1 -2 2z"/><path d="m59.858 7a3.915 3.915 0 0 0 -.425-1.019l2.224-2.224-1.414-1.414-2.224 2.224a3.915 3.915 0 0 0 -1.019-.425v-2.142h-2v2.142a3.915 3.915 0 0 0 -1.019.425l-2.224-2.224-1.414 1.414 2.224 2.224a3.915 3.915 0 0 0 -.425 1.019h-2.142v2h2.142a3.915 3.915 0 0 0 .425 1.019l-2.224 2.224 1.414 1.414 2.224-2.224a3.915 3.915 0 0 0 1.019.425v2.142h2v-2.142a3.915 3.915 0 0 0 1.019-.425l2.224 2.224 1.414-1.414-2.224-2.224a3.915 3.915 0 0 0 .425-1.019h2.142v-2zm-3.858 3a2 2 0 1 1 2-2 2 2 0 0 1 -2 2z"/><path d="m9.7 55.715 1.543-1.544-1.415-1.414-1.543 1.543a2.746 2.746 0 0 0 -.285-.116v-2.184h-2v2.184a2.746 2.746 0 0 0 -.285.117l-1.543-1.544-1.414 1.414 1.542 1.544a2.746 2.746 0 0 0 -.116.285h-2.184v2h2.184a2.746 2.746 0 0 0 .117.285l-1.543 1.544 1.414 1.414 1.543-1.543a2.746 2.746 0 0 0 .285.116v2.184h2v-2.184a2.746 2.746 0 0 0 .285-.117l1.543 1.544 1.414-1.414-1.542-1.544a2.746 2.746 0 0 0 .116-.285h2.184v-2h-2.184a2.746 2.746 0 0 0 -.116-.285zm-1.7 1.285a1 1 0 1 1 -1-1 1 1 0 0 1 1 1z"/><path d="m59.7 55.715 1.543-1.544-1.414-1.414-1.544 1.543a2.746 2.746 0 0 0 -.285-.116v-2.184h-2v2.184a2.746 2.746 0 0 0 -.285.117l-1.543-1.544-1.414 1.414 1.542 1.544a2.746 2.746 0 0 0 -.117.285h-2.183v2h2.184a2.746 2.746 0 0 0 .117.285l-1.543 1.544 1.414 1.414 1.543-1.543a2.746 2.746 0 0 0 .285.117v2.183h2v-2.184a2.746 2.746 0 0 0 .285-.117l1.543 1.544 1.414-1.414-1.542-1.544a2.746 2.746 0 0 0 .116-.285h2.184v-2h-2.184a2.746 2.746 0 0 0 -.116-.285zm-1.7 1.285a1 1 0 1 1 -1-1 1 1 0 0 1 1 1z"/></g></svg>