<svg height="512pt" viewBox="0 0 512.00006 512" width="512pt" xmlns="http://www.w3.org/2000/svg"><path d="m335.449219 211.246094c0 1.5 0 12.976562-.089844 14.652344h-299.960937c-.089844-1.675782-.089844-13.152344-.089844-14.652344.007812-8.867188.683594-17.722656 2.03125-26.484375 6.445312 7.328125 33.632812 22.6875 148.039062 22.6875s141.59375-15.359375 148.039063-22.6875c1.347656 8.761719 2.027343 17.617187 2.03125 26.484375zm0 0" fill="#7f5b53"/><path d="m333.417969 184.761719c-6.445313 7.328125-33.632813 22.6875-148.039063 22.6875s-141.59375-15.359375-148.039062-22.6875c.179687-1.574219.445312-3.136719.796875-4.679688.351562-2.207031.792969-4.414062 1.234375-6.621093h292.015625c.441406 2.207031.882812 4.414062 1.238281 6.621093.347656 1.542969.613281 3.105469.792969 4.679688zm0 0" fill="#59474e"/><path d="m211.863281 397.242188h8.207031l50.671876.707031c.925781-.019531 1.847656.097656 2.738281.351562 32.394531 3.441407 59.761719 16.773438 75.210937 39.988281l12.09375 32.042969c.792969 5.023438 1.175782 10.101563 1.144532 15.183594v8.828125c-.027344 9.738281-7.914063 17.628906-17.652344 17.65625h-317.792969c-9.742187-.027344-17.628906-7.917969-17.65625-17.65625v-8.828125c0-52.609375 38.222656-81.917969 88.453125-87.214844.886719-.253906 1.8125-.371093 2.734375-.351562l50.671875-.707031zm0 0" fill="#3f5c6c"/><path d="m273.65625 397.242188-17.65625 114.757812h-141.242188l-17.65625-114.757812zm0 0" fill="#bdc3c7"/><path d="m211.863281 350.71875v58.261719l-26.484375 38.046875-26.480468-38.046875v-58.261719zm0 0" fill="#fdd7ad"/><path d="m185.378906 447.027344-32.132812 38.488281-56.144532-92.335937 34.078126-13.0625c3.496093-1.332032 7.449218-.136719 9.621093 2.910156l18.097657 25.953125zm0 0" fill="#ecf0f1"/><path d="m273.65625 393.179688-56.144531 92.335937-32.132813-38.488281 26.484375-38.046875 18.09375-25.953125c2.171875-3.046875 6.128907-4.242188 9.625-2.910156zm0 0" fill="#ecf0f1"/><path d="m473.546875 389.296875 26.28125-26.277344c5.242187-5.472656 8.945313-12.234375 10.734375-19.597656 2.4375-9.425781 2.996094-21.472656-8.425781-24.90625-4.332031-1.105469-8.898438-.886719-13.109375.621094-7.6875 2.59375-14.675782 6.933593-20.410156 12.671875l-100.121094 100.117187c-.375.375-51.1875 16.105469-51.1875 16.105469-1.207032.46875-2.101563 1.507812-2.390625 2.769531-.285157 1.265625.070312 2.589844.957031 3.535157l18.726562 18.726562c.84375.855469 2.0625 1.230469 3.246094.996094l59.484375-9.671875c.855469-.117188 1.644531-.511719 2.246094-1.125l37.828125-37.828125zm0 0" fill="#bdc3c7"/><path d="m470.027344 367.84375 5.058594 41.941406 2.542968 20.957032 2.945313 24.320312c.148437 1.183594-.253907 2.367188-1.097657 3.210938l-18.015624 18.015624c-1.050782.96875-2.523438 1.324219-3.902344.949219s-2.464844-1.433593-2.878906-2.800781l-23.824219-67.414062zm0 0" fill="#ecf0f1"/><path d="m400.507812 399.914062-25.632812-12.082031c-3.765625-1.777343-5.742188-6.476562-3.617188-8.605469l19.363282-19.363281c1.015625-.878906 2.433594-1.132812 3.691406-.660156l36.539062 10.363281zm0 0" fill="#95a5a5"/><path d="m211.863281 350.71875v13.242188c-17.511719 3.179687-35.453125 3.179687-52.964843 0v-13.242188zm0 0" fill="#f09372"/><path d="m317.175781 220.691406h18.273438c9.71875.070313 17.585937 7.933594 17.652343 17.652344-.027343 9.738281-7.914062 17.628906-17.652343 17.65625h-300.140625c-9.738282-.027344-17.625-7.917969-17.652344-17.65625.070312-9.71875 7.933594-17.582031 17.652344-17.652344zm0 0" fill="#f09372"/><path d="m317.792969 232.078125c-.011719 4.1875-.25 8.371094-.707031 12.535156-6.882813 60.996094-63.203126 108.488281-131.707032 108.488281-68.5 0-124.820312-47.492187-131.707031-108.488281-.457031-4.164062-.695313-8.347656-.707031-12.535156.019531-7.019531.667968-14.019531 1.941406-20.921875.796875-3.882812 1.765625-7.769531 2.914062-11.566406.441407-1.144532.972657-2.292969 1.589844-3.617188 1.589844-3.53125 3.53125-7.503906 5.824219-11.652344h240.289063c2.292968 4.148438 4.238281 8.121094 5.824218 11.652344.621094 1.324219 1.148438 2.472656 1.589844 3.617188 1.148438 3.796875 2.117188 7.683594 2.914062 11.566406 1.273438 6.902344 1.925782 13.902344 1.941407 20.921875zm0 0" fill="#fdd7ad"/><path d="m311.347656 195.972656c-20.214844 6.003906-57.464844 11.476563-125.96875 11.476563-68.5 0-105.753906-5.472657-125.96875-11.476563 1.589844-3.53125 3.53125-7.503906 5.824219-11.652344h240.289063c2.292968 4.148438 4.238281 8.121094 5.824218 11.652344zm0 0" fill="#f09372"/><path d="m35.308594 167.722656s0 26.484375 150.070312 26.484375c150.070313 0 150.070313-26.484375 150.070313-26.484375l-150.070313-48.550781zm0 0" fill="#2c3e50"/><path d="m335.449219 150.070312s35.308593 0 35.308593-44.140624c0-44.136719-52.964843-105.929688-185.378906-105.929688-132.414062 0-185.378906 61.792969-185.378906 105.929688 0 44.140624 35.308594 44.140624 35.308594 44.140624zm0 0" fill="#3f5c6c"/><path d="m185.378906 61.792969c52.964844.007812 70.621094 35.308593 70.621094 35.308593 32.660156 6.535157 60.484375 13.066407 72.75 16.019532 3.949219.957031 6.722656 4.503906 6.699219 8.570312v46.03125c-49.367188-10.53125-99.605469-16.441406-150.070313-17.652344-50.460937 1.210938-100.703125 7.121094-150.070312 17.652344v-46.03125c-.023438-4.066406 2.75-7.613281 6.699218-8.570312 12.265626-2.953125 40.089844-9.484375 72.75-16.019532 0 0 17.65625-35.300781 70.621094-35.308593zm0 0" fill="#f0c419"/><g fill="#2c3e50"><path d="m185.378906 132.414062c-4.875 0-8.828125-3.953124-8.828125-8.828124v-26.484376c0-4.875 3.953125-8.824218 8.828125-8.824218s8.828125 3.949218 8.828125 8.824218v26.484376c0 4.875-3.953125 8.828124-8.828125 8.828124zm0 0"/><path d="m211.863281 105.929688h-52.964843c-4.878907 0-8.828126-3.949219-8.828126-8.828126 0-4.875 3.949219-8.824218 8.828126-8.824218h52.964843c4.875 0 8.828125 3.949218 8.828125 8.824218 0 4.878907-3.953125 8.828126-8.828125 8.828126zm0 0"/></g></svg>