<svg id="Capa_1" enable-background="new 0 0 511.527 511.527" height="512" viewBox="0 0 511.527 511.527" width="512" xmlns="http://www.w3.org/2000/svg"><path d="m157.546 424.635h-42.676v-22.028h13.244c4.143 0 7.5-3.358 7.5-7.5s-3.357-7.5-7.5-7.5h-13.244v-3.821c0-4.142-3.357-7.5-7.5-7.5s-7.5 3.358-7.5 7.5v3.821h-20.698v-22.029h16.973c4.143 0 7.5-3.358 7.5-7.5s-3.357-7.5-7.5-7.5h-55.758v-28.368c0-4.142-3.357-7.5-7.5-7.5s-7.5 3.358-7.5 7.5v28.367h-6.887c-4.143 0-7.5 3.358-7.5 7.5s3.357 7.5 7.5 7.5h6.887v22.029h-6.887c-4.143 0-7.5 3.358-7.5 7.5s3.357 7.5 7.5 7.5h6.887v22.028h-6.887c-4.143 0-7.5 3.358-7.5 7.5s3.357 7.5 7.5 7.5h6.887v29.529c0 4.142 3.357 7.5 7.5 7.5s7.5-3.358 7.5-7.5v-29.529h23.785v29.529c0 4.142 3.357 7.5 7.5 7.5s7.5-3.358 7.5-7.5v-29.529h20.698v29.529c0 4.142 3.357 7.5 7.5 7.5s7.5-3.358 7.5-7.5v-29.529h42.676c4.143 0 7.5-3.358 7.5-7.5s-3.358-7.499-7.5-7.499zm-117.159-59.057h23.785v22.029h-23.785zm0 59.057v-22.028h23.785v22.028zm38.785 0v-22.028h20.698v22.028z" fill="#ebebeb"/><path d="m408.777 412.655c-4.143 0-7.5 3.358-7.5 7.5v4.48h-19.804v-18.549c0-4.142-3.357-7.5-7.5-7.5s-7.5 3.358-7.5 7.5v18.549h-21.833v-33.349c0-4.142-3.357-7.5-7.5-7.5s-7.5 3.358-7.5 7.5v33.349h-52.755c-4.143 0-7.5 3.358-7.5 7.5s3.357 7.5 7.5 7.5h14.922v29.529c0 4.142 3.357 7.5 7.5 7.5s7.5-3.358 7.5-7.5v-29.529h22.833v29.529c0 4.142 3.357 7.5 7.5 7.5s7.5-3.358 7.5-7.5v-29.529h21.833v29.529c0 4.142 3.357 7.5 7.5 7.5s7.5-3.358 7.5-7.5v-29.529h19.804v29.529c0 4.142 3.357 7.5 7.5 7.5s7.5-3.358 7.5-7.5v-49.009c0-4.142-3.357-7.5-7.5-7.5z" fill="#ebebeb"/><path d="m491.428 402.606c4.143 0 7.5-3.358 7.5-7.5s-3.357-7.5-7.5-7.5h-4.887v-22.029h4.887c4.143 0 7.5-3.358 7.5-7.5s-3.357-7.5-7.5-7.5h-4.887v-28.367c0-4.142-3.357-7.5-7.5-7.5s-7.5 3.358-7.5 7.5v28.367h-19.497v-29.215c0-4.142-3.357-7.5-7.5-7.5s-7.5 3.358-7.5 7.5v29.215h-20.767v-29.215c0-4.142-3.357-7.5-7.5-7.5s-7.5 3.358-7.5 7.5v29.215h-19.804v-29.215c0-4.142-3.357-7.5-7.5-7.5s-7.5 3.358-7.5 7.5v29.215h-45.201c-4.143 0-7.5 3.358-7.5 7.5s3.357 7.5 7.5 7.5h45.201v13.005c0 4.142 3.357 7.5 7.5 7.5s7.5-3.358 7.5-7.5v-13.005h19.804v11.67c0 4.142 3.357 7.5 7.5 7.5s7.5-3.358 7.5-7.5v-11.67h20.767v22.029h-1.23c-4.143 0-7.5 3.358-7.5 7.5s3.357 7.5 7.5 7.5h35.728v22.028h-13.446c-4.143 0-7.5 3.358-7.5 7.5 0 .414.042.818.107 1.214-1.354-1.947-3.605-3.224-6.158-3.224-4.143 0-7.5 3.358-7.5 7.5v31.539c0 4.142 3.357 7.5 7.5 7.5s7.5-3.358 7.5-7.5v-31.539c0-.414-.042-.818-.107-1.214 1.354 1.947 3.605 3.224 6.158 3.224h13.446v29.529c0 4.142 3.357 7.5 7.5 7.5s7.5-3.358 7.5-7.5v-29.529h4.887c4.143 0 7.5-3.358 7.5-7.5s-3.357-7.5-7.5-7.5h-4.887v-22.028zm-39.384-15v-22.029h19.497v22.029z" fill="#ebebeb"/><path d="m13.7 321.363h483.707c3.424 0 6.2-2.776 6.2-6.2v-29.435c0-3.424-2.776-6.2-6.2-6.2h-483.707c-3.424 0-6.2 2.776-6.2 6.2v29.435c0 3.424 2.776 6.2 6.2 6.2z" fill="#cecece"/><g fill="#fef48b"><path d="m321.882 122.866c-1.919 0-3.839-.732-5.304-2.197-2.929-2.929-2.929-7.678 0-10.606l55.771-55.772c2.93-2.929 7.678-2.929 10.607 0s2.929 7.678 0 10.606l-55.771 55.772c-1.464 1.464-3.384 2.197-5.303 2.197z"/><path d="m392.32 219.117c-1.92 0-3.839-.732-5.304-2.197-2.929-2.929-2.929-7.678 0-10.606l68.679-68.678c2.931-2.93 7.679-2.929 10.607 0s2.929 7.678 0 10.606l-68.679 68.678c-1.464 1.465-3.384 2.197-5.303 2.197z"/><path d="m367.224 244.214c-1.92 0-3.839-.732-5.304-2.197-2.929-2.929-2.929-7.678.001-10.606l9.322-9.322c2.929-2.93 7.678-2.929 10.606 0 2.929 2.929 2.929 7.678-.001 10.606l-9.322 9.322c-1.463 1.464-3.383 2.197-5.302 2.197z"/><path d="m358.712 206.303c-1.919 0-3.839-.732-5.304-2.197-2.929-2.929-2.929-7.678 0-10.606l41.708-41.708c2.93-2.929 7.678-2.929 10.607 0s2.929 7.678 0 10.606l-41.708 41.708c-1.464 1.464-3.384 2.197-5.303 2.197z"/><path d="m313.958 190.948c-1.919 0-3.839-.732-5.304-2.197-2.929-2.929-2.929-7.678 0-10.606l53.738-53.739c2.93-2.929 7.678-2.929 10.607 0s2.929 7.678 0 10.606l-53.738 53.739c-1.464 1.464-3.384 2.197-5.303 2.197z"/></g><path d="m345.501 283.86c-11.145-41.059-40.712-77.09-83.457-95.409-73.33-31.44-157.67 1.15-188.38 72.79-30.71 71.63 3.84 155.19 77.17 186.62 46.408 19.896 97.219 14.142 136.061-10.92z" fill="#fe646f"/><path d="m345.501 283.86c-11.145-41.059-40.712-77.09-83.457-95.409-73.33-31.44-157.67 1.15-188.38 72.79-30.71 71.63 3.84 155.19 77.17 186.62 46.408 19.896 97.219 14.142 136.061-10.92z" fill="#fe646f"/><path d="m209.066 404.546c-73.33-31.43-107.88-114.99-77.17-186.62 4.889-11.405 11.142-21.816 18.489-31.141-33.437 13.35-61.591 39.158-76.721 74.455-30.71 71.63 3.84 155.19 77.17 186.62 46.408 19.896 97.219 14.142 136.061-10.92l8.928-23.32c-28.049 5.68-58.233 3.155-86.757-9.074z" fill="#fd4755"/><path d="m460.334 399.351c8.64 3.7 12.64 13.7 8.94 22.34l-6.62 15.43c-3.7 8.64-13.7 12.64-22.34 8.93l-113.26-48.55c-21.47 32.13-55.15 53.26-92.33 60.01l95.72-209.22c18.07 30.49 24.6 67.06 16.63 102.51z" fill="#fccd7f"/><path d="m460.334 399.351c8.64 3.7 12.64 13.7 8.94 22.34l-6.62 15.43c-3.7 8.64-13.7 12.64-22.34 8.93l-113.26-48.55c-21.47 32.13-55.15 53.26-92.33 60.01l95.72-209.22c18.07 30.49 24.6 67.06 16.63 102.51z" fill="#fccd7f"/><path d="m253.757 415.909-19.033 41.602c33.717-6.121 64.554-24.069 86.019-51.321-20.894 8.349-43.847 11.837-66.986 9.719z" fill="#e9b665"/><path d="m504.027 476.664h-496.527c-4.143 0-7.5-3.358-7.5-7.5s3.357-7.5 7.5-7.5h496.527c4.143 0 7.5 3.358 7.5 7.5s-3.357 7.5-7.5 7.5z" fill="#cecece"/><path d="m466.303 54.291c-25.904-25.902-68.049-25.902-93.953 0-25.901 25.902-25.901 68.049 0 93.952 12.952 12.951 29.964 19.427 46.977 19.427s34.024-6.476 46.977-19.427c25.9-25.903 25.9-68.05-.001-93.952z" fill="#fd9468"/><path d="m455.98 131.015c-17.013 0-34.024-6.476-46.977-19.427-19.403-19.404-24.269-47.922-14.602-71.9-8.031 3.238-15.553 8.104-22.052 14.603-25.901 25.902-25.901 68.049 0 93.952 12.952 12.951 29.964 19.427 46.977 19.427s34.024-6.476 46.977-19.427c6.499-6.499 11.365-14.021 14.602-22.052-7.974 3.214-16.449 4.824-24.925 4.824z" fill="#fe7d43"/></svg>