<svg id="Layer_1" enable-background="new 0 0 512.006 512.006" height="512" viewBox="0 0 512.006 512.006" width="512" xmlns="http://www.w3.org/2000/svg"><g><g clip-rule="evenodd" fill-rule="evenodd"><path d="m159.641 104.525 19.117-15.337c3.915-3.141 7.451-8.156 4.069-15.3l-27.297-57.669c-2.12-4.48-6.655-7.336-11.449-5.81l-26.149 8.324c-4.794 1.526-6.843 6.478-5.984 11.359l11.062 62.836c1.37 7.783 7.154 9.833 12.165 10.132z" fill="#ffc144"/><path d="m175.206 153.424c-2.008.639-3.949 1.611-5.743 2.926l-36.922 27.114c11.848 6.944 19.804 19.81 19.804 34.534 0 .146-.001.293-.006.441l35.308-25.929 5.409-3.972c8.888-6.515 10.812-19.003 4.297-27.891-5.2-7.095-14.205-9.752-22.147-7.223z" fill="#ffdcd5"/><path d="m152.345 217.998c0-14.724-7.956-27.59-19.804-34.534-5.928-3.474-12.829-5.466-20.196-5.466-22.091 0-40 17.909-40 40 0 7.377 1.997 14.289 5.481 20.222 6.947 11.833 19.805 19.778 34.519 19.778 11.511 0 21.886-4.862 29.184-12.645 6.616-7.055 10.702-16.509 10.814-26.917.001-.146.002-.292.002-.438z" fill="#ffdcd5"/><path d="m141.529 245.353c-7.298 7.783-17.673 12.645-29.184 12.645-14.714 0-27.572-7.944-34.519-19.778-16.391 23.61-30.391 69.946-26.391 103.778h73.26v-51.189l16.296 13.25 25.971-31.94z" fill="#ff5d7d"/><path d="m166.961 272.12-25.971 31.94 5.645 4.59c6.043 4.521 14.899 7.061 23.679 4.278l50.485-16.185c.008-.003.017-.005.025-.008 10.469-3.332 16.264-14.516 12.944-24.992-3.322-10.485-14.515-16.291-25-12.969l-.025.008z" fill="#ffdcd5"/><path d="m373.641 104.525 19.117-15.337c3.915-3.141 7.451-8.156 4.069-15.3l-27.297-57.669c-2.12-4.48-6.655-7.336-11.449-5.81l-26.149 8.324c-4.794 1.526-6.843 6.478-5.984 11.359l11.062 62.836c1.37 7.783 7.154 9.833 12.165 10.132z" fill="#ffc144"/><path d="m389.206 153.424c-2.008.639-3.949 1.611-5.743 2.926l-36.922 27.114c11.848 6.944 19.804 19.81 19.804 34.534 0 .146-.001.293-.006.441l35.308-25.929 5.409-3.972c8.888-6.515 10.812-19.003 4.297-27.891-5.199-7.095-14.204-9.752-22.147-7.223z" fill="#ffdcd5"/><path d="m366.345 217.998c0-14.724-7.956-27.59-19.804-34.534-5.928-3.474-12.829-5.466-20.196-5.466-22.091 0-40 17.909-40 40 0 7.377 1.997 14.289 5.481 20.222 6.947 11.833 19.805 19.778 34.519 19.778 11.511 0 21.886-4.862 29.184-12.645 6.615-7.055 10.702-16.509 10.814-26.917.002-.146.002-.292.002-.438z" fill="#ffdcd5"/><path d="m355.529 245.353c-7.298 7.783-17.673 12.645-29.184 12.645-14.714 0-27.572-7.944-34.519-19.778-16.391 23.61-30.391 69.946-26.391 103.778h73.26v-51.189l16.296 13.25 25.971-31.94z" fill="#ff5d7d"/><path d="m380.962 272.12-25.971 31.94 5.645 4.59c6.043 4.521 14.899 7.061 23.679 4.278l50.485-16.185c.008-.003.017-.005.025-.008 10.469-3.332 16.263-14.516 12.944-24.992-3.322-10.485-14.515-16.291-25-12.969l-.025.008z" fill="#ffdcd5"/><path d="m235.232 341.998h-126.292c-9.427 0-18.308-1.595-26.395-4.517-8.526-3.081-16.454-7.683-23.469-13.493-2.447-2.025-5.12-3.595-7.916-4.72-11.778-4.742-25.751-1.599-34.278 8.706-10.551 12.752-8.767 31.643 3.985 42.193 6.106 5.057 12.677 9.607 19.643 13.58 2.9-1.068 6.279-1.746 10.492-1.746 19.812 0 21.188 15 41 15s21.188-15 41-15 21.188 15 41 15 21.188-15 41-15 21.188 15 41 15c19.811 0 21.188-15 41-15s21.188 15 41 15 21.188-15 41-15 21.188 15 41 15 21.188-15 41-15c4.213 0 7.592.678 10.491 1.748 6.966-3.974 13.537-8.524 19.644-13.582 12.752-10.551 14.536-29.442 3.985-42.193-10.551-12.752-29.442-14.536-42.194-3.985-2.441 2.022-4.993 3.898-7.643 5.614-4.963 3.215-10.267 5.87-15.826 7.879-8.087 2.922-16.968 4.517-26.395 4.517h-167.832z" fill="#ffc144"/><g><path d="m297.003 442.002c19.812 0 21.188 15 41 15s21.188-15 41-15 21.188 15 41 15 21.188-15 41-15 21.188 15 41 15v-60.002c-19.812 0-21.188-15-41-15s-21.188 15-41 15-21.188-15-41-15-21.188 15-41 15-21.188-15-41-15-21.188 15-41 15-21.188-15-41-15-21.188 15-41 15-21.188-15-41-15-21.188 15-41 15-21.188-15-41-15-21.188 15-41 15v60.002c19.812 0 21.188-15 41-15s21.188 15 41 15 21.188-15 41-15 21.188 15 41 15 21.188-15 41-15 21.188 15 41 15c19.811 0 21.188-15 41-15z" fill="#99ebfa"/><path d="m338.003 457.002c-19.812 0-21.188-15-41-15s-21.188 15-41 15-21.188-15-41-15-21.188 15-41 15-21.188-15-41-15-21.188 15-41 15-21.188-15-41-15-21.188 15-41 15v44.995h492.001v-44.995c-19.812 0-21.188-15-41-15s-21.188 15-41 15-21.188-15-41-15c-19.813 0-21.189 15-41.001 15z" fill="#33d6f5"/></g></g><g><path d="m502.003 387c-5.214 0-8.299-1.358-11.666-3.556 2.453-1.788 4.849-3.646 7.176-5.573 8.225-6.806 13.308-16.407 14.312-27.036s-2.191-21.012-8.997-29.237c-12.97-15.675-35.475-18.899-52.22-8.248l-3.738-11.745c3.497-2.648 6.39-6.063 8.47-10.072 3.679-7.093 4.376-15.194 1.962-22.811-3.927-12.392-15.222-20.439-27.538-20.855l-16.412-51.559c6.234-4.723 10.32-11.555 11.514-19.303 1.218-7.908-.716-15.817-5.446-22.27s-11.69-10.677-19.598-11.896c-1.2-.185-2.4-.288-3.595-.329l-10.975-34.478 13.764-11.043c8.99-7.212 11.55-17.447 6.85-27.378l-27.296-57.668c-4.421-9.34-14.313-13.992-23.521-11.061l-26.149 8.323c-9.208 2.932-14.59 12.445-12.798 22.622l11.062 62.836c1.905 10.821 9.911 17.693 21.416 18.381l17.616 1.054 10.972 34.47-31.663 23.252c-5.904-2.458-12.373-3.822-19.157-3.822-27.57 0-50 22.43-50 50 0 6.939 1.423 13.551 3.989 19.563-14.169 23.206-26.213 61.479-25.571 94.438h-12.22l-9.675-30.393c3.497-2.648 6.39-6.063 8.47-10.072 3.679-7.093 4.376-15.194 1.962-22.811-3.927-12.391-15.221-20.44-27.538-20.855l-16.412-51.559c6.234-4.723 10.32-11.555 11.514-19.303 1.218-7.908-.716-15.817-5.446-22.27s-11.69-10.677-19.598-11.896c-1.2-.185-2.4-.288-3.595-.329l-10.975-34.478 13.764-11.043c8.991-7.212 11.551-17.447 6.851-27.378l-27.296-57.668c-4.425-9.344-14.317-13.994-23.524-11.063l-26.149 8.323c-9.208 2.932-14.59 12.445-12.799 22.622l11.062 62.836c1.905 10.821 9.911 17.693 21.416 18.381l17.616 1.054 10.972 34.47-31.663 23.253c-5.904-2.458-12.374-3.822-19.157-3.822-27.57 0-50 22.43-50 50 0 6.939 1.423 13.551 3.989 19.563-11.311 18.461-20.293 44.752-23.883 69.649-12.318-.75-24.821 4.174-33.273 14.388-6.806 8.225-10.001 18.608-8.997 29.237 1.004 10.628 6.086 20.23 14.308 27.033 2.328 1.928 4.726 3.787 7.18 5.576-3.369 2.197-6.454 3.556-11.668 3.556-5.523 0-10 4.477-10 10v104.997c0 5.523 4.477 10 10 10h492.001c5.523 0 10-4.477 10-10v-104.997c0-5.523-4.477-10-10-10zm-42.699-55.308c8.482-7.018 21.095-5.828 28.114 2.655 3.4 4.109 4.996 9.296 4.495 14.607-.501 5.31-3.041 10.107-7.153 13.51-4.616 3.823-9.55 7.322-14.683 10.474-.178-.039-.357-.077-.538-.113l-12.517-39.322c.766-.595 1.532-1.189 2.282-1.811zm-110.609-19.863 5.631 4.579c.104.085.211.168.319.249 9.502 7.108 21.721 9.279 32.722 5.793l40.968-13.134 4.975 15.628c-2.36 1.184-4.775 2.238-7.248 3.132-7.201 2.603-14.938 3.922-22.996 3.922h-54.37v-20.169zm89.541-37.066c1.651 5.212-1.245 10.795-6.489 12.457l-50.453 16.175c-4.362 1.382-8.675.501-11.967-1.115l17.514-21.54 38.947-12.434c2.526-.799 5.21-.569 7.561.651 2.352 1.219 4.086 3.281 4.887 5.806zm-62.231-51.015 20.338-14.936 13.841 43.482-26.291 8.393-15.26-16.06c3.907-6.182 6.496-13.272 7.372-20.879zm27.283-57.19c3.245 4.427 2.284 10.668-2.15 13.918l-27.807 20.42c-2.328-6.376-5.925-12.142-10.474-17.008l26.518-19.474c2.145-1.571 4.774-2.215 7.4-1.81 2.629.406 4.942 1.81 6.513 3.954zm-53.515-73.48c-2.609-.156-2.686-.591-2.913-1.884l-11.062-62.836c-.023-.129-.034-.246-.038-.349l24.561-7.817c.056.086.115.188.171.307l27.296 57.668c.562 1.187.751 1.586-1.288 3.222l-7.75 6.218-2.114-6.641c-1.675-5.262-7.297-8.173-12.562-6.496-5.263 1.675-8.171 7.299-6.496 12.562l2.114 6.641zm-23.427 94.92c16.542 0 30 13.458 30 30s-13.458 30-30 30-30-13.458-30-30 13.458-30 30-30zm-33.084 67.444c8.823 7.804 20.406 12.555 33.083 12.555 10.56 0 20.359-3.299 28.44-8.909l12.87 13.545-14.114 17.358-8.537-6.942c-2.994-2.435-7.121-2.929-10.605-1.271s-5.704 5.172-5.704 9.03v41.189h-53.913c-.526-25.128 7.907-55.752 18.48-76.555zm109.803 96.556c10.383 0 20.407-1.72 29.794-5.112 2.229-.806 4.42-1.711 6.576-2.697l9.41 29.563c-6.036 1.874-10.374 4.934-14.12 7.586-4.816 3.409-7.998 5.662-14.722 5.662-6.725 0-9.906-2.252-14.722-5.662-5.877-4.161-13.191-9.338-26.278-9.338s-20.401 5.178-26.278 9.338c-4.816 3.409-7.998 5.662-14.722 5.662s-9.906-2.252-14.722-5.662c-5.877-4.161-13.191-9.338-26.278-9.338s-20.401 5.178-26.278 9.338c-3.764 2.664-6.537 4.616-10.775 5.344l-11.04-34.684zm-268.37-40.169 5.631 4.579c.104.085.211.168.319.249 9.502 7.108 21.723 9.279 32.722 5.793l40.967-13.134 7.22 22.682h-86.86v-20.169zm89.54-37.066c1.651 5.212-1.245 10.795-6.489 12.457l-50.452 16.175c-4.363 1.382-8.676.501-11.968-1.115l17.514-21.54 38.948-12.434c5.211-1.65 10.796 1.245 12.447 6.457zm-62.231-51.015 20.338-14.936 13.841 43.482-26.291 8.393-15.259-16.06c3.907-6.182 6.496-13.272 7.371-20.879zm27.284-57.19c3.245 4.427 2.284 10.668-2.15 13.918l-27.806 20.421c-2.328-6.376-5.925-12.142-10.474-17.008l26.518-19.474c2.145-1.571 4.773-2.215 7.4-1.81s4.94 1.809 6.512 3.953zm-53.516-73.479c-2.609-.156-2.686-.592-2.913-1.884l-11.062-62.836c-.023-.129-.034-.246-.038-.349l24.561-7.818c.056.086.115.188.171.307l27.296 57.668c.562 1.186.75 1.585-1.289 3.222l-7.75 6.218-2.114-6.641c-1.674-5.262-7.298-8.173-12.562-6.496-5.263 1.675-8.171 7.299-6.496 12.562l2.114 6.641zm-23.427 94.919c16.542 0 30 13.458 30 30s-13.458 30-30 30-30-13.458-30-30 13.458-30 30-30zm-33.11 67.421c8.826 7.818 20.42 12.579 33.11 12.579 10.56 0 20.36-3.3 28.44-8.909l12.87 13.545-14.114 17.358-8.537-6.942c-2.994-2.435-7.121-2.929-10.605-1.271s-5.704 5.172-5.704 9.03v41.189h-5.754c-8.059 0-15.795-1.319-22.996-3.922-7.362-2.661-14.256-6.627-20.493-11.793-1.185-.98-2.413-1.872-3.672-2.693 2.434-19.958 9.026-41.712 17.455-58.171zm-54.648 78.929c7.019-8.484 19.631-9.674 28.111-2.658 8.014 6.637 16.912 11.75 26.448 15.196 9.387 3.392 19.411 5.112 29.794 5.112h118.981l8.245 25.902c-5.095-3.121-11.577-5.901-21.163-5.901-13.087 0-20.401 5.178-26.278 9.338-4.816 3.409-7.998 5.662-14.722 5.662s-9.906-2.252-14.722-5.662c-5.877-4.161-13.191-9.338-26.278-9.338s-20.401 5.178-26.278 9.338c-4.816 3.409-7.998 5.662-14.722 5.662s-9.906-2.252-14.722-5.662c-5.877-4.16-13.191-9.337-26.279-9.337-3.389 0-6.384.352-9.074.939-5.133-3.152-10.067-6.652-14.686-10.477-4.109-3.4-6.648-8.197-7.15-13.507-.501-5.311 1.095-10.498 4.495-14.607zm-4.585 157.649v-25.922c7.709-1.676 12.858-5.328 17.211-8.422 4.787-3.403 7.949-5.651 14.623-5.651s9.836 2.248 14.623 5.651c5.86 4.166 13.152 9.35 26.21 9.35s20.351-5.184 26.211-9.35c4.787-3.403 7.949-5.651 14.623-5.651 6.673 0 9.836 2.248 14.623 5.651 5.86 4.166 13.153 9.35 26.21 9.35s20.351-5.184 26.211-9.349c4.001-2.844 6.892-4.898 11.663-5.48 5.482-.668 9.384-5.655 8.715-11.137-.668-5.482-5.649-9.388-11.137-8.715-9.803 1.196-15.916 5.54-20.828 9.031-4.788 3.402-7.951 5.65-14.625 5.65-6.673 0-9.836-2.248-14.623-5.651-5.86-4.166-13.153-9.35-26.21-9.35s-20.351 5.184-26.21 9.35c-4.787 3.403-7.949 5.651-14.623 5.651-6.673 0-9.835-2.248-14.623-5.65-5.86-4.166-13.152-9.35-26.21-9.35s-20.351 5.184-26.21 9.35c-2.036 1.448-3.78 2.683-5.624 3.629v-39.127c7.193-1.76 12.098-5.233 16.278-8.192 4.816-3.409 7.998-5.662 14.722-5.662s9.906 2.252 14.722 5.662c5.877 4.159 13.191 9.337 26.278 9.337s20.401-5.178 26.278-9.338c4.816-3.409 7.998-5.662 14.722-5.662 6.725 0 9.906 2.252 14.722 5.662 5.877 4.161 13.191 9.338 26.278 9.338s20.401-5.178 26.278-9.338c4.816-3.409 7.998-5.662 14.722-5.662s9.906 2.252 14.722 5.662c5.877 4.161 13.191 9.338 26.278 9.338s20.401-5.178 26.278-9.338c4.816-3.409 7.998-5.662 14.722-5.662 6.725 0 9.906 2.252 14.722 5.662 5.877 4.161 13.191 9.338 26.278 9.338s20.401-5.178 26.278-9.338c4.816-3.409 7.998-5.662 14.722-5.662s9.906 2.252 14.722 5.662c5.877 4.161 13.191 9.338 26.278 9.338s20.401-5.178 26.278-9.338c4.816-3.409 7.998-5.662 14.722-5.662s9.906 2.252 14.722 5.662c4.18 2.959 9.085 6.432 16.278 8.192v39.127c-1.844-.946-3.587-2.181-5.624-3.629-5.86-4.166-13.152-9.35-26.21-9.35s-20.351 5.184-26.21 9.35c-4.787 3.403-7.95 5.651-14.623 5.651s-9.836-2.248-14.623-5.651c-5.86-4.166-13.153-9.35-26.21-9.35s-20.351 5.184-26.21 9.35c-4.787 3.403-7.949 5.651-14.623 5.651s-9.837-2.248-14.625-5.651c-4.913-3.492-11.028-7.837-20.836-9.032-5.475-.661-10.468 3.235-11.136 8.718-.667 5.482 3.235 10.468 8.718 11.136 4.774.581 7.666 2.636 11.667 5.481 5.86 4.165 13.154 9.349 26.211 9.349s20.351-5.184 26.21-9.35c4.787-3.403 7.949-5.651 14.623-5.651 6.673 0 9.836 2.248 14.623 5.651 5.86 4.166 13.153 9.35 26.21 9.35s20.351-5.184 26.21-9.35c4.787-3.403 7.95-5.651 14.623-5.651s9.836 2.248 14.623 5.651c4.353 3.094 9.502 6.746 17.211 8.422v25.922h-471.999z"/><path d="m256.003 447.002h-.007c-5.523 0-9.996 4.477-9.996 10s4.48 10 10.003 10 10-4.477 10-10-4.477-10-10-10z"/></g></g></svg>