<svg id="Layer_3" enable-background="new 0 0 64 64" height="512" viewBox="0 0 64 64" width="512" xmlns="http://www.w3.org/2000/svg"><g><path d="m56 49h4c1.105 0 2-.895 2-2v-10c0-2.209-1.791-4-4-4h-17.983l-3.171-11.099c-.491-1.717-2.06-2.901-3.846-2.901h-23.983c-1.786 0-3.355 1.184-3.846 2.901l-3.171 11.099v14c0 1.105.895 2 2 2h2" fill="#b52f28"/><path d="m40.017 33-3.143-11h-27.874c-1.105 0-2 .895-2 2v13c0 1.105.895 2 2 2h40c1.105 0 2-.895 2-2v-4z" fill="#d23f34"/><path d="m43 53h-24-12-3.5c-.828 0-1.5.672-1.5 1.5 0 .828.672 1.5 1.5 1.5h3c.828 0 1.5.672 1.5 1.5 0 .828-.672 1.5-1.5 1.5-.828 0-1.5.672-1.5 1.5 0 .828.672 1.5 1.5 1.5h40c.828 0 1.5-.672 1.5-1.5 0-.828.672-1.5 1.5-1.5h5c.828 0 1.5-.672 1.5-1.5 0-.828.672-1.5 1.5-1.5h3c.828 0 1.5-.672 1.5-1.5 0-.828-.672-1.5-1.5-1.5h-5.5" fill="#5ed3f2"/><path d="m42 56h-32c-.552 0-1-.448-1-1 0-.552.448-1 1-1h32c.552 0 1 .448 1 1 0 .552-.448 1-1 1z" fill="#95ebfc"/><path d="m46 61h-32c-.552 0-1-.448-1-1 0-.552.448-1 1-1h32c.552 0 1 .448 1 1 0 .552-.448 1-1 1z" fill="#95ebfc"/><circle cx="13" cy="49" fill="#8389b2" r="7"/><circle cx="13" cy="49" fill="#61668c" r="4"/><g><path d="m4 8h2v7h-2z" fill="#8389b2"/></g><g><path d="m13 11h2v4h-2z" fill="#8389b2"/></g><path d="m31 16 4.575-9.15c.26-.521.793-.85 1.375-.85h.1c.582 0 1.115.329 1.375.85l3.883 7.734v3.234" fill="#7bdf45"/><path d="m58 21-7.604-18.059c-.24-.57-.798-.941-1.417-.941-.597 0-1.141.346-1.393.887l-6.586 14.113" fill="#6bc13b"/><circle cx="13" cy="49" fill="#d4d9f0" r="3"/><path d="m18 34h-12l2.598-9.526c.237-.87 1.028-1.474 1.93-1.474h7.472z" fill="#e2e7f6"/><path d="m22 34h14l-2.598-9.526c-.237-.87-1.028-1.474-1.93-1.474h-9.472z" fill="#e2e7f6"/><g fill="#8389b2"><path d="m26 34v-5c0-1.105-.895-2-2-2h-2v7z"/><path d="m9 27h-1.091l-1.909 7h5v-5c0-1.105-.895-2-2-2z"/><path d="m29.969 34h2.062l.939-3.757-1.94-.486z"/></g><path d="m62 37c0-2.209-1.791-4-4-4h-1v4c0 1.105.895 2 2 2h3z" fill="#f6b940"/><path d="m2 37h4v6h-4" fill="#d23f34"/><g><path d="m12 48h2v2h-2z" fill="#61668c"/></g><g><path d="m15 36h4v2h-4z" fill="#d23f34"/></g><g><path d="m21 36h4v2h-4z" fill="#d23f34"/></g><g><path d="m61.73 22.963c-16.5-4.62-33.555-6.963-50.691-6.963h-10.039v-2h10.039c17.318 0 34.555 2.368 51.231 7.037z" fill="#61668c"/></g><circle cx="27" cy="5" fill="#f6b940" r="3"/><ellipse cx="5" cy="6" fill="#6bc13b" rx="3" ry="4"/><ellipse cx="14" cy="8" fill="#6bc13b" rx="3" ry="4"/><path d="m50.396 2.941c-.24-.57-.798-.941-1.417-.941-.597 0-1.141.346-1.393.887l-.988 2.117v8.422c0 .923.632 1.727 1.53 1.944l8.352 2.02z" fill="#7bdf45"/><path d="m4 42c-.552 0-1-.448-1-1v-2c0-.552.448-1 1-1 .552 0 1 .448 1 1v2c0 .552-.448 1-1 1z" fill="#f8ced7"/><circle cx="49" cy="49" fill="#8389b2" r="7"/><circle cx="49" cy="49" fill="#61668c" r="4"/><circle cx="49" cy="49" fill="#d4d9f0" r="3"/><g><path d="m48 48h2v2h-2z" fill="#61668c"/></g><path d="m41 45h-19c-.552 0-1-.448-1-1 0-.552.448-1 1-1h19c.552 0 1 .448 1 1 0 .552-.448 1-1 1z" fill="#d23f34"/></g></svg>