<svg id="Flat" height="512" viewBox="0 0 512 512" width="512" xmlns="http://www.w3.org/2000/svg"><path d="m348.115 256.046 59.885 23.954-23.954 59.885a32 32 0 0 1 -29.711 20.115h-189.825a184 184 0 0 1 136.41-303.97c57.01-.94 104.72 24.06 139.08 63.97l-90.763 32.415a32 32 0 0 0 -21.237 30.136v43.784a32 32 0 0 0 20.115 29.711z" fill="#eb423f"/><circle cx="248" cy="152" fill="#dadcde" r="16"/><path d="m286.65 439.33c-.73 2.98-1.55 5.95-2.43 8.89-2.94.88-5.91 1.7-8.89 2.43-65.02 16.13-138.02-2.27-190.37-54.61s-70.74-125.35-54.61-190.37c.73-2.98 1.55-5.95 2.43-8.89 2.94-.88 5.91-1.7 8.89-2.43 65.02-16.13 138.02 2.27 190.37 54.61s70.74 125.35 54.61 190.37z" fill="#d49073"/><path d="m286.65 439.33c-.73 2.98-1.55 5.95-2.43 8.89-2.94.88-5.91 1.7-8.89 2.43l-244.98-244.98c.73-2.98 1.55-5.95 2.43-8.89 2.94-.88 5.91-1.7 8.89-2.43z" fill="#dadcde"/><g fill="#e9eef2"><path d="m113.245 307.873a8 8 0 0 1 -5.657-13.657l22.628-22.628a8 8 0 0 1 11.313 11.312l-22.629 22.629a7.977 7.977 0 0 1 -5.655 2.344z"/><path d="m135.873 330.5a8 8 0 0 1 -5.657-13.657l22.627-22.627a8 8 0 0 1 11.314 11.313l-22.628 22.628a7.974 7.974 0 0 1 -5.656 2.343z"/><path d="m158.5 353.127a8 8 0 0 1 -5.657-13.656l22.628-22.628a8 8 0 0 1 11.313 11.314l-22.627 22.627a7.976 7.976 0 0 1 -5.657 2.343z"/><path d="m181.127 375.755a8 8 0 0 1 -5.656-13.657l22.629-22.627a8 8 0 0 1 11.314 11.313l-22.628 22.628a7.974 7.974 0 0 1 -5.659 2.343z"/><path d="m147.519 197.717-113.8 113.8a199.734 199.734 0 0 1 -7.819-37.44l84.177-84.177a199.734 199.734 0 0 1 37.442 7.817z"/><path d="m291.1 370.923-84.177 84.177a199.734 199.734 0 0 1 -37.442-7.814l113.8-113.8a199.655 199.655 0 0 1 7.819 37.437z"/></g><circle cx="344" cy="328" fill="#dadcde" r="8"/><circle cx="296" cy="328" fill="#dadcde" r="8"/><path d="m488 304a8 8 0 0 1 -8-8v-16a24.028 24.028 0 0 0 -24-24h-160a8 8 0 0 1 0-16h160a40.045 40.045 0 0 1 40 40v16a8 8 0 0 1 -8 8z" fill="#e9eef2"/><path d="m488 368h-35.34a40.071 40.071 0 0 1 -36.455-23.536 8.071 8.071 0 0 1 -.419-1.157l-10.886-39.307h-76.9a40.045 40.045 0 0 1 -40-40v-106.57a39.869 39.869 0 0 1 24.771-36.987l116.183-47.843a8 8 0 0 1 6.092 14.8l-66.028 27.187 48.047 173.413h70.935a8 8 0 0 1 8 8v64a8 8 0 0 1 -8 8zm-56.971-29.6a24.045 24.045 0 0 0 21.631 13.6h27.34v-48h-58.5zm-76.914-217.678-35.253 14.516a23.923 23.923 0 0 0 -14.862 22.192v106.57a24.027 24.027 0 0 0 24 24h72.463z" fill="#e9eef2"/><circle cx="296" cy="272" fill="#dadcde" r="24"/></svg>