<svg id="Capa_1" enable-background="new 0 0 512 512" height="512" viewBox="0 0 512 512" width="512" xmlns="http://www.w3.org/2000/svg"><g fill="#92563a"><path d="m24 344h320v32h-320z"/><path d="m24 376h32v112h-32z"/><path d="m312 376h32v112h-32z"/></g><path d="m24 376h32v16h-32z" fill="#804a32"/><path d="m312 376h32v16h-32z" fill="#804a32"/><path d="m222.45 343.35c-.27.06-.54.11-.81.16-1.04.18-2.1.32-3.18.4-.81.06-1.63.09-2.46.09h-56c-17.673 0-32-14.327-32-32v-17.84c.002-4.07.779-8.102 2.29-11.88l11.04-27.61 2.67-6.67-3.15-6.31-.06-.12-4.79-9.57c-.42-.42-.82-.84-1.22-1.28s-.78-.87-1.16-1.32c-2.216-2.667-4.103-5.591-5.62-8.71v19.31l-24 104h-48c-.004-9.557 6.112-18.042 15.18-21.06l8.82-2.94 16-80v-64c0-17.673 14.327-32 32-32h36.33v-40h39.34l.33 40h36c17.673 0 32 14.327 32 32v64l16 80 8.82 2.94c9.068 3.018 15.184 11.503 15.18 21.06h-48l-24-104v-64l-5.33 24-9.29 41.77c-.88 4-.201 8.184 1.9 11.7l16.16 26.93c2.983 4.972 4.559 10.662 4.56 16.46v15.14c.009 5.582-1.45 11.069-4.23 15.91.01.01.01.01-.01.02-.16.3-.34.59-.53.88-2.692 4.356-6.389 8.005-10.78 10.64-1.423.843-3.179 1.739-5.257 2.517-1.728.648-3.334 1.084-4.743 1.383z" fill="#fec9a3"/><path d="m169.344 124.229c8.875 5.917 20.437 5.917 29.312 0 1.832-1.247 3.553-2.649 5.144-4.191l-.133-16.038h-39.334v16.169c1.555 1.49 3.23 2.848 5.01 4.06z" fill="#feb784"/><path d="m131.672 207.667c-.487.002-.974-.043-1.453-.133-4.345-.799-7.22-4.968-6.422-9.313l4.336-23.664c.72-4.359 4.837-7.31 9.196-6.59s7.31 4.837 6.59 9.196c-.016.095-.033.19-.052.284l-4.336 23.664c-.697 3.795-4.002 6.551-7.859 6.556z" fill="#feb784"/><path d="m218.46 343.91c-.81.06-1.63.09-2.46.09h-56c-17.673 0-32-14.327-32-32v-17.84c.002-4.07.779-8.102 2.29-11.88l11.04-27.61c.124-5.696-.881-10.114-1.765-12.974-1.423-4.605-3.393-7.955-5.945-12.296-2.888-4.912-4.355-6.01-5.62-8.59-3.167-6.462-4.64-13.623-4.28-20.81h110.95l-9.29 41.77c-.88 4-.201 8.184 1.9 11.7l16.16 26.93c2.983 4.972 4.559 10.662 4.56 16.46v15.14c.009 5.582-1.45 11.069-4.23 15.91.01.01.01.01-.01.02-.16.3-.34.59-.53.88-2.725 4.33-6.415 7.971-10.78 10.64-1.715 1.086-4.15 2.377-7.254 3.3-2.597.772-4.919 1.065-6.736 1.16z" fill="#e0e0de"/><path d="m184 344h-56v-56h48z" fill="#f5af7d"/><path d="m344 344h144v144h-144z" fill="#c7c7c5"/><path d="m344 473.171v14.829h144v-144h-6.495z" fill="#bfbfbd"/><path d="m344 344v-24l16-16h24v24l-16 16z" fill="#3b495e"/><path d="m464 312v-24l-16-16h-24l-8 16 24 24z" fill="#404f66"/><path d="m424 344v-24l-16-16h-24v16 8l16 16z" fill="#404f66"/><path d="m376 312h32l8-24-8-16h-32l-8 16z" fill="#4d5e78"/><path d="m456 344h-32l-8-24 8-16h32z" fill="#4d5e78"/><path d="m448 328v16h40v-16l-8-16h-16z" fill="#3b495e"/><path d="m368 368h120v16h-120z" fill="#b0b0ae"/><path d="m368 400h16v16h-16z" fill="#d6d6d4"/><path d="m368 432h16v32h-16z" fill="#d6d6d4"/><path d="m368.836 251.578-4-8c-3.617-7.292-3.617-15.856 0-23.148 1.391-2.784 1.391-6.06 0-8.844-3.617-7.295-3.617-15.861 0-23.156 1.391-2.784 1.391-6.06 0-8.844l-4-8.008 14.312-7.156 4 8c3.625 7.296 3.625 15.868 0 23.164-1.382 2.786-1.382 6.058 0 8.844 3.625 7.293 3.625 15.863 0 23.156-1.382 2.786-1.382 6.058 0 8.844l4 7.992z" fill="#f35244"/><path d="m408.844 251.578-4-8c-3.617-7.292-3.617-15.856 0-23.148 1.383-2.791 1.383-6.069 0-8.86-3.617-7.289-3.617-15.851 0-23.14 1.383-2.791 1.383-6.069 0-8.86l-4-7.992 14.312-7.156 4 8c3.617 7.292 3.617 15.856 0 23.148-1.383 2.791-1.383 6.069 0 8.86 3.617 7.289 3.617 15.851 0 23.14-1.383 2.791-1.383 6.069 0 8.86l4 7.992z" fill="#f35244"/><path d="m448.844 251.578-4-8c-3.617-7.292-3.617-15.856 0-23.148 1.383-2.791 1.383-6.069 0-8.86-3.617-7.289-3.617-15.851 0-23.14 1.383-2.791 1.383-6.069 0-8.86l-4-7.992 14.312-7.156 4 8c3.617 7.292 3.617 15.856 0 23.148-1.383 2.791-1.383 6.069 0 8.86 3.617 7.289 3.617 15.851 0 23.14-1.383 2.791-1.383 6.069 0 8.86l4 7.992z" fill="#f35244"/><path d="m264 487.333h-40l-8-39.333-59.921-130.469c-4.518-11.291.973-24.107 12.264-28.624 2.602-1.041 5.378-1.576 8.181-1.576 12.036 0 22.729 7.683 26.57 19.09z" fill="#fec9a3"/><path d="m199.333 488-47.333-.667-49.671-167.433c-3.983-13.426 3.672-27.54 17.099-31.523 2.341-.695 4.77-1.047 7.212-1.047 10.181 0 19.035 6.981 21.411 16.881l30.616 143.119z" fill="#fec9a3"/><circle cx="144" cy="39.333" fill="#ffa912" r="23.333"/><path d="m216 63.33v19.16c-.003 13.022-6.509 25.182-17.34 32.41-6.576 4.372-14.76 5.582-22.32 3.3-.14-.04-.29-.09-.43-.14-2.327-.742-4.538-1.805-6.57-3.16-10.832-7.228-17.338-19.388-17.34-32.41v-19.16c0-17.673 14.327-32 32-32s32 14.327 32 32z" fill="#fec9a3"/><path d="m216 63.33v19.16c-.003 13.022-6.509 25.182-17.34 32.41-6.576 4.372-14.76 5.582-22.32 3.3-.14-.04-.29-.09-.43-.14 14.972-2.984 25.755-16.124 25.76-31.39v-24c0-14.359-9.562-26.962-23.39-30.83 17.388-3.159 34.046 8.376 37.205 25.765.343 1.889.515 3.805.515 5.725z" fill="#fec093"/><path d="m214.99 55.71-13.38 5.02-49.61 18.6v-16c-.027-17.645 14.255-31.972 31.901-31.999 14.747-.023 27.594 10.051 31.089 24.379z" fill="#ffb531"/><path d="m214.99 55.71-13.38 5.02c-.826-13.617-10.192-25.215-23.33-28.89 16.625-3.008 32.715 7.455 36.71 23.87z" fill="#ffa912"/></svg>