<svg id="Layer_1" enable-background="new 0 0 512 512" height="512" viewBox="0 0 512 512" width="512" xmlns="http://www.w3.org/2000/svg"><g><path d="m441.889 426.587c36.841-42.873 59.113-98.628 59.113-159.589 0-135.311-109.691-245.002-245.002-245.002s-245.002 109.691-245.002 245.002c0 60.961 22.272 116.716 59.113 159.589z" fill="#ff4155"/><path d="m83.121 46.12h269.418c11.225 0 22.215 4.445 30.335 12.565l47.294 47.295c.437.437.859.887 1.276 1.34v-97.362c0-6.018-5.297-10.66-11.263-9.87l-344.005 45.544 1.514 1.595c1.668-.711 3.503-1.107 5.431-1.107z" fill="#d3dcfb"/><path d="m420.182.088-344.006 45.544 1.514 1.595c1.668-.712 3.503-1.107 5.432-1.107h269.418c11.225 0 22.215 4.445 30.335 12.565l8.024 8.024c4.197-34.912 40.546-37.46 40.546-37.46v-19.291c0-6.018-5.298-10.66-11.263-9.87z" fill="#bec8f7"/><path d="m69.265 173.115v252.472c10.676 12.559 22.609 24.011 35.582 34.199 20.624.229 277.21 3.075 297.95 3.341 14.669-10.999 28.077-23.589 39.937-37.54v-252.472z" fill="#e9efff"/><path d="m150.82 173.115h-81.555v252.472c10.676 12.559 22.609 24.011 35.582 34.199 4.745.053 21.99.244 45.973.51z" fill="#d3dcfb"/><path d="m442.735 250.686-176.551 128.05c-.99-1.363-2.187-2.56-3.55-3.55l146.559-202.071h-59.999l-89.425 200.408c-1.509-.675-3.137-1.132-4.851-1.308l20.761-199.1h-44.836l20.761 199.1c-1.714.177-3.342.634-4.851 1.308l-89.425-200.408h-59.999l146.559 202.071c-1.363.99-2.56 2.188-3.55 3.55l-171.073-124.077v51.348l169.41 75.593c-.675 1.51-1.132 3.137-1.309 4.851l-168.101-17.528v38.371l168.101-17.529c.177 1.714.634 3.341 1.309 4.851l-138.221 61.676c1.437 1.182 2.892 2.342 4.356 3.491 4.872.054 23.333.259 48.878.543l86.649-62.846c.99 1.363 2.188 2.56 3.55 3.55l-43.384 59.816c6.596.073 13.349.148 20.199.225l26.049-58.379c1.51.675 3.137 1.132 4.851 1.309l-5.98 57.348c5.093.057 10.198.114 15.292.171l-5.998-57.518c1.714-.177 3.342-.634 4.851-1.309l26.375 59.109c7.033.079 13.965.156 20.735.232l-44.245-61.003c1.362-.99 2.56-2.188 3.55-3.55l89.765 65.105c24.458.276 42.074.478 46.868.54 2.288-1.717 4.55-3.467 6.776-5.261l-141.746-63.249c.675-1.51 1.132-3.137 1.309-4.851l173.579 18.1v-39.514l-173.579 18.1c-.177-1.714-.634-3.341-1.309-4.851l174.888-78.038v-52.876z" fill="#d3dcfb"/><g fill="#bec8f7"><path d="m150.82 313.81-81.555-59.151v51.348l81.555 36.391z"/><path d="m150.82 173.115h-53.491l53.491 73.752z"/><path d="m150.82 377.427-81.555-8.504v38.372l81.555-8.504z"/><path d="m150.82 433.819-50.366 22.474c1.437 1.182 2.892 2.342 4.356 3.491 4.688.052 21.958.243 46.01.511z"/></g><path d="m355.297 491.027c17.424-7.735 33.776-17.441 48.776-28.838-3.147-12.11-6.702-23.96-10.733-35.349-1.295-3.734-3.628-6.54-6.143-8.613-5.102 7.305-22.765 34.527-31.9 72.8z" fill="#fee77f"/><path d="m103.53 458.771c14.489 11.535 30.311 21.464 47.203 29.514-9.304-36.826-26.244-62.928-31.223-70.057-2.515 2.073-4.848 4.879-6.143 8.613-3.651 10.315-6.915 21.007-9.837 31.93z" fill="#ffc839"/><path d="m284.719 356.058c-6.019 6.502-12.561 10.869-18.191 13.734-8.519 4.335-18.538 4.341-27.058.009-5.491-2.791-11.836-7.008-17.717-13.243-.522 5.09-1.336 10.813-3.523 14.409-.657 1.08-1.736 1.831-2.964 2.132l-.016.004c.118.69.257 1.371.408 2.048 2.332 4.753 8.805 13.062 26.765 22.659 1.107.591 1.82 1.628 1.957 2.843l.109.981h17.727l.109-.981c.137-1.215.849-2.252 1.957-2.843 17.148-9.162 23.823-17.151 26.421-21.991.215-.895.411-1.798.567-2.716-1.242-.301-2.331-1.063-2.992-2.156-2.248-3.715-3.039-9.686-3.559-14.889z" fill="#fcad6d"/><path d="m254.191 373.005c-5.051.203-10.142-.869-14.779-3.233-5.477-2.792-11.799-7.001-17.659-13.213-.522 5.09-1.336 10.813-3.523 14.409-.657 1.08-1.736 1.831-2.964 2.132l-.016.004c.118.69.257 1.371.408 2.048 2.332 4.753 8.805 13.063 26.765 22.659 1.107.591 1.82 1.628 1.957 2.843l.109.981h2.393c5.335-7.103 6.88-20.319 7.309-28.63z" fill="#fd995b"/><path d="m262.361 400.531h-18.015c.173 1.177-.231 2.43-1.27 3.306l-24.285 20.492.169.676c9.982 40.054 16.841 67.41 21.613 86.497 5.103.318 10.244.498 15.427.498 3.402 0 6.783-.088 10.152-.225 4.662-18.562 11.484-45.844 21.595-86.771l.167-.675-24.284-20.491c-1.039-.878-1.443-2.131-1.269-3.307z" fill="#d3dcfb"/><path d="m253.261 444.914c-13.287 13.287-27.475 0-27.475 0l-2.026-.664c7.442 29.822 12.848 51.392 16.814 67.253 5.102.317 10.243.497 15.426.497 3.402 0 6.783-.088 10.152-.225 3.86-15.37 9.203-36.724 16.67-66.861-18.734 13.603-29.561 0-29.561 0z" fill="#bec8f7"/><g fill="#e9efff"><path d="m293.199 373.491c-.447-1.199-2.13-1.242-2.598-.052-1.713 4.36-7.476 13.053-26.838 23.398-3.02 1.614-3.456 5.66-.854 7.855l23.752 20.042c0 .001 11.499-37.939 6.538-51.243z"/><path d="m242.944 396.838c-19.362-10.346-25.124-19.038-26.838-23.398-.468-1.19-2.151-1.147-2.598.052-4.962 13.304 6.538 51.244 6.538 51.244l23.752-20.042c2.602-2.197 2.166-6.243-.854-7.856z"/><path d="m244.491 511.723c3.815.177 7.65.277 11.509.277 2.067 0 4.127-.027 6.182-.078v-111.391h-17.691z"/></g><path d="m244.491 450.787v60.936c3.815.177 7.65.277 11.509.277 2.067 0 4.127-.027 6.182-.078v-61.135c-2.209 8.951-15.481 8.952-17.691 0z" fill="#d3dcfb"/><path d="m376.823 412.948c-22.854-6.719-44.945-16.85-60.582-24.839l-47.424 123.559c31-1.598 60.473-8.962 87.376-21.033 8.99-37.347 26.061-64.106 31.505-71.978-3.206-2.799-6.836-4.522-10.865-5.706-.001-.001-.01-.003-.01-.003z" fill="#ffc839"/><path d="m325.583 406.187-4.501-14.316c-.766-2.436-2.504-4.479-4.832-5.653-11.169-5.634-19.841-11.303-22.993-13.438-.39-.264-.882.12-.73.567.744 2.179 1.124 4.462 1.111 6.764-.039 7.038-1.159 16.522-2.537 23.437l20.624 16.335 11.604-7.574c2.053-1.341 2.967-3.823 2.254-6.122z" fill="#ffdd40"/><path d="m321.184 425.436c-11.136-7.553-23.839-19.427-29.507-24.905l-26.972 111.299c6.132-.214 12.207-.651 18.217-1.308 19.336-28.423 34.996-61.217 41.223-74.919 1.654-3.641.399-7.888-2.961-10.167z" fill="#fcf0be"/><path d="m196.051 385.207c-15.674 8.287-40.44 20.177-66.167 27.741s-.009.002-.01.002c-4.029 1.184-7.659 2.908-10.865 5.706 5.31 7.677 21.684 33.307 30.83 69.21 27.406 13.197 57.65 21.426 89.563 23.561z" fill="#ffb332"/><path d="m210.115 426.157-14.064-40.95c-15.674 8.287-40.44 20.177-66.167 27.741s-.008.002-.01.002c-4.029 1.184-7.659 2.908-10.865 5.706 4.267 6.17 15.688 23.935 24.76 49.308 2.641-2.371 5.818-4.141 9.324-5.111 29.996-8.301 50.094-28.6 50.094-28.6z" fill="#ff9100"/><path d="m181.124 406.187 4.501-14.316c.766-2.436 2.504-4.479 4.832-5.653 10.904-5.5 19.428-11.034 22.759-13.28.465-.313 1.049.142.874.675-.686 2.098-1.034 4.289-1.022 6.498.039 7.038 1.159 16.522 2.537 23.437l-20.623 16.335-11.604-7.574c-2.053-1.341-2.967-3.823-2.254-6.122z" fill="#ffdd40"/><path d="m215.029 400.531c-5.668 5.478-18.371 17.352-29.507 24.905-3.36 2.279-4.615 6.526-2.961 10.165 6.177 13.59 21.634 45.962 40.752 74.222 6.141.819 12.353 1.41 18.63 1.765z" fill="#fcf0be"/><g><path d="m242.04 197.655c-32.995 4.496-36.131 23.203-36.145 30.066-.003 1.439-.8 2.773-2.095 3.403-17.163 8.349-7.909 48.588-7.909 48.588 1.723.115 3.527.813 4.873 1.465.329-2.05.867-4.069 1.627-6.021.579-1.487 1.302-2.989 2.207-4.408 1.57-2.462 2.285-5.367 2.071-8.271-.617-8.395-.32-24.936 10.761-29.922 9.387-4.224 20.903-1.778 28.246.664 4.769 1.586 9.935 1.586 14.704 0 7.343-2.442 18.859-4.888 28.246-.664 11.049 4.972 11.376 21.433 10.766 29.85-.212 2.926.484 5.861 2.065 8.342.934 1.465 1.675 3.018 2.263 4.552.731 1.907 1.25 3.877 1.572 5.877 1.696-.822 4.12-1.716 6.194-1.423.254-8.799 1.066-18.284 1.066-18.284 9.779-47.889-34.985-68.655-70.512-63.814z" fill="#823c26"/></g><path d="m245.186 233.062c-.098-.174-.19-.35-.293-.524-13.783-23.241 5.68-35.386 5.68-35.386l-.208-.158c-2.81.069-5.595.288-8.325.66-32.995 4.496-36.131 23.203-36.145 30.066-.003 1.439-.801 2.773-2.095 3.403-17.163 8.349-7.909 48.588-7.909 48.588 1.723.115 3.527.813 4.873 1.465.329-2.05.867-4.069 1.627-6.021.579-1.487 1.303-2.989 2.207-4.408 1.57-2.462 2.285-5.367 2.071-8.271-.617-8.395-.32-24.936 10.761-29.922 9.185-4.132 20.398-1.878 27.756.508z" fill="#702f1e"/><path d="m315.428 280.752c-2.57-2.355-7.689-1.161-9.902.281.485 3.02.512 6.109.094 9.159l-2.612 19.023c0 1.534-.048 3.038-.137 4.516 6.369 1.921 9.532-3.797 10.065-7.72.229-1.689.604-3.354 1.125-4.979 1.694-5.291 7.805-14.379 1.367-20.28z" fill="#fcad6d"/><g><path d="m309.603 300.121c-1.935 0-3.711-.686-5.096-1.828l-1.5 10.921c0 1.534-.048 3.038-.137 4.516 6.369 1.921 9.532-3.797 10.065-7.72.229-1.689.604-3.354 1.125-4.979.323-1.009.807-2.157 1.334-3.395-1.459 1.529-3.512 2.485-5.791 2.485z" fill="#fd995b"/></g><path d="m191.094 280.752c2.57-2.355 7.689-1.161 9.902.281-.485 3.02-.512 6.109-.093 9.159l2.612 19.023c0 1.534.049 3.038.137 4.516-6.369 1.921-9.532-3.797-10.065-7.72-.229-1.689-.605-3.354-1.125-4.979-1.695-5.291-7.807-14.379-1.368-20.28z" fill="#fcad6d"/><g><path d="m201.937 297.727c-1.454 1.477-3.474 2.394-5.711 2.394-1.756 0-3.375-.571-4.696-1.529.366.875.693 1.696.931 2.44.52 1.624.895 3.29 1.125 4.979.533 3.924 3.697 9.641 10.065 7.72-.089-1.478-.137-2.983-.137-4.516z" fill="#fd995b"/></g><path d="m202.871 309.358c0 2.785.156 5.46.434 8.038.377 1.249 11.259 36.128 50.353 36.128 39.014 0 48.721-34.734 49.092-36.118.275-2.563.43-5.223.43-7.991l2.612-19.023c.716-5.217.132-10.487-1.689-15.239-.649-1.694-1.422-3.25-2.299-4.626-1.499-2.352-2.21-5.226-2.003-8.093.663-9.151.115-25.25-11.007-30.254-9.341-4.202-20.677-1.967-28.543.649-4.658 1.55-9.79 1.55-14.448 0-7.866-2.616-19.202-4.853-28.543-.649-4.783 2.152-12.571 8.954-11.002 30.327.207 2.816-.506 5.664-2.008 8.021-.852 1.336-1.607 2.843-2.244 4.479-1.865 4.792-2.469 10.11-1.746 15.38z" fill="#f9ba8f"/><path d="m202.871 309.358c0 2.785.156 5.46.434 8.037.35 1.161 9.857 31.629 42.918 35.681-7.564-9.629-14.989-24.082-14.989-43.718l-2.609-18.971c-.723-5.27-.12-10.588 1.746-15.38.637-1.636 1.392-3.143 2.243-4.479 1.502-2.357 2.215-5.205 2.008-8.021-1.492-20.318 5.471-27.464 10.271-29.969-7.814-2.482-18.643-4.404-27.632-.358-4.783 2.152-12.571 8.954-11.002 30.327.207 2.816-.506 5.664-2.008 8.021-.852 1.336-1.607 2.843-2.243 4.479-1.865 4.792-2.469 10.11-1.746 15.38z" fill="#fcad6d"/><path d="m302.763 317.359c-2.059 5.081-6.839 11.195-14.682 14.597-1.448-8.633-7.676-17.277-15.992-19.163l-12.71-3.734c-2.21-.649-4.422.485-5.312 2.409-.163.352-.653.352-.816 0-.89-1.925-3.102-3.058-5.312-2.409l-12.71 3.734c-8.48 1.923-14.794 10.874-16.077 19.674-8.676-3.272-13.692-9.762-15.858-15.108 4.516 31.988 22.813 47.105 36.118 53.886 8.528 4.346 18.587 4.36 27.117.019 13.307-6.772 31.713-21.886 36.234-53.905zm-34.951 32.715c-5.459 1.929-11.416-1.505-12.115-7.187-.009-.073-.018-.148-.026-.222-.115-1.06-1.002-1.874-2.082-1.874-1.08 0-1.967.814-2.082 1.874-.008.075-.017.149-.026.222-.699 5.683-6.656 9.116-12.115 7.187-7.511-2.654-10.742-7.68-12.131-11.366 4.069-5.566 10.061-9.56 16.958-11.083l2.27-.501c3.309-.73 5.868-3.961 6.806-7.402.108-.395.67-.395.777 0 .938 3.441 3.497 6.672 6.806 7.402l2.27.501c6.525 1.441 12.243 5.092 16.287 10.195-.835 3.723-3.461 9.38-11.597 12.254z" fill="#823c26"/><path d="m244.248 350.461-.005-.021c-1.568.3-3.244.211-4.877-.366-7.511-2.654-10.742-7.68-12.131-11.366 2.986-4.085 7.01-7.318 11.665-9.354-10.445-3.168-6.874-14.097-6.277-15.723-7.148 2.975-12.323 10.963-13.471 18.835-8.676-3.272-13.693-9.762-15.858-15.108 4.516 31.988 22.813 47.105 36.118 53.886 4.681 2.386 9.823 3.458 14.921 3.229-17.518-7.994-10.085-24.012-10.085-24.012z" fill="#702f1e"/><g><g><path d="m266.846 274.247c-6.435 2.081-9.723 9.793-5.698 16.131 4.882 7.686 14.126 17.762 25.76 17.762s15.58-11.322 15.58-18.177-4.259-18.177-19.216-18.177c-6.951-.001-12.489 1.188-16.426 2.461z" fill="#fcf0be"/></g></g><path d="m276.766 290.377c-4.025-6.338-.737-14.05 5.698-16.131 1.956-.633 4.309-1.244 7.033-1.7-1.832-.488-3.899-.762-6.224-.762-6.952 0-12.49 1.189-16.426 2.462-6.435 2.081-9.723 9.793-5.698 16.131 4.882 7.686 14.126 17.762 25.76 17.762 2.827 0 5.196-.672 7.169-1.783-7.641-3.234-13.683-10.265-17.312-15.979z" fill="#fee77f"/><g><g><path d="m240.471 274.247c6.435 2.081 9.723 9.793 5.698 16.131-4.882 7.686-14.126 17.762-25.76 17.762-11.633 0-15.58-11.322-15.58-18.177s4.259-18.177 19.216-18.177c6.951-.001 12.489 1.188 16.426 2.461z" fill="#fcf0be"/></g></g><path d="m221.805 289.962c0-5.689 2.939-14.446 12.483-17.265-2.958-.545-6.382-.912-10.245-.912-14.957 0-19.216 11.322-19.216 18.177s3.947 18.177 15.58 18.177c3.283 0 6.376-.803 9.234-2.128-5.711-3.607-7.836-11.025-7.836-16.049z" fill="#fee77f"/><g><g><path d="m256.484 285.871c-1.717-1.118-3.936-1.117-5.654 0-.055.036-.112.07-.169.103-1.644.939-3.738.369-4.677-1.275-.913-1.597-.4-3.62 1.139-4.594 3.985-2.575 9.123-2.568 13.101.022 1.586 1.033 2.035 3.156 1.002 4.742-1.031 1.585-3.154 2.035-4.742 1.002z" fill="#ffb332"/></g></g><path d="m246.616 405.481v-11.037c0-.292.045-.572.112-.844-9.102-6.125-18.066-7.905-23.345-8.391-2.583-.238-4.791 1.855-4.682 4.446.575 13.649 3.63 22.349 5.612 26.646.899 1.949 3.094 2.943 5.149 2.324 9.932-2.99 15.152-8.378 17.516-11.606-.225-.467-.362-.985-.362-1.538z" fill="#ff4155"/><path d="m283.139 385.21c-5.277.486-14.238 2.29-23.338 8.412.063.265.105.539.105.823v11.037c0 .552-.137 1.069-.361 1.535 2.361 3.227 7.574 8.616 17.515 11.609 2.056.619 4.25-.374 5.149-2.324 1.982-4.297 5.036-12.996 5.612-26.646.109-2.592-2.099-4.684-4.682-4.446z" fill="#ff4155"/><path d="m277.818 386.019c-5.071 1.058-11.505 3.221-18.017 7.603.063.265.105.538.105.823v11.037c0 .552-.137 1.069-.361 1.535 2.078 2.84 6.367 7.352 14.139 10.433-10.679-21.304 4.085-31.398 4.134-31.431z" fill="#e80054"/><path d="m228.705 386.019c5.071 1.058 11.505 3.221 18.017 7.603-.063.265-.105.538-.105.823v11.037c0 .552.137 1.069.361 1.535-2.078 2.84-6.367 7.352-14.139 10.433 10.68-21.304-4.085-31.398-4.134-31.431z" fill="#e80054"/><path d="m257.207 390.888h-7.893c-1.964 0-3.556 1.592-3.556 3.556v11.037c0 1.964 1.592 3.556 3.556 3.556h7.893c1.964 0 3.556-1.592 3.556-3.556v-11.037c.001-1.964-1.592-3.556-3.556-3.556z" fill="#ff4155"/><path d="m255.112 393.29c-1.777 0-3.217 1.44-3.217 3.217v1.348c0 1.777 1.44 3.217 3.217 3.217 1.777 0 3.217-1.44 3.217-3.217v-1.348c-.001-1.777-1.441-3.217-3.217-3.217z" fill="#ff7186"/><g><path d="m397.637 216.406h-20.144c-4.635 0-8.393-3.758-8.393-8.394s3.758-8.393 8.393-8.393h20.144c4.636 0 8.393 3.757 8.393 8.393s-3.758 8.394-8.393 8.394z" fill="#bec8f7"/></g><path d="m404.59 114.87h-19.249c-7.571 0-13.708-6.137-13.708-13.708v-19.249c0-25.719-8.097-34.676-13.745-37.797-1.765-.222-3.55-.347-5.348-.347h-269.419c-7.653 0-13.856 6.204-13.856 13.856v117.729h373.469v-41.39c0-2.181-.169-4.344-.494-6.473-7.565-12.25-36.244-12.611-37.65-12.621z" fill="#fc90ce"/><path d="m83.121 43.768c-7.653 0-13.856 6.204-13.856 13.856v117.729h81.555c-8.68-12.563-1.646-25.248-1.646-25.248l17.826-55.688-5-18.682c-12.333-16.682 0-31.966 0-31.966h-78.879z" fill="#fe72c2"/><g><g><path d="m193.437 150.107c-.993 0-2.002-.177-2.986-.552-4.332-1.65-6.506-6.499-4.856-10.831l22.464-58.983c.024-.066.051-.131.077-.196 1.506-3.674 5.045-6.05 9.016-6.053.002-.001.004-.001.006-.001 3.968 0 7.507 2.37 9.016 6.042.031.075.062.152.091.228l22.26 58.985c1.637 4.338-.553 9.18-4.89 10.816-4.338 1.636-9.18-.553-10.816-4.889l-15.691-41.581-15.845 41.604c-1.276 3.352-4.464 5.411-7.846 5.411z" fill="#ffdd40"/></g><g><path d="m233.78 135.415h-33.335c-4.636 0-8.394-3.757-8.394-8.394 0-4.636 3.758-8.393 8.394-8.393h33.335c4.635 0 8.393 3.757 8.393 8.393 0 4.637-3.758 8.394-8.393 8.394z" fill="#ffdd40"/></g></g><g><g><path d="m149.123 150.105c-4.193 0-7.901-2.663-9.237-6.643-.033-.098-.064-.198-.093-.297l-8.684-29.432-5.235 29.002c-.823 4.563-5.193 7.592-9.751 6.77-4.562-.824-7.593-5.189-6.77-9.751l10.515-58.258c.853-4.439 4.52-7.682 8.936-7.977 4.421-.294 8.483 2.428 9.89 6.624.033.097.063.196.092.294l10.22 34.641 9.851-34.558c.028-.098.058-.196.09-.293 1.366-4.207 5.398-6.979 9.818-6.718 4.414.249 8.115 3.449 8.998 7.781l11.158 58.379c.87 4.554-2.115 8.95-6.669 9.82-4.555.881-8.949-2.115-9.82-6.668l-5.57-29.147-8.382 29.403c-.028.097-.057.194-.088.291-1.301 4.008-5.006 6.715-9.219 6.737-.016 0-.033 0-.05 0z" fill="#ffdd40"/></g></g><g><g><path d="m278.057 150.105c-21.122 0-38.306-17.184-38.306-38.306s17.184-38.306 38.306-38.306c7.674 0 15.083 2.264 21.423 6.548 3.841 2.596 4.851 7.813 2.256 11.654-2.595 3.843-7.812 4.85-11.654 2.257-3.555-2.402-7.713-3.671-12.025-3.671-11.866 0-21.519 9.653-21.519 21.519s9.654 21.519 21.519 21.519c9.361 0 14.333-5.901 16.342-13.126h-8.417c-4.635 0-8.393-3.757-8.393-8.394 0-4.636 3.758-8.393 8.393-8.393h17.897c4.635 0 8.393 3.757 8.393 8.393.001 22.554-14.069 38.306-34.215 38.306z" fill="#ffdd40"/></g></g><g><g><path d="m350.447 150.105h-39.91c-3.08 0-5.912-1.686-7.379-4.395-1.468-2.707-1.334-6.001.347-8.581l30.526-46.849h-22.267c-4.635 0-8.393-3.757-8.393-8.394 0-4.636 3.758-8.394 8.393-8.394h37.754c3.08 0 5.912 1.686 7.379 4.395 1.468 2.707 1.334 6.001-.347 8.581l-30.526 46.85h24.423c4.636 0 8.394 3.757 8.394 8.393-.001 4.637-3.759 8.394-8.394 8.394z" fill="#ffdd40"/></g></g><g><path d="m398.624 345.87h-51.107c-4.636 0-8.393-3.758-8.393-8.393 0-4.636 3.758-8.394 8.393-8.394h51.107c4.635 0 8.393 3.757 8.393 8.394.001 4.636-3.757 8.393-8.393 8.393z" fill="#bec8f7"/></g><g><path d="m398.624 375.519h-51.107c-4.636 0-8.393-3.757-8.393-8.393s3.758-8.393 8.393-8.393h51.107c4.635 0 8.393 3.757 8.393 8.393.001 4.636-3.757 8.393-8.393 8.393z" fill="#bec8f7"/></g><g><path d="m398.624 405.169h-51.107c-4.636 0-8.393-3.757-8.393-8.394 0-4.636 3.758-8.393 8.393-8.393h51.107c4.635 0 8.393 3.757 8.393 8.393.001 4.636-3.757 8.394-8.393 8.394z" fill="#bec8f7"/></g><path d="m395.946 241.306h-42.579c4.519 0 8.182 3.663 8.182 8.182v45.749c0 4.519-3.663 8.182-8.182 8.182h42.579c4.519 0 8.182-3.663 8.182-8.182v-45.749c0-4.518-3.663-8.182-8.182-8.182z" fill="#4fabf7"/><path d="m395.946 430.438h-42.579c4.519 0 8.182 3.663 8.182 8.182v45.749c0 1.614-.473 3.114-1.28 4.381 15.59-7.343 30.279-16.28 43.859-26.604v-23.526c0-4.519-3.664-8.182-8.182-8.182z" fill="#49d88b"/><path d="m169.036 236.912h-54.606c-3.863 0-6.995-3.132-6.995-6.995v-17.149c0-3.863 3.132-6.995 6.995-6.995h54.606c3.863 0 6.995 3.132 6.995 6.995v17.149c0 3.863-3.132 6.995-6.995 6.995z" fill="#bec8f7"/><path d="m144.436 229.917v-17.149c0-3.863 3.132-6.995 6.995-6.995h-37.25c-3.863 0-6.994 3.132-6.994 6.995v17.149c0 3.863 3.132 6.995 6.994 6.995h37.25c-3.864 0-6.995-3.132-6.995-6.995z" fill="#a5b5f2"/><path d="m382.875 56.334c-8.045-8.046-18.957-12.565-30.335-12.565 0 0 17.77.349 17.77 38.145v19.249c0 8.267 6.764 15.031 15.031 15.031h19.249s38.145.264 38.145 17.77c0-11.378-4.52-22.29-12.565-30.335z" fill="#e9efff"/><path d="m355.605 241.306h-45.749c-4.519 0-8.182 3.663-8.182 8.182v45.749c0 4.519 3.663 8.182 8.182 8.182h45.749c4.519 0 8.182-3.663 8.182-8.182v-45.749c0-4.518-3.664-8.182-8.182-8.182z" fill="#73c3f9"/><path d="m355.605 430.438h-45.749c-4.519 0-8.183 3.663-8.183 8.182v45.749c0 4.519 3.663 8.182 8.183 8.182h41.956c3.856-1.64 7.659-3.381 11.41-5.21.36-.922.565-1.923.565-2.973v-45.748c0-4.519-3.664-8.182-8.182-8.182z" fill="#a0f9c4"/></g></svg>