<svg id="Layer_1" enable-background="new 0 0 511.553 511.553" height="512" viewBox="0 0 511.553 511.553" width="512" xmlns="http://www.w3.org/2000/svg"><g><path d="m358.513 185.454c-.595.002-32.964.146-69.313.083-1.904-5.325-3.69-10.336-5.127-14.397l-21.304 1.97-17.964 8.757 9.617 26.682c3.793 10.524 13.777 17.54 24.964 17.54 28.323 0 78.97.001 79.262 0 11.24-.038 20.287-9.181 20.25-20.385-.037-11.221-9.164-20.287-20.385-20.25z" fill="#ffb69e"/><g id="XMLID_368_"><g id="XMLID_370_"><path d="m160.971 511.553c-13.465 0-24.381-10.916-24.381-24.381v-194.881c0-13.465 10.916-24.381 24.381-24.381s24.382 10.916 24.382 24.381v194.881c0 13.465-10.917 24.381-24.382 24.381z" fill="#ffb69e"/></g><g id="XMLID_369_"><path d="m220.26 511.553c-13.465 0-24.381-10.916-24.381-24.381v-194.881c0-13.465 10.916-24.381 24.381-24.381s24.382 10.916 24.382 24.381v194.881c0 13.465-10.917 24.381-24.382 24.381z" fill="#ffb69e"/></g></g><ellipse cx="190.616" cy="42.109" fill="#ffb69e" rx="42.109" ry="42.109" transform="matrix(.924 -.383 .383 .924 -1.605 76.151)"/><path d="m208.241 97.64h-35.291l-.282 5.322c-.541 10.199 7.583 18.765 17.796 18.765 9.891 0 17.89-8.055 17.821-17.945z" fill="#ffb69e"/><path d="m242.367 175.103s.906 2.513 2.438 6.764l39.268-10.727s-7.286-20.533-11.281-32.161c-9.427-27.431-25.232-41.339-46.979-41.339h-17.572c.247 9.418-8.507 17.388-17.656 17.388-9.805 0-17.08-7.94-17.636-17.388h-17.532c-21.747 0-37.552 13.908-46.979 41.339-3.996 11.628-11.319 32.266-11.319 32.266l18.711 10.272 20.594.351c1.532-4.25 2.437-6.762 2.437-6.762l-28.858 151.298c-.641 3.308.231 6.728 2.374 9.329 2.143 2.6 5.337 4.117 8.707 4.117h139.059c3.372 0 6.567-1.507 8.711-4.109s3.011-6.026 2.37-9.337z" fill="#ff6473"/><g><g><g><path d="m94.247 317.496h-30.971c-6.497 0-11.782-5.286-11.782-11.782v-12.807c0-6.497 5.286-11.782 11.782-11.782h30.971c6.497 0 11.783 5.285 11.783 11.782v12.807c0 6.496-5.286 11.782-11.783 11.782zm-30.753-12h30.536v-12.372h-30.536z" fill="#853c26"/></g></g><g fill="#853c26"><path d="m53.779 409.268h-16.643c-2.937 0-5.317 2.38-5.317 5.317v4.591c0 2.937 2.38 5.317 5.317 5.317h16.643c2.937 0 5.317-2.381 5.317-5.317v-4.591c0-2.937-2.38-5.317-5.317-5.317z"/><path d="m120.387 409.268h-16.643c-2.937 0-5.317 2.38-5.317 5.317v4.591c0 2.937 2.38 5.317 5.317 5.317h16.643c2.937 0 5.317-2.381 5.317-5.317v-4.591c0-2.937-2.38-5.317-5.317-5.317z"/></g><g><path d="m127.852 304.694h-98.181c-9.324 0-16.883 7.559-16.883 16.883v76.27c0 9.324 7.559 16.883 16.883 16.883h98.181c9.324 0 16.883-7.559 16.883-16.883v-76.27c0-9.325-7.559-16.883-16.883-16.883z" fill="#a85b38"/></g></g><path d="m97.12 171.244s-36.522 101.166-36.799 101.924c-3.853 10.539 1.566 22.206 12.105 26.059 10.536 3.851 22.205-1.564 26.059-12.105.24-.657 37.94-105.255 37.94-105.255z" fill="#ffb69e"/><path d="m478.511 63.919h-121.424c-5.075 0-9.188 4.114-9.188 9.188v35.117c0 5.075 4.114 9.188 9.188 9.188h121.424c3.156 0 6.091-1.62 7.773-4.289l11.066-17.558c1.887-2.994 1.887-6.804 0-9.798l-11.066-17.558c-1.682-2.67-4.617-4.29-7.773-4.29z" fill="#6c9baa"/><path d="m341.566 84.062h-121.424c-3.156 0-6.091 1.619-7.773 4.289l-11.066 17.558c-1.886 2.994-1.886 6.804 0 9.798l11.066 17.558c1.682 2.67 4.618 4.29 7.773 4.29h121.424c5.075 0 9.188-4.114 9.188-9.188v-35.117c0-5.074-4.114-9.188-9.188-9.188z" fill="#6c9baa"/><g><path d="m362.899 511.553h-30v-468.03c0-6.205 5.031-11.236 11.236-11.236h7.528c6.205 0 11.236 5.031 11.236 11.236z" fill="#87afb9"/></g></g></svg>