<svg id="Layer_1_1_" enable-background="new 0 0 64 64" height="512" viewBox="0 0 64 64" width="512" xmlns="http://www.w3.org/2000/svg"><path d="m62 62-9-2-13 2-15-2-11 2h-12l1-18-1-12 1-12-1-18 9 1 2 4 1-4 15-1 16 1 17-1-1 17 1 23z" fill="#ded8d0"/><path d="m25 60 15 2 13-2 9 2v-20l-.71814-16.51654-21.28186 10.51654-7 9-14 9-16.68195 1.59314-.31805 6.40686h12z" fill="#c9c4bd"/><path d="m33 8h19v8h-19z" fill="#f09d3a"/><path d="m33 16-5 5h19l5-5z" fill="#223b5a"/><path d="m52 16c2.20914 0 4-1.79086 4-4s-1.79086-4-4-4z" fill="#f5a947"/><path d="m25.1894 15.63081c.47129-1.6619 1.77951-2.97012 3.44141-3.44141.19899-.05643.19899-.32236 0-.37879-1.6619-.47129-2.97012-1.77951-3.44141-3.44141-.05643-.19899-.32236-.19899-.37879 0-.47129 1.6619-1.77951 2.97012-3.44141 3.44141-.19899.05643-.19899.32236 0 .37879 1.6619.47129 2.97012 1.77951 3.44141 3.44141.05642.19898.32236.19898.37879 0z" fill="#f5a947"/><path d="m39 47 3-9 4 4 5-10 6 16h-18z" fill="#e34e4b"/><path d="m48 48 2-5 2 5z" fill="#223b5a"/><path d="m8 20 3-7 3 7z" fill="#50b6cf"/><path d="m14 18 3-7 3 7z" fill="#50b6cf"/><path d="m12 38 10 10 12-11-10-10z" fill="#50b6cf"/><circle cx="39" cy="20" fill="#f09d3a" r="3"/><circle cx="46" cy="20" fill="#f09d3a" r="3"/><path d="m52 16v8l-5 5v-8z" fill="#f5a947"/><path d="m32 21c0-1.65685 1.34315-3 3-3s3 1.34315 3 3z" fill="#f5a947"/><path d="m28 21h19v8h-19z" fill="#f09d3a"/><path d="m40 21c0-1.65685 1.34315-3 3-3s3 1.34315 3 3z" fill="#f5a947"/><g fill="#223b5a"><path d="m10 48.757h2v8.485h-2z" transform="matrix(.707 -.707 .707 .707 -34.255 23.302)"/><path d="m6.757 52h8.485v2h-8.485z" transform="matrix(.707 -.707 .707 .707 -34.255 23.302)"/><path d="m21.3125 54.0625-.31104-.00049v-2l.31592.00049c.82373 0 1.72412-.00439 2.67773-.01514l.02246 2c-.96142.01075-1.86962.01514-2.70507.01514zm-2.32031-.01123c-1.87451-.01758-3.02197-.05176-3.02197-.05176l.05908-1.99902c.00586 0 1.13672.0332 2.98145.05078zm7.0376-.03467-.04004-2c.96484-.01904 1.9668-.0459 2.98926-.08105l.06836 1.99902c-1.03223.03516-2.04298.06201-3.01758.08203zm5.02978-.16357-.0918-1.99805c.98828-.04541 1.98633-.1001 2.97949-.16602l.13184 1.99609c-1.00683.06593-2.01758.12159-3.01953.16798zm5.03369-.31787-.16504-1.99316c1.00586-.08301 1.99658-.17871 2.95801-.28955l.22852 1.9873c-.98194.11279-1.99414.21045-3.02149.29541zm5.03613-.55371-.28418-1.97949c1.05664-.15186 2.03125-.32129 2.896-.50293l.41113 1.95703c-.90625.19042-1.92334.36718-3.02295.52539zm5.03907-1.02149-.55469-1.92188c1.08057-.31201 1.92822-.65625 2.51904-1.02393l1.05566 1.69873c-.75732.47071-1.74511.87843-3.02001 1.24708zm4.74023-3.2832-1.92871-.52832c.01318-.04932.02002-.09815.02002-.14844h2c0 .22803-.03076.45557-.09131.67676z"/></g><path d="m14.69678 40.66699-1.41406-1.41406c.70654-.70654 1.40088-.80518 1.86084-.87061.34912-.04932.49365-.06982.72852-.30469.23535-.23535.25586-.38037.30566-.72998.06592-.45996.16504-1.15479.87158-1.86133s1.40137-.80518 1.86133-.87061c.34912-.04932.49365-.06982.72803-.3042.23584-.23584.25635-.38086.30664-.73096.06543-.46045.16504-1.15527.87256-1.86279.70703-.70703 1.40234-.80713 1.8623-.87354.35156-.05078.49658-.07178.73389-.30859.2373-.2373.25781-.38232.30859-.7334.06592-.45996.16602-1.15527.87305-1.86279l1.41504 1.41406c-.2373.23682-.2583.38232-.30859.7334-.06592.45996-.16602 1.15527-.87402 1.86328-.70752.70703-1.40283.80713-1.86279.87354-.35107.05078-.49609.07129-.73291.30859-.23682.23633-.25732.38086-.30762.73145-.06543.45947-.16504 1.1543-.87158 1.86182-.70703.70654-1.40186.80518-1.86182.87061-.34912.04932-.49365.06982-.72803.3042-.23486.23535-.25537.37988-.30566.72949-.06543.45996-.16455 1.15527-.87158 1.8623-.70654.70654-1.40137.80518-1.86133.87061-.34914.04932-.49367.06983-.72804.3042z" fill="#3cadc9"/><path d="m18.03955 44.01074-1.41406-1.41504c.70654-.70605 1.40137-.80469 1.86133-.87012.34912-.04932.49365-.06982.72852-.30469.23535-.23535.25586-.38037.30566-.72998.06543-.45996.16455-1.15479.87158-1.86182.70654-.70654 1.40137-.80518 1.86133-.87012.34863-.04932.49316-.06982.72754-.3042.23584-.23633.25684-.38135.30713-.73145.06543-.45996.16504-1.15479.87158-1.8623.70801-.70752 1.40332-.80762 1.86328-.87354.35107-.05078.49658-.07129.73389-.30859.23682-.23682.25732-.38232.30811-.7334.06592-.45996.16602-1.15527.87402-1.86328l1.41406 1.41504c-.2373.23682-.25781.38184-.30859.73291-.06592.45996-.16602 1.15527-.87305 1.86279-.70801.70801-1.40381.80811-1.86377.87402-.35107.05078-.49658.07129-.7334.30859-.23584.23535-.25635.38037-.30664.73096-.06543.45996-.16504 1.15479-.87256 1.8623-.70654.70654-1.40137.80518-1.86133.87012-.34863.04932-.49316.06982-.72754.3042-.23535.23535-.25586.38037-.30566.72998-.06543.45996-.16455 1.15479-.87158 1.86182-.70654.70703-1.40186.80566-1.86133.87109-.34961.04934-.49414.06985-.72852.30471z" fill="#3cadc9"/><path d="m21.38281 47.35352-1.41406-1.41406c.70654-.70703 1.40186-.80566 1.86133-.87109.34961-.04932.49414-.06982.72852-.30469.23486-.23486.25537-.37939.30566-.72949.06543-.45996.16455-1.15479.87158-1.86182.70654-.70654 1.40137-.80518 1.86084-.87061.34912-.04932.49365-.06982.72803-.3042.23584-.23633.25684-.38086.30713-.73145.06543-.45947.16504-1.1543.87158-1.86182.70801-.70801 1.40332-.80762 1.86377-.87402.35107-.05029.49609-.07129.7334-.30811.23682-.23682.25781-.38232.30811-.7334.06592-.45996.16602-1.15576.87402-1.86328l1.41406 1.41406c-.2373.2373-.25781.38281-.30859.73389-.06592.45996-.16602 1.15527-.87305 1.86279-.70801.70801-1.40332.80762-1.86377.87402-.35107.05029-.49609.07129-.7334.30811-.23584.23584-.25635.38086-.30664.73096-.06543.46045-.16504 1.15527-.87256 1.86279-.70654.70605-1.40137.80469-1.86084.87012-.34912.04932-.49365.06982-.72803.3042-.23535.23535-.25586.38037-.30566.72998-.06592.45996-.16455 1.15479-.87109 1.86182-.70703.70654-1.40186.80518-1.86182.87061-.34912.04931-.49365.06982-.72852.30469z" fill="#3cadc9"/><path d="m40.354 42.91553c-.70703-.24365-1.43701-.48779-2.18457-.73145l.62012-1.90137c.7583.24756 1.49902.49463 2.2168.74219zm-4.08203-1.33838c-.93652-.29492-1.89258-.58984-2.85986-.88379l.58203-1.91309c.97314.2959 1.93604.59277 2.87842.88965zm-4.77246-1.46143-2.87695-.85742.57031-1.91699 2.87988.8584zm-4.79346-1.42724c-.97217-.28906-1.93555-.57715-2.88184-.86377l.58008-1.91406c.94238.28564 1.90283.57275 2.87207.86084zm-4.80273-1.45069c-.98926-.30566-1.95215-.60986-2.87744-.91113l.61914-1.90137c.9165.29834 1.86963.59863 2.84912.90137zm-4.79248-1.54931c-1.021-.3501-1.98047-.69678-2.86084-1.03857l.72461-1.86426c.85693.33301 1.79102.66992 2.78564 1.01123zm-4.75586-1.82373c-1.21582-.54199-2.13623-1.04395-2.81348-1.53418l1.17188-1.62012c.55664.40234 1.38281.84912 2.45605 1.32812zm-2.35547-3.87403-2-.0166c.01025-1.21777.6626-2.30469 1.93994-3.23047l1.17383 1.61914c-1.10693.80274-1.1123 1.42383-1.11377 1.62793zm2.67725-2.49756-.81055-1.82812c.84473-.37451 1.84521-.72363 2.97363-1.03711l.53613 1.92676c-1.03515.2876-1.94335.60351-2.69921.93847zm4.58838-1.40283-.42383-1.9541c.94043-.2041 1.95557-.39111 3.01611-.55566l.30664 1.97656c-1.02148.1582-1.99707.33789-2.89892.5332zm4.854-.80371-.24316-1.98535c1.78418-.21826 3.01025-.2959 3.06152-.29932l.125 1.99609c-.01221.00098-1.22314.07764-2.94336.28858z" fill="#223b5a"/><path d="m10 20h2v3h-2z" fill="#223b5a"/><path d="m16 18h2v3h-2z" fill="#223b5a"/></svg>