<?xml version="1.0" encoding="iso-8859-1"?>
<!-- Generator: Adobe Illustrator 19.0.0, SVG Export Plug-In . SVG Version: 6.00 Build 0)  -->
<svg version="1.1" id="Capa_1" xmlns="http://www.w3.org/2000/svg" xmlns:xlink="http://www.w3.org/1999/xlink" x="0px" y="0px"
	 viewBox="0 0 512 512" style="enable-background:new 0 0 512 512;" xml:space="preserve">
<path style="fill:#FFC477;" d="M504.5,7.5v20.365c-16.278,18.603-26.514,30.301-42.792,48.904L358.149,90.637l-211.261,94.892
	l-11.999,139.498l-22.499,51.017l22.499,49.497l-7.5,29.999v48.96H7.5V7.5H504.5z"/>
<rect x="7.5" y="7.5" style="fill:#FFA733;" width="63.01" height="497"/>
<polygon style="fill:#FF456D;" points="415.668,339.538 420.064,342.076 502.176,320.075 495.832,296.4 423.568,315.763 
	379.242,290.172 359.88,217.908 336.204,224.251 358.207,306.363 362.603,308.901 333.189,359.847 244.898,411.017 257.187,432.223 
	341.392,383.421 361.737,395.167 361.576,492.492 386.086,492.532 386.254,390.484 "/>
<g>
	<polygon style="fill:#FF0C38;" points="446.235,315.763 497.35,302.066 495.832,296.4 439.05,311.615 	"/>
	<polygon style="fill:#FF0C38;" points="267.564,411.017 355.856,359.847 385.269,308.901 380.873,306.363 358.871,224.251 
		361.398,223.574 359.88,217.908 336.205,224.251 358.207,306.363 362.603,308.901 333.189,359.847 244.897,411.017 
		257.187,432.223 274.155,422.389 	"/>
	<polygon style="fill:#FF0C38;" points="384.243,492.492 384.403,395.167 364.059,383.421 352.747,389.977 361.737,395.167 
		361.576,492.492 386.086,492.532 386.086,492.495 	"/>
</g>
<circle style="fill:#FFC477;" cx="419.08" cy="272.35" r="35.35"/>
<path style="fill:#FFA733;" d="M421.375,302.968c-16.908-9.762-22.701-31.382-12.939-48.29c4.727-8.188,12.238-13.759,20.645-16.23
	c-15.308-4.528-32.281,1.797-40.615,16.23c-9.762,16.908-3.969,38.528,12.939,48.29c8.72,5.034,18.691,5.922,27.645,3.291
	C426.426,305.482,423.849,304.396,421.375,302.968z"/>
<rect x="338.044" y="347.57" transform="matrix(-0.866 -0.5 0.5 -0.866 508.14 855.4293)" style="fill:#D8D7DA;" width="61.269" height="24.129"/>
<polygon style="fill:#ACABB1;" points="360.119,354.773 366.182,344.27 348.182,333.878 336.119,354.773 389.184,385.41 
	395.184,375.018 "/>
<circle style="fill:#45A2FF;" cx="161" cy="134" r="15.838"/>
<g>
	<rect x="208.33" y="29.939" style="fill:#1D1D1F;" width="74" height="15"/>
	<rect x="430.53" y="35.444" style="fill:#1D1D1F;" width="15" height="15"/>
	<rect x="380.95" y="35.444" style="fill:#1D1D1F;" width="14.586" height="15"/>
	<rect x="405.53" y="35.444" style="fill:#1D1D1F;" width="15" height="15"/>
	<rect x="120" y="49.647" style="fill:#1D1D1F;" width="15" height="15"/>
	<rect x="145" y="49.647" style="fill:#1D1D1F;" width="15" height="15"/>
	<rect x="170" y="49.647" style="fill:#1D1D1F;" width="15" height="15"/>
	<rect x="95" y="49.647" style="fill:#1D1D1F;" width="15" height="15"/>
	<path style="fill:#1D1D1F;" d="M451.288,300.57c6.618-7.544,10.643-17.417,10.643-28.218c0-23.628-19.223-42.851-42.851-42.851
		c-18.793,0-34.788,12.166-40.551,29.032l-13.346-49.812l-38.165,10.228l24.998,93.288l-11.219,19.432L181.086,145.863
		c2.063-3.479,3.252-7.534,3.252-11.863c0-12.868-10.47-23.338-23.338-23.338s-23.338,10.47-23.338,23.338
		s10.47,23.338,23.338,23.338c3.08,0,6.02-0.605,8.714-1.694L332.85,345.435l-5.154,8.928l-93.048,53.926l19.812,34.185
		l86.939-50.388l12.831,7.408l-0.166,100.485l39.51,0.065l0.178-107.544l24.321-42.125l93.29-24.996l-10.226-38.165L451.288,300.57z
		 M152.662,134c0-4.598,3.74-8.338,8.338-8.338s8.338,3.74,8.338,8.338s-3.74,8.338-8.338,8.338S152.662,138.598,152.662,134z
		 M419.081,244.502c15.356,0,27.851,12.494,27.851,27.851s-12.494,27.851-27.851,27.851s-27.851-12.494-27.851-27.851
		S403.725,244.502,419.081,244.502z M386.438,375.165l-40.074-23.137l4.563-7.904l40.074,23.137L386.438,375.165z M378.599,485.019
		l-9.51-0.015l0.154-94.163l-27.858-16.084l-81.469,47.216l-4.769-8.228l83.536-48.414l0.181-0.313l40.073,23.137l-0.181,0.314
		L378.599,485.019z M421.123,334.027l-8.2-4.734l-14.421,24.977l-40.074-23.137l14.42-24.976l-8.2-4.734l-19.258-71.867l9.187-2.462
		l18.226,68.021l49.707,28.697l68.02-18.227l2.462,9.187L421.123,334.027z"/>
	<path style="fill:#1D1D1F;" d="M235.314,436.109c-24.178,5.927-49.181,8.932-74.314,8.932v15c26.336,0,52.54-3.15,77.885-9.363
		L235.314,436.109z"/>
	<path style="fill:#1D1D1F;" d="M455.423,234.574l14.195,4.848c6.031-17.662,10.56-35.98,13.46-54.448l-14.818-2.328
		C465.493,200.26,461.175,217.731,455.423,234.574z"/>
	<path style="fill:#1D1D1F;" d="M487.041,134h-15c0,4.876-0.114,9.805-0.339,14.648l14.984,0.695
		C486.922,144.269,487.041,139.106,487.041,134z"/>
	<path style="fill:#1D1D1F;" d="M469.622,172.973l14.885,1.863c0.63-5.039,1.15-10.179,1.546-15.275l-14.955-1.16
		C470.721,163.264,470.224,168.167,469.622,172.973z"/>
	<path style="fill:#1D1D1F;" d="M221.281,472.229l2.615,14.77c24.559-4.347,48.722-11.302,71.815-20.672l-5.639-13.9
		C267.951,461.402,244.807,468.065,221.281,472.229z"/>
	<path style="fill:#1D1D1F;" d="M299.086,448.619l6.035,13.732c4.651-2.044,9.324-4.219,13.889-6.464l-6.619-13.461
		C308.018,444.578,303.541,446.661,299.086,448.619z"/>
	<path style="fill:#1D1D1F;" d="M321.107,437.983l7.002,13.266c4.49-2.37,8.996-4.873,13.392-7.438l-7.563-12.955
		C329.727,433.314,325.41,435.713,321.107,437.983z"/>
	<polygon style="fill:#1D1D1F;" points="0,0 0,512 134.89,512 134.89,456.463 142.8,424.821 120.608,375.999 142.254,326.912 
		153.983,190.563 173.07,181.991 166.924,168.308 148.534,176.567 112.02,140.054 112.02,104.333 97.02,104.333 97.02,146.267 
		139.117,188.365 127.523,323.143 107.501,368.545 61.446,368.545 61.446,383.545 107.561,383.545 126.978,426.263 119.89,454.617 
		119.89,497 88.115,497 88.115,433.188 73.115,433.188 73.115,497 15,497 15,15 497,15 497,25.047 457.92,69.71 360.831,82.71 
		322.592,44.472 311.984,55.079 345.156,88.251 204.978,151.215 211.124,164.898 360.227,97.926 465.496,83.829 512,30.684 512,0 	
		"/>
</g>
<path style="fill:#FFFFFF;" d="M68.946,317.375h-15V209.238h15V317.375z M68.946,199.238h-15v-15h15V199.238z M68.946,174.238h-15
	v-15h15V174.238z"/>
<g>
</g>
<g>
</g>
<g>
</g>
<g>
</g>
<g>
</g>
<g>
</g>
<g>
</g>
<g>
</g>
<g>
</g>
<g>
</g>
<g>
</g>
<g>
</g>
<g>
</g>
<g>
</g>
<g>
</g>
</svg>
