<svg id="Capa_1" enable-background="new 0 0 510.004 510.004" height="512" viewBox="0 0 510.004 510.004" width="512" xmlns="http://www.w3.org/2000/svg"><g><path d="m255 60.002v-30h-240v30h45v150h-45v30h240v-30h-21v-30h21v-30h-21v-30h21v-30h-21v-30zm-123 150h-42v-30h42zm0-60h-42v-30h42zm0-60h-42v-30h42zm72 120h-42v-30h42zm0-60h-42v-30h42zm0-60h-42v-30h42z" fill="#d5e8fe"/><path d="m495 60.002v-30h-240v30h21v30h-21v30h21v30h-21v30h21v30h-21v30h240v-30h-45v-150zm-147 150h-42v-30h42zm0-60h-42v-30h42zm0-60h-42v-30h42zm72 120h-42v-30h42zm0-60h-42v-30h42zm0-60h-42v-30h42z" fill="#b5dbff"/><path d="m30 360.002-29.996-2.077-.004-357.923h30z" fill="#00ddc1"/><path d="m510.004 357.991-30.004 2.011v-360h30z" fill="#00b5bc"/><path d="m170.022 387.947c-.006 0-.01 0-.016 0-25.476-.003-39.255-8.436-50.327-15.211-9.859-6.033-17.646-10.798-34.673-10.8-.003 0-.009 0-.012 0-17.021 0-24.805 4.762-34.664 10.791-11.071 6.771-24.852 15.197-50.315 15.198-.006 0-.01 0-.016 0l.004-30h.013c17.019 0 24.805-4.762 34.663-10.791 11.071-6.771 24.854-15.198 50.316-15.198h.015c25.476.003 39.255 8.436 50.327 15.211 9.859 6.033 17.646 10.798 34.673 10.8h.013c17.019 0 24.768-4.74 34.58-10.741l15.652 25.593c-11.034 6.748-24.77 15.148-50.233 15.148z" fill="#ffdd90"/><path d="m510 387.991c-25.474-.003-39.253-8.436-50.325-15.211-9.858-6.033-17.645-10.798-34.669-10.8-.005 0-.01 0-.015 0-4.523 0-8.534.335-12.264 1.025l-5.455-29.5c5.548-1.026 11.345-1.525 17.717-1.525h.021c25.473.003 39.251 8.436 50.323 15.211 9.858 6.033 17.645 10.798 34.67 10.8z" fill="#e7b964"/><path d="m435 390.002c0 18.026-3.995 35.136-11.146 50.492l-13.777 9.739-2.362 15.874c-6.532 7.944-14.063 15.036-22.399 21.084l-20.536.625-8.128 14.733c-12.981 4.819-27.015 7.453-41.652 7.453v-240c11.222 0 22.09 1.548 32.4 4.443l2.755 18.535 26.3-6.017c10.942 6.551 20.76 14.794 29.088 24.366.634.745 1.73 19.233 1.73 19.233l15.524 6.736c7.813 15.918 12.203 33.808 12.203 52.704z" fill="#1982bf"/><path d="m315 270.002v240c-66.17 0-120-53.83-120-120 0-6.023.446-11.943 1.307-17.73l9.243-10.456-.103-20.775c4.666-10.4 10.77-20.019 18.058-28.603l20.814 1.312 1.511-21.757c19.562-13.847 43.433-21.991 69.17-21.991z" fill="#4bb9ec"/><path d="m315 313.142 4.91 40.64-4.91 34.98-91.49-76.32c6.55-7.71 14.05-14.59 22.32-20.45l51.04 42.58z" fill="#ffdb00"/><path d="m423.85 440.492c-4.3 9.23-9.74 17.83-16.14 25.61l-92.71-77.34v-75.62l32.68-38.62c10.2 2.9 19.86 7.11 28.77 12.45l-56.54 66.81 28.71 23.95 56.92-66.4c6.81 7.83 12.63 16.55 17.25 25.97l-51.14 59.65z" fill="#ef9b14"/><path d="m315 430.052 12 19.95-12 18.7-118.69-96.43c1.63-10.96 4.75-21.44 9.14-31.23z" fill="#ffdb00"/><path d="m385.31 487.182c-8.74 6.34-18.37 11.54-28.66 15.36l-41.65-33.84v-38.65z" fill="#ef9b14"/></g></svg>