<svg id="Capa_1" enable-background="new 0 0 512 512" height="512" viewBox="0 0 512 512" width="512" xmlns="http://www.w3.org/2000/svg"><g><g><g><path d="m321.701 0v44.383l48.21 24.756 15.108-51.243-15.108-17.896z" fill="#2a3860"/><path d="m418.123 44.383v-44.383h-48.212v69.139l3.513 1.803z" fill="#232e41"/></g><g><path d="m321.701 44.383v88.011l-12.716 7.271c-33.279 19.027-53.951 54.66-53.951 92.995v279.34h114.878l29.64-300.563-29.64-167.054z" fill="#384e75"/><path d="m484.79 232.66c0-38.335-20.673-73.968-53.95-92.995l-12.716-7.271v-88.011h-48.212v467.617h114.878v-44.872l-91.223-93.732 91.223-130.789z" fill="#2a3860"/></g><path d="m321.222 242.074v225.375h48.689l21.713-109.37-21.713-116.005z" fill="#f2ede5"/><path d="m369.911 242.074h114.878v225.375h-114.878z" fill="#e7e3db"/></g><g><g><path d="m108.641 481.969h-54.37v30.031h69.17l6.38-90.106-6.38-59.23h-14.8z" fill="#edf5ff"/><path d="m193.042 512v-30.031h-54.37v-119.305h-15.231v149.336z" fill="#d6e8fd"/><path d="m27.21 184.787v70.338h96.231l15.95-34.634-15.95-35.704z" fill="#edf5ff"/><path d="m123.441 184.787h96.661v70.338h-96.661z" fill="#d6e8fd"/></g><g><path d="m27.21 255.125v26.108c0 53.108 43.149 96.326 96.231 96.443l13.34-62.791-13.34-59.76z" fill="#cf3086"/><path d="m123.441 255.125v122.551c.072 0 .143.003.215.003 53.18 0 96.446-43.266 96.446-96.446v-26.108z" fill="#9e1961"/></g></g></g></svg>